<svg width="68" height="90" viewBox="0 0 68 90" fill="none" xmlns="http://www.w3.org/2000/svg">
<path d="M35.0198 17.3707C35.0198 17.8017 34.6708 18.1497 34.2418 18.1497H27.2428C26.8128 18.1497 26.4648 17.8017 26.4648 17.3707C26.4648 16.9417 26.8128 16.5957 27.2428 16.5957H34.2418C34.6698 16.5957 35.0198 16.9417 35.0198 17.3707Z" fill="black"/>
<path d="M15.1143 41.9453V42.0363C15.2853 42.0723 15.4543 42.1193 15.6223 42.1713L15.1143 41.9453Z" fill="black"/>
<path d="M17.6328 43.0476C17.6968 43.0736 17.7628 43.0826 17.8278 43.1046L17.6328 43.0176V43.0476Z" fill="black"/>
<path d="M16.2421 42.4009C16.0391 42.3109 15.8311 42.2359 15.6221 42.1709L17.4921 43.0019C17.5381 43.0229 17.5871 43.0289 17.6331 43.0479V43.0179L16.2421 42.4009Z" fill="black"/>
<path d="M67.1251 71.2985L64.5201 67.7065C64.6841 65.4965 65.2681 57.7255 65.8031 52.4775C66.3961 46.6775 64.7851 43.6035 64.5991 43.2725L64.5751 43.2305C64.5111 43.1195 57.9401 32.1145 55.1361 25.2385C53.6421 21.5745 51.5291 20.2575 49.7081 19.8905V15.1155C49.7081 12.0525 47.2151 9.56055 44.1531 9.56055H17.3321C14.2691 9.56055 11.7771 12.0525 11.7771 15.1155V19.5815C11.4191 19.5145 11.0561 19.4755 10.6881 19.4755C8.33807 19.4755 6.20507 20.8615 5.25107 23.0085C3.92007 26.0065 5.27507 29.5275 8.27207 30.8575L11.5771 32.3245C10.7011 32.9335 9.98108 33.7695 9.53008 34.7835C8.32108 37.5075 9.33507 40.6575 11.7781 42.2095V42.3725C10.4921 42.9195 9.42407 43.9285 8.83607 45.2525C7.58007 48.0805 8.86007 51.4025 11.6871 52.6575L11.7791 52.6985V53.9455C10.8951 54.5255 10.1731 55.3545 9.72707 56.3605C8.59607 58.9035 9.52307 61.8445 11.7791 63.3235V68.9765C11.7791 72.0405 14.2711 74.5305 17.3341 74.5305H24.7291C26.8821 77.9145 29.2391 80.4795 31.7721 82.1525C33.4471 83.2585 34.8421 83.7325 35.7371 83.9305L37.6581 87.5315C37.8591 87.9505 38.7691 89.6006 40.6971 89.9136C40.8851 89.9436 41.0791 89.9576 41.2821 89.9576C42.7601 89.9576 44.3451 89.1276 44.6351 88.9676L65.7601 77.5865C66.5871 77.2125 67.5941 76.2276 67.8791 74.5686C68.1721 72.8716 67.2331 71.4555 67.1251 71.2985ZM15.1141 29.9125V24.5365V20.8845V15.1165C15.1141 13.8925 16.1071 12.9005 17.3311 12.9005H44.1521C45.3761 12.9005 46.3681 13.8925 46.3681 15.1165L46.4371 20.1105C46.4151 20.1175 46.3891 20.1245 46.3681 20.1315V20.6355C45.6171 20.9535 44.6921 21.4815 43.8491 22.3585V20.9635H17.6331V31.8775L17.3781 31.7645C16.6571 31.4445 15.8971 31.2775 15.1151 31.2585V29.9125H15.1141ZM12.5811 36.1405C12.9981 35.1985 13.9351 34.5905 14.9661 34.5905C15.0161 34.5905 15.0641 34.6035 15.1141 34.6065C15.4261 34.6245 15.7321 34.6875 16.0221 34.8155L17.6321 35.5305L20.2861 36.7095C21.6001 37.2925 22.1941 38.8375 21.6111 40.1505C21.1931 41.0925 20.2571 41.7005 19.2251 41.7005C18.8611 41.7005 18.5051 41.6245 18.1681 41.4755L17.6321 41.2375L15.1131 40.1185L13.9041 39.5815C12.5911 38.9975 11.9961 37.4535 12.5811 36.1405ZM9.62507 27.8065C8.31207 27.2225 7.71607 25.6785 8.30007 24.3645C8.71907 23.4225 9.65507 22.8145 10.6871 22.8145C11.0501 22.8145 11.4061 22.8895 11.7431 23.0395L11.7771 23.0545V28.7625L9.62507 27.8065ZM11.2741 46.3345C11.4011 46.0485 11.5741 45.7925 11.7761 45.5675C12.3261 44.9565 13.1161 44.5865 13.9661 44.5865C14.3621 44.5865 14.7461 44.6695 15.1131 44.8265C15.1271 44.8325 15.1421 44.8345 15.1561 44.8405L17.6311 45.9405L19.4201 46.7355C20.1381 47.0535 20.6891 47.6325 20.9721 48.3675C21.2541 49.0995 21.2341 49.8995 20.9151 50.6175C20.4431 51.6795 19.3871 52.3665 18.2241 52.3665C18.0241 52.3665 17.8261 52.3445 17.6311 52.3045C17.4271 52.2615 17.2271 52.1975 17.0321 52.1115L15.1121 51.2595L12.7671 50.2185C12.3741 50.0435 12.0431 49.7895 11.7741 49.4885C11.0311 48.6495 10.7921 47.4245 11.2741 46.3345ZM12.1651 57.4445C12.6361 56.3815 13.6931 55.6955 14.8561 55.6955C14.9431 55.6955 15.0281 55.7155 15.1151 55.7225C15.4351 55.7505 15.7491 55.8165 16.0481 55.9495L17.6331 56.6535L20.3111 57.8425C21.7941 58.5005 22.4651 60.2435 21.8061 61.7255C21.6901 61.9875 21.5381 62.2245 21.3591 62.4355C20.8081 63.0825 19.9921 63.4725 19.1151 63.4725C18.7051 63.4725 18.3031 63.3885 17.9231 63.2215L15.1151 61.9725L13.6601 61.3255C12.1761 60.6675 11.5061 58.9255 12.1651 57.4445ZM22.8021 71.1925H17.3321C16.1081 71.1925 15.1151 70.2005 15.1151 68.9765V64.8935L16.8401 65.6605C17.5621 65.9835 18.3281 66.1455 19.1151 66.1455C21.3321 66.1455 23.3471 64.8345 24.2471 62.8095C24.3021 62.6865 24.3461 62.5605 24.3911 62.4355H43.8511V37.7595C44.5531 39.7935 45.2771 41.6725 45.7851 42.9915C46.0121 43.5785 46.2431 44.1795 46.3701 44.5335V68.9765C46.3701 70.2005 45.3781 71.1925 44.1541 71.1925H26.5981H22.8021ZM64.5901 74.0015C64.5281 74.3685 64.3901 74.5165 64.3361 74.5605L43.0391 86.0315C42.6041 86.2695 41.7441 86.6196 41.2791 86.6196C41.2451 86.6196 41.2261 86.6175 41.2261 86.6175C40.9901 86.5775 40.7531 86.2595 40.6711 86.1005L38.2851 81.6275L37.8691 80.7196L36.8581 80.7436C36.5851 80.7176 33.0011 80.2325 28.7751 74.5295H44.1511C47.2131 74.5295 49.7061 72.0405 49.7061 68.9755V44.9815C49.9041 44.4215 49.6701 43.7965 48.8961 41.7905C47.8951 39.1925 46.0321 34.3555 45.2631 30.6945C44.7691 28.3435 44.9531 26.5015 45.8111 25.2215C46.2231 24.6055 46.7371 24.2075 47.1981 23.9425C47.8441 23.6045 48.8211 23.2145 49.6521 23.3935C50.5821 23.8545 51.3831 24.8865 52.0421 26.4995C54.8821 33.4675 61.1711 44.0415 61.6861 44.9045C61.7961 45.1285 62.9471 47.5875 62.4821 52.1395C61.8501 58.3275 61.1501 67.9775 61.1441 68.0755L61.1001 68.6805L64.3761 73.1935C64.4711 73.3525 64.6381 73.7285 64.5901 74.0015Z" fill="black"/>
<path d="M12.3143 80.6882C12.2153 80.6882 12.1163 80.6762 12.0163 80.6552C9.45627 80.0902 7.64127 78.8992 6.61927 77.1142C5.08927 74.4392 6.02427 71.4792 6.06527 71.3522C6.30127 70.6292 7.07827 70.2332 7.80427 70.4662C8.52727 70.7022 8.92327 71.4772 8.69227 72.1992C8.67827 72.2462 8.10427 74.1742 9.02627 75.7602C9.64827 76.8302 10.8543 77.5722 12.6103 77.9592C13.3543 78.1212 13.8243 78.8572 13.6603 79.6042C13.5193 80.2462 12.9483 80.6882 12.3143 80.6882Z" fill="black"/>
<path d="M11.3243 85.8859C11.2253 85.8859 11.1263 85.8749 11.0263 85.8529C6.51432 84.8579 3.33332 82.7919 1.57132 79.7149C-1.06968 75.0999 0.549324 69.9749 0.619324 69.7589C0.854324 69.0329 1.63432 68.6369 2.35832 68.8729C3.08232 69.1079 3.47933 69.8849 3.24533 70.6079C3.21733 70.6969 1.95133 74.8449 3.97833 78.3639C5.34033 80.7269 7.91233 82.3409 11.6203 83.1569C12.3643 83.3219 12.8343 84.0579 12.6703 84.8019C12.5283 85.4469 11.9583 85.8859 11.3243 85.8859Z" fill="black"/>
<path d="M53.5331 15.3766C53.4071 15.3766 53.2801 15.3596 53.1531 15.3246C52.4241 15.1166 51.9991 14.3566 52.2021 13.6266C52.2131 13.5906 52.7211 11.6366 51.7381 10.0796C51.0771 9.03263 49.8441 8.33863 48.0741 8.01463C47.3251 7.87863 46.8281 7.16063 46.9651 6.41063C47.1021 5.66163 47.8041 5.15663 48.5701 5.29963C51.1481 5.77063 53.0071 6.89463 54.0931 8.64063C55.7201 11.2566 54.8951 14.2486 54.8591 14.3756C54.6881 14.9816 54.1341 15.3766 53.5331 15.3766Z" fill="black"/>
<path d="M59.0329 16.7709C58.9069 16.7709 58.7799 16.7539 58.6529 16.7179C57.9219 16.5089 57.4979 15.7479 57.7029 15.0159C57.7249 14.9349 58.8439 10.7359 56.6859 7.28987C55.2389 4.97887 52.6099 3.46087 48.8739 2.77987C48.1249 2.64287 47.6269 1.92487 47.7639 1.17487C47.8999 0.42587 48.6089 -0.0791297 49.3679 0.0658703C53.9139 0.89387 57.1689 2.84087 59.0419 5.85287C61.8499 10.3689 60.4209 15.5499 60.3579 15.7699C60.1879 16.3759 59.6339 16.7709 59.0329 16.7709Z" fill="black"/>
<path d="M30.7412 69.5C29.2712 69.5 28.0742 68.304 28.0742 66.834C28.0742 65.363 29.2702 64.167 30.7412 64.167C32.2122 64.167 33.4082 65.363 33.4082 66.834C33.4082 68.304 32.2112 69.5 30.7412 69.5ZM30.7412 65.167C29.8222 65.167 29.0742 65.915 29.0742 66.834C29.0742 67.753 29.8222 68.5 30.7412 68.5C31.6602 68.5 32.4082 67.753 32.4082 66.834C32.4082 65.915 31.6602 65.167 30.7412 65.167Z" fill="black"/>
</svg>
