<?xml version="1.0" encoding="UTF-8"?>
<!--Generator: Apple Native CoreSVG 149-->
<!DOCTYPE svg
PUBLIC "-//W3C//DTD SVG 1.1//EN"
       "http://www.w3.org/Graphics/SVG/1.1/DTD/svg11.dtd">
<svg version="1.1" xmlns="http://www.w3.org/2000/svg" xmlns:xlink="http://www.w3.org/1999/xlink" width="3300" height="2200">
 <!--glyph: "uni1007D7.medium", point size: 100.000000, font version: "Version 16.0d18e1", template writer version: "8"-->
 <g id="Notes">
  <rect height="2200" id="artboard" style="fill:white;opacity:1" width="3300" x="0" y="0"/>
  <line id="" style="fill:none;stroke:black;opacity:1;stroke-width:0.5;" x1="263" x2="3036" y1="292" y2="292"/>
  <text style="stroke:none;fill:black;font-family:-apple-system,&quot;SF Pro Display&quot;,&quot;SF Pro Text&quot;,Helvetica,sans-serif;font-weight:bold;" transform="matrix(1 0 0 1 263 322)">Weight/Scale Variations</text>
  <text style="stroke:none;fill:black;font-family:-apple-system,&quot;SF Pro Display&quot;,&quot;SF Pro Text&quot;,Helvetica,sans-serif;text-anchor:middle;" transform="matrix(1 0 0 1 559.711 322)">Ultralight</text>
  <text style="stroke:none;fill:black;font-family:-apple-system,&quot;SF Pro Display&quot;,&quot;SF Pro Text&quot;,Helvetica,sans-serif;text-anchor:middle;" transform="matrix(1 0 0 1 856.422 322)">Thin</text>
  <text style="stroke:none;fill:black;font-family:-apple-system,&quot;SF Pro Display&quot;,&quot;SF Pro Text&quot;,Helvetica,sans-serif;text-anchor:middle;" transform="matrix(1 0 0 1 1153.13 322)">Light</text>
  <text style="stroke:none;fill:black;font-family:-apple-system,&quot;SF Pro Display&quot;,&quot;SF Pro Text&quot;,Helvetica,sans-serif;text-anchor:middle;" transform="matrix(1 0 0 1 1449.84 322)">Regular</text>
  <text style="stroke:none;fill:black;font-family:-apple-system,&quot;SF Pro Display&quot;,&quot;SF Pro Text&quot;,Helvetica,sans-serif;text-anchor:middle;" transform="matrix(1 0 0 1 1746.56 322)">Medium</text>
  <text style="stroke:none;fill:black;font-family:-apple-system,&quot;SF Pro Display&quot;,&quot;SF Pro Text&quot;,Helvetica,sans-serif;text-anchor:middle;" transform="matrix(1 0 0 1 2043.27 322)">Semibold</text>
  <text style="stroke:none;fill:black;font-family:-apple-system,&quot;SF Pro Display&quot;,&quot;SF Pro Text&quot;,Helvetica,sans-serif;text-anchor:middle;" transform="matrix(1 0 0 1 2339.98 322)">Bold</text>
  <text style="stroke:none;fill:black;font-family:-apple-system,&quot;SF Pro Display&quot;,&quot;SF Pro Text&quot;,Helvetica,sans-serif;text-anchor:middle;" transform="matrix(1 0 0 1 2636.69 322)">Heavy</text>
  <text style="stroke:none;fill:black;font-family:-apple-system,&quot;SF Pro Display&quot;,&quot;SF Pro Text&quot;,Helvetica,sans-serif;text-anchor:middle;" transform="matrix(1 0 0 1 2933.4 322)">Black</text>
  <line id="" style="fill:none;stroke:black;opacity:1;stroke-width:0.5;" x1="263" x2="3036" y1="1903" y2="1903"/>
  <g id="" transform="matrix(1 0 0 1 263 1933)">
   <path d="M9.24805 0.830078C13.5547 0.830078 17.1387-2.74414 17.1387-7.05078C17.1387-11.3574 13.5449-14.9316 9.23828-14.9316C4.94141-14.9316 1.36719-11.3574 1.36719-7.05078C1.36719-2.74414 4.95117 0.830078 9.24805 0.830078ZM9.24805-0.654297C5.70312-0.654297 2.87109-3.49609 2.87109-7.05078C2.87109-10.6055 5.69336-13.4473 9.23828-13.4473C12.793-13.4473 15.6348-10.6055 15.6445-7.05078C15.6543-3.49609 12.8027-0.654297 9.24805-0.654297ZM6.39648-6.31836L8.50586-6.31836L8.50586-4.19922C8.50586-3.75977 8.79883-3.45703 9.22852-3.45703C9.67773-3.45703 9.9707-3.75977 9.9707-4.19922L9.9707-6.31836L12.0996-6.31836C12.5391-6.31836 12.8418-6.61133 12.8418-7.04102C12.8418-7.48047 12.5391-7.7832 12.0996-7.7832L9.9707-7.7832L9.9707-9.89258C9.9707-10.3418 9.67773-10.6445 9.22852-10.6445C8.79883-10.6445 8.50586-10.3418 8.50586-9.89258L8.50586-7.7832L6.39648-7.7832C5.94727-7.7832 5.64453-7.48047 5.64453-7.04102C5.64453-6.61133 5.94727-6.31836 6.39648-6.31836Z"/>
  </g>
  <g id="" transform="matrix(1 0 0 1 281.506 1933)">
   <path d="M11.709 2.91016C17.1582 2.91016 21.6699-1.61133 21.6699-7.05078C21.6699-12.5 17.1484-17.0117 11.6992-17.0117C6.25977-17.0117 1.74805-12.5 1.74805-7.05078C1.74805-1.61133 6.26953 2.91016 11.709 2.91016ZM11.709 1.25C7.09961 1.25 3.41797-2.44141 3.41797-7.05078C3.41797-11.6602 7.08984-15.3516 11.6992-15.3516C16.3086-15.3516 20-11.6602 20.0098-7.05078C20.0195-2.44141 16.3184 1.25 11.709 1.25ZM7.98828-6.23047L10.8789-6.23047L10.8789-3.32031C10.8789-2.83203 11.2109-2.5 11.6895-2.5C12.1777-2.5 12.5195-2.83203 12.5195-3.32031L12.5195-6.23047L15.4297-6.23047C15.918-6.23047 16.25-6.5625 16.25-7.04102C16.25-7.5293 15.918-7.87109 15.4297-7.87109L12.5195-7.87109L12.5195-10.7617C12.5195-11.2695 12.1777-11.6016 11.6895-11.6016C11.2109-11.6016 10.8789-11.2598 10.8789-10.7617L10.8789-7.87109L7.98828-7.87109C7.48047-7.87109 7.14844-7.5293 7.14844-7.04102C7.14844-6.5625 7.49023-6.23047 7.98828-6.23047Z"/>
  </g>
  <g id="" transform="matrix(1 0 0 1 304.924 1933)">
   <path d="M14.9707 5.66406C21.9336 5.66406 27.6953-0.0976562 27.6953-7.05078C27.6953-14.0137 21.9238-19.7754 14.9609-19.7754C8.00781-19.7754 2.25586-14.0137 2.25586-7.05078C2.25586-0.0976562 8.01758 5.66406 14.9707 5.66406ZM14.9707 3.84766C8.93555 3.84766 4.08203-1.01562 4.08203-7.05078C4.08203-13.0957 8.92578-17.9492 14.9609-17.9492C21.0059-17.9492 25.8594-13.0957 25.8691-7.05078C25.8789-1.01562 21.0156 3.84766 14.9707 3.84766ZM10.0586-6.14258L14.0625-6.14258L14.0625-2.12891C14.0625-1.5918 14.4336-1.2207 14.9512-1.2207C15.4883-1.2207 15.8594-1.5918 15.8594-2.12891L15.8594-6.14258L19.8828-6.14258C20.4102-6.14258 20.791-6.51367 20.791-7.03125C20.791-7.56836 20.4199-7.94922 19.8828-7.94922L15.8594-7.94922L15.8594-11.9531C15.8594-12.5098 15.4883-12.8809 14.9512-12.8809C14.4336-12.8809 14.0625-12.5 14.0625-11.9531L14.0625-7.94922L10.0586-7.94922C9.50195-7.94922 9.13086-7.56836 9.13086-7.03125C9.13086-6.51367 9.51172-6.14258 10.0586-6.14258Z"/>
  </g>
  <text style="stroke:none;fill:black;font-family:-apple-system,&quot;SF Pro Display&quot;,&quot;SF Pro Text&quot;,Helvetica,sans-serif;font-weight:bold;" transform="matrix(1 0 0 1 263 1953)">Design Variations</text>
  <text style="stroke:none;fill:black;font-family:-apple-system,&quot;SF Pro Display&quot;,&quot;SF Pro Text&quot;,Helvetica,sans-serif;" transform="matrix(1 0 0 1 263 1971)">Symbols are supported in up to nine weights and three scales.</text>
  <text style="stroke:none;fill:black;font-family:-apple-system,&quot;SF Pro Display&quot;,&quot;SF Pro Text&quot;,Helvetica,sans-serif;" transform="matrix(1 0 0 1 263 1989)">For optimal layout with text and other symbols, vertically align</text>
  <text style="stroke:none;fill:black;font-family:-apple-system,&quot;SF Pro Display&quot;,&quot;SF Pro Text&quot;,Helvetica,sans-serif;" transform="matrix(1 0 0 1 263 2007)">symbols with the adjacent text.</text>
  <line id="" style="fill:none;stroke:#00AEEF;stroke-width:0.5;opacity:1.0;" x1="776" x2="776" y1="1919" y2="1933"/>
  <g id="" transform="matrix(1 0 0 1 776 1933)">
   <path d="M3.31055 0.126953C3.82812 0.126953 4.08203-0.0683594 4.26758-0.605469L5.52734-4.0625L11.2891-4.0625L12.5488-0.605469C12.7344-0.0683594 12.9883 0.126953 13.4961 0.126953C14.0137 0.126953 14.3457-0.185547 14.3457-0.673828C14.3457-0.839844 14.3164-0.986328 14.2383-1.20117L9.6582-13.3887C9.43359-13.9941 9.0332-14.2871 8.4082-14.2871C7.80273-14.2871 7.39258-13.9941 7.17773-13.3984L2.59766-1.19141C2.51953-0.976562 2.49023-0.830078 2.49023-0.664062C2.49023-0.175781 2.80273 0.126953 3.31055 0.126953ZM6.00586-5.53711L8.37891-12.1094L8.42773-12.1094L10.8008-5.53711Z"/>
  </g>
  <line id="" style="fill:none;stroke:#00AEEF;stroke-width:0.5;opacity:1.0;" x1="792.836" x2="792.836" y1="1919" y2="1933"/>
  <text style="stroke:none;fill:black;font-family:-apple-system,&quot;SF Pro Display&quot;,&quot;SF Pro Text&quot;,Helvetica,sans-serif;font-weight:bold;" transform="matrix(1 0 0 1 776 1953)">Margins</text>
  <text style="stroke:none;fill:black;font-family:-apple-system,&quot;SF Pro Display&quot;,&quot;SF Pro Text&quot;,Helvetica,sans-serif;" transform="matrix(1 0 0 1 776 1971)">Leading and trailing margins on the left and right side of each symbol</text>
  <text style="stroke:none;fill:black;font-family:-apple-system,&quot;SF Pro Display&quot;,&quot;SF Pro Text&quot;,Helvetica,sans-serif;" transform="matrix(1 0 0 1 776 1989)">can be adjusted by modifying the x-location of the margin guidelines.</text>
  <text style="stroke:none;fill:black;font-family:-apple-system,&quot;SF Pro Display&quot;,&quot;SF Pro Text&quot;,Helvetica,sans-serif;" transform="matrix(1 0 0 1 776 2007)">Modifications are automatically applied proportionally to all</text>
  <text style="stroke:none;fill:black;font-family:-apple-system,&quot;SF Pro Display&quot;,&quot;SF Pro Text&quot;,Helvetica,sans-serif;" transform="matrix(1 0 0 1 776 2025)">scales and weights.</text>
  <g id="" transform="matrix(1 0 0 1 1289 1933)">
   <path d="M2.8418 1.86523L4.54102 3.57422C5.40039 4.44336 6.38672 4.38477 7.31445 3.35938L17.4902-7.85156C17.7539-7.76367 18.0273-7.7832 18.3398-7.8418L19.4043-8.03711L20.0684-7.36328L20.0293-6.80664C19.9902-6.30859 20.1172-5.92773 20.6055-5.44922L21.3672-4.70703C21.8457-4.22852 22.4609-4.19922 22.9297-4.66797L25.8398-7.58789C26.3086-8.05664 26.2891-8.65234 25.8105-9.13086L25.0391-9.89258C24.5605-10.3711 24.1895-10.5273 23.7109-10.4883L23.1348-10.4395L22.4902-11.0742L22.7344-12.1973C22.8613-12.7637 22.7051-13.2031 22.1191-13.7891L19.9219-15.9766C16.582-19.2969 12.1484-19.2188 9.25781-16.3281C8.83789-15.918 8.80859-15.3418 9.04297-14.9512C9.27734-14.5898 9.73633-14.3555 10.3809-14.5215C11.8457-14.8633 13.3691-14.9219 14.7949-13.9844L14.209-12.5293C14.0137-12.0508 13.9844-11.6504 14.1113-11.2891L3.04688-0.898438C2.06055 0.0195312 1.98242 0.996094 2.8418 1.86523ZM10.752-15.957C13.1836-17.7344 16.4746-17.4316 18.7012-15.2051L21.1328-12.793C21.3672-12.5586 21.4062-12.373 21.3379-12.0312L21.0156-10.5469L22.5195-9.0625L23.5059-9.12109C23.7598-9.13086 23.8379-9.11133 24.0332-8.91602L24.6094-8.33984L22.168-5.89844L21.5918-6.47461C21.3965-6.66992 21.3672-6.74805 21.377-7.01172L21.4453-7.98828L19.9512-9.47266L18.4277-9.21875C18.1055-9.15039 17.959-9.17969 17.7148-9.41406L15.7129-11.416C15.459-11.6504 15.4297-11.8164 15.5859-12.1875L16.4648-14.2773C14.9023-15.7324 12.8711-16.3574 10.8398-15.7617C10.6836-15.7227 10.625-15.8496 10.752-15.957ZM5.27344 2.30469L4.10156 1.14258C3.63281 0.683594 3.74023 0.341797 4.14062-0.0195312L14.9512-10.1953L16.416-8.71094L6.42578 2.27539C6.07422 2.67578 5.74219 2.77344 5.27344 2.30469Z"/>
  </g>
  <text style="stroke:none;fill:black;font-family:-apple-system,&quot;SF Pro Display&quot;,&quot;SF Pro Text&quot;,Helvetica,sans-serif;font-weight:bold;" transform="matrix(1 0 0 1 1289 1953)">Exporting</text>
  <text style="stroke:none;fill:black;font-family:-apple-system,&quot;SF Pro Display&quot;,&quot;SF Pro Text&quot;,Helvetica,sans-serif;" transform="matrix(1 0 0 1 1289 1971)">Symbols should be outlined when exporting to ensure the</text>
  <text style="stroke:none;fill:black;font-family:-apple-system,&quot;SF Pro Display&quot;,&quot;SF Pro Text&quot;,Helvetica,sans-serif;" transform="matrix(1 0 0 1 1289 1989)">design is preserved when submitting to Xcode.</text>
  <text id="template-version" style="stroke:none;fill:black;font-family:-apple-system,&quot;SF Pro Display&quot;,&quot;SF Pro Text&quot;,Helvetica,sans-serif;text-anchor:end;" transform="matrix(1 0 0 1 3036 1933)">Template v.2.0</text>
  <text style="stroke:none;fill:black;font-family:-apple-system,&quot;SF Pro Display&quot;,&quot;SF Pro Text&quot;,Helvetica,sans-serif;text-anchor:end;" transform="matrix(1 0 0 1 3036 1951)">Requires Xcode 12 or greater</text>
  <text style="stroke:none;fill:black;font-family:-apple-system,&quot;SF Pro Display&quot;,&quot;SF Pro Text&quot;,Helvetica,sans-serif;text-anchor:end;" transform="matrix(1 0 0 1 3036 1969)">Generated from camera.filters</text>
  <text style="stroke:none;fill:black;font-family:-apple-system,&quot;SF Pro Display&quot;,&quot;SF Pro Text&quot;,Helvetica,sans-serif;text-anchor:end;" transform="matrix(1 0 0 1 3036 1987)">Typeset at 100 points</text>
  <text style="stroke:none;fill:black;font-family:-apple-system,&quot;SF Pro Display&quot;,&quot;SF Pro Text&quot;,Helvetica,sans-serif;" transform="matrix(1 0 0 1 263 726)">Small</text>
  <text style="stroke:none;fill:black;font-family:-apple-system,&quot;SF Pro Display&quot;,&quot;SF Pro Text&quot;,Helvetica,sans-serif;" transform="matrix(1 0 0 1 263 1156)">Medium</text>
  <text style="stroke:none;fill:black;font-family:-apple-system,&quot;SF Pro Display&quot;,&quot;SF Pro Text&quot;,Helvetica,sans-serif;" transform="matrix(1 0 0 1 263 1586)">Large</text>
 </g>
 <g id="Guides">
  <g id="H-reference" style="fill:#27AAE1;stroke:none;" transform="matrix(1 0 0 1 339 696)">
   <path d="M0.976562 0L3.66211 0L12.9883-24.4629L45.752-24.4629L55.127 0L57.7637 0L30.6152-70.459L28.125-70.459ZM29.3457-67.1387L29.4434-67.1387L44.873-26.709L13.8672-26.709Z"/>
  </g>
  <line id="Baseline-S" style="fill:none;stroke:#27AAE1;opacity:1;stroke-width:0.5;" x1="263" x2="3036" y1="696" y2="696"/>
  <line id="Capline-S" style="fill:none;stroke:#27AAE1;opacity:1;stroke-width:0.5;" x1="263" x2="3036" y1="625.541" y2="625.541"/>
  <g id="H-reference" style="fill:#27AAE1;stroke:none;" transform="matrix(1 0 0 1 339 1126)">
   <path d="M0.976562 0L3.66211 0L12.9883-24.4629L45.752-24.4629L55.127 0L57.7637 0L30.6152-70.459L28.125-70.459ZM29.3457-67.1387L29.4434-67.1387L44.873-26.709L13.8672-26.709Z"/>
  </g>
  <line id="Baseline-M" style="fill:none;stroke:#27AAE1;opacity:1;stroke-width:0.5;" x1="263" x2="3036" y1="1126" y2="1126"/>
  <line id="Capline-M" style="fill:none;stroke:#27AAE1;opacity:1;stroke-width:0.5;" x1="263" x2="3036" y1="1055.54" y2="1055.54"/>
  <g id="H-reference" style="fill:#27AAE1;stroke:none;" transform="matrix(1 0 0 1 339 1556)">
   <path d="M0.976562 0L3.66211 0L12.9883-24.4629L45.752-24.4629L55.127 0L57.7637 0L30.6152-70.459L28.125-70.459ZM29.3457-67.1387L29.4434-67.1387L44.873-26.709L13.8672-26.709Z"/>
  </g>
  <line id="Baseline-L" style="fill:none;stroke:#27AAE1;opacity:1;stroke-width:0.5;" x1="263" x2="3036" y1="1556" y2="1556"/>
  <line id="Capline-L" style="fill:none;stroke:#27AAE1;opacity:1;stroke-width:0.5;" x1="263" x2="3036" y1="1485.54" y2="1485.54"/>
  <line id="left-margin" style="fill:none;stroke:#00AEEF;stroke-width:0.5;opacity:1.0;" x1="1387.27" x2="1387.27" y1="1030.79" y2="1150.12"/>
  <line id="right-margin" style="fill:none;stroke:#00AEEF;stroke-width:0.5;opacity:1.0;" x1="1512.42" x2="1512.42" y1="1030.79" y2="1150.12"/>
 </g>
 <g id="Symbols">
  <g id="Black-L" transform="matrix(1 0 0 1 2848.07 1556)">
   <path d="M59.7656 35.498C69.1406 35.498 77.9297 32.8125 85.3516 28.1738C92.7734 32.8125 101.562 35.498 110.986 35.498C137.646 35.498 159.375 13.7695 159.375-12.9883C159.375-31.4941 148.975-47.5586 133.691-55.7129C133.74-56.2012 133.74-56.6895 133.74-57.1289C133.74-83.8379 112.012-105.566 85.3027-105.566C58.5449-105.566 36.8164-83.8379 36.8164-57.1289C36.8164-56.6406 36.8164-56.1523 36.8164-55.6641C21.6309-47.4609 11.2793-31.3965 11.2793-12.9883C11.2793 13.7695 33.0078 35.498 59.7656 35.498ZM59.7656-61.4258C57.373-61.4258 54.9805-61.2305 52.6367-60.8887C54.4922-77.2461 68.4082-89.9414 85.3027-89.9414C102.148-89.9414 116.064-77.2461 117.92-60.9375C115.625-61.2305 113.33-61.4258 110.986-61.4258C101.562-61.4258 92.7734-58.7402 85.3516-54.1016C77.9297-58.7402 69.1406-61.4258 59.7656-61.4258ZM59.7656-45.8008C64.4531-45.8008 68.9453-44.8242 72.9492-43.0664C70.0195-39.3066 67.5781-35.1562 65.8203-30.6641C60.791-34.3262 56.8359-39.4531 54.5898-45.4102C56.25-45.6543 58.0078-45.8008 59.7656-45.8008ZM110.986-45.8008C112.695-45.8008 114.355-45.6543 115.967-45.4102C113.721-39.502 109.814-34.4238 104.834-30.7129C103.076-35.1562 100.684-39.3066 97.7051-43.0176C101.758-44.8242 106.25-45.8008 110.986-45.8008ZM110.986 19.9219C106.25 19.9219 101.758 18.8965 97.7051 17.1387C104.297 8.83789 108.203-1.61133 108.203-12.9883C108.203-13.4766 108.203-13.916 108.154-14.4043C118.262-19.8242 126.172-28.7109 130.371-39.4531C138.525-33.4473 143.799-23.8281 143.799-12.9883C143.799 5.22461 129.102 19.9219 110.986 19.9219ZM59.7656 19.9219C41.6016 19.9219 26.9043 5.22461 26.9043-12.9883C26.9043-23.7793 32.1289-33.3984 40.1855-39.3555C44.4336-28.6133 52.3926-19.7266 62.5-14.3555C62.5-13.916 62.4512-13.4277 62.4512-12.9883C62.4512-1.61133 66.4062 8.83789 72.9492 17.1387C68.9453 18.8965 64.4531 19.9219 59.7656 19.9219ZM85.3027-24.2676C83.5938-24.2676 81.8848-24.3652 80.2246-24.6582C81.4453-27.8809 83.2031-30.9082 85.3516-33.5449C87.5-30.9082 89.209-27.8809 90.4785-24.6582C88.7695-24.3652 87.0605-24.2676 85.3027-24.2676ZM85.3027-8.64258C87.6953-8.64258 90.0879-8.83789 92.3828-9.17969C91.6504-2.83203 89.1113 2.92969 85.3516 7.66602C81.543 2.92969 79.0039-2.83203 78.2715-9.13086C80.5664-8.83789 82.9102-8.64258 85.3027-8.64258Z"/>
  </g>
  <g id="Heavy-L" transform="matrix(1 0 0 1 2552.88 1556)">
   <path d="M58.4961 34.0332C67.8223 34.0332 76.5137 31.2988 83.8379 26.6113C91.1621 31.2988 99.9023 34.0332 109.229 34.0332C135.205 34.0332 156.348 12.8906 156.348-13.1836C156.348-31.3477 145.996-47.168 130.908-55.0293C130.908-55.6641 130.957-56.2988 130.957-56.9336C130.957-82.959 109.814-104.102 83.7891-104.102C57.7637-104.102 36.6211-82.959 36.6211-56.9336C36.6211-56.2988 36.6211-55.6152 36.6699-54.9805C21.582-47.0703 11.2793-31.2988 11.2793-13.1836C11.2793 12.8906 32.4219 34.0332 58.4961 34.0332ZM58.4961-60.3027C55.8105-60.3027 53.2227-60.0586 50.6836-59.668C52.0508-76.709 66.3086-90.1367 83.7891-90.1367C101.221-90.1367 115.479-76.709 116.895-59.668C114.404-60.1074 111.816-60.3027 109.229-60.3027C99.9023-60.3027 91.1621-57.5684 83.8379-52.8809C76.5137-57.5684 67.8223-60.3027 58.4961-60.3027ZM58.4961-46.3379C63.623-46.3379 68.457-45.166 72.8027-43.1152C69.4824-39.0625 66.7969-34.5215 64.9902-29.541C59.2285-33.4473 54.834-39.1602 52.4902-45.8008C54.3945-46.1426 56.4453-46.3379 58.4961-46.3379ZM109.229-46.3379C111.23-46.3379 113.184-46.1914 115.088-45.8496C112.744-39.209 108.35-33.5449 102.637-29.5898C100.83-34.5215 98.1445-39.1113 94.873-43.1152C99.2188-45.166 104.102-46.3379 109.229-46.3379ZM109.229 20.0684C104.102 20.0684 99.2188 18.8965 94.873 16.7969C101.562 8.64258 105.615-1.80664 105.615-13.1836C105.615-13.8184 105.615-14.4531 105.566-15.0879C115.869-20.459 123.926-29.541 127.979-40.5273C136.719-34.5703 142.432-24.5117 142.432-13.1836C142.432 5.22461 127.588 20.0684 109.229 20.0684ZM58.4961 20.0684C40.0879 20.0684 25.2441 5.22461 25.2441-13.1836C25.2441-24.5117 30.9082-34.4727 39.5508-40.4785C43.6523-29.4922 51.7578-20.4102 62.0605-15.0391C62.0605-14.4043 62.0605-13.8184 62.0605-13.1836C62.0605-1.80664 66.0645 8.64258 72.8027 16.8457C68.457 18.8965 63.623 20.0684 58.4961 20.0684ZM83.7891-23.6816C81.7871-23.6816 79.7852-23.877 77.8809-24.2188C79.248-28.0273 81.25-31.543 83.8379-34.5703C86.377-31.543 88.4277-28.0762 89.7461-24.2188C87.8418-23.877 85.8398-23.6816 83.7891-23.6816ZM83.7891-9.76562C86.4258-9.76562 89.0137-9.96094 91.5527-10.4004C90.9668-3.27148 88.1348 3.17383 83.8379 8.30078C79.4922 3.17383 76.709-3.27148 76.123-10.4004C78.6133-9.96094 81.2012-9.76562 83.7891-9.76562Z"/>
  </g>
  <g id="Bold-L" transform="matrix(1 0 0 1 2257.85 1556)">
   <path d="M57.0312 32.373C66.3086 32.373 74.9512 29.5898 82.1777 24.8047C89.3555 29.5898 97.998 32.373 107.324 32.373C132.52 32.373 152.979 11.8652 152.979-13.3789C152.979-31.25 142.725-46.7285 127.734-54.248C127.783-55.0781 127.832-55.9082 127.832-56.7383C127.832-81.9336 107.324-102.441 82.1289-102.441C56.8848-102.441 36.377-81.9336 36.377-56.7383C36.377-55.8594 36.4258-55.0293 36.4258-54.1992C21.5332-46.6309 11.2793-31.2012 11.2793-13.3789C11.2793 11.8652 31.7871 32.373 57.0312 32.373ZM57.0312-59.082C54.1016-59.082 51.2695-58.7891 48.5352-58.252C49.3164-76.0742 64.0137-90.332 82.1289-90.332C100.146-90.332 114.844-76.123 115.674-58.3008C112.939-58.7891 110.156-59.082 107.324-59.082C97.998-59.082 89.3555-56.2988 82.1289-51.5137C74.9512-56.2988 66.3086-59.082 57.0312-59.082ZM57.0312-46.9727C62.6465-46.9727 67.9688-45.5566 72.6074-43.1152C68.8965-38.8184 65.9668-33.7891 64.0625-28.3203C57.5684-32.4707 52.5879-38.7695 50.1465-46.2402C52.3438-46.7285 54.6875-46.9727 57.0312-46.9727ZM107.324-46.9727C109.619-46.9727 111.865-46.7285 114.062-46.2891C111.621-38.8184 106.641-32.5195 100.195-28.3691C98.291-33.8379 95.3613-38.8184 91.6504-43.1152C96.3379-45.5566 101.66-46.9727 107.324-46.9727ZM107.324 20.2637C101.66 20.2637 96.3379 18.8965 91.6504 16.4062C98.5352 8.39844 102.686-2.00195 102.686-13.3789C102.686-14.209 102.686-15.0391 102.637-15.8691C113.184-21.1914 121.387-30.4688 125.293-41.748C134.668-35.791 140.918-25.293 140.918-13.3789C140.918 5.22461 125.879 20.2637 107.324 20.2637ZM57.0312 20.2637C38.4277 20.2637 23.3887 5.22461 23.3887-13.3789C23.3887-25.2441 29.5898-35.7422 38.916-41.6992C42.8711-30.4199 51.0742-21.1426 61.6211-15.8203C61.5723-15.0391 61.5723-14.209 61.5723-13.3789C61.5723-2.00195 65.7227 8.39844 72.6074 16.4062C67.9688 18.8965 62.6465 20.2637 57.0312 20.2637ZM82.1289-23.0957C79.7852-23.0957 77.4902-23.3398 75.293-23.7793C76.7578-28.2227 79.1016-32.2754 82.1289-35.6445C85.1562-32.2754 87.5-28.2227 88.9648-23.7793C86.7676-23.3398 84.4727-23.0957 82.1289-23.0957ZM82.1289-10.9863C85.0098-10.9863 87.8418-11.2793 90.5762-11.7676C90.1855-3.80859 87.0605 3.41797 82.1289 8.98438C77.1973 3.41797 74.0723-3.80859 73.7305-11.7676C76.416-11.2793 79.248-10.9863 82.1289-10.9863Z"/>
  </g>
  <g id="Semibold-L" transform="matrix(1 0 0 1 1962.29 1556)">
   <path d="M56.0059 31.2012C65.2832 31.2012 73.877 28.418 81.0059 23.584C88.1348 28.418 96.7285 31.2012 106.006 31.2012C130.615 31.2012 150.684 11.1816 150.684-13.5254C150.684-31.1523 140.43-46.4355 125.537-53.7109C125.635-54.6387 125.635-55.6152 125.635-56.5918C125.635-81.25 105.615-101.27 80.957-101.27C56.25-101.27 36.2305-81.25 36.2305-56.5918C36.2305-55.6152 36.2305-54.6387 36.3281-53.6621C21.4844-46.3379 11.2793-31.1035 11.2793-13.5254C11.2793 11.1816 31.3477 31.2012 56.0059 31.2012ZM56.0059-58.2031C52.9297-58.2031 49.9512-57.9102 47.0703-57.3242C47.4609-75.6836 62.4512-90.4297 80.957-90.4297C99.4141-90.4297 114.404-75.6836 114.795-57.3242C111.963-57.9102 108.984-58.2031 106.006-58.2031C96.7285-58.2031 88.1348-55.3711 81.0059-50.5859C73.8281-55.3711 65.2832-58.2031 56.0059-58.2031ZM56.0059-47.3633C62.0117-47.3633 67.627-45.8496 72.4609-43.1152C68.5059-38.623 65.4297-33.3496 63.4766-27.4902C56.3965-31.7383 51.0254-38.5254 48.5352-46.5332C50.9766-47.1191 53.4668-47.3633 56.0059-47.3633ZM106.006-47.3633C108.496-47.3633 110.938-47.1191 113.33-46.582C110.84-38.5742 105.518-31.7871 98.4375-27.5391C96.5332-33.3496 93.457-38.623 89.502-43.1152C94.3848-45.8496 100-47.3633 106.006-47.3633ZM106.006 20.4102C100 20.4102 94.3848 18.8477 89.502 16.1133C96.4844 8.25195 100.732-2.14844 100.732-13.5254C100.732-14.502 100.684-15.4785 100.635-16.4062C111.328-21.6797 119.629-31.1035 123.389-42.5781C133.252-36.6211 139.844-25.8301 139.844-13.5254C139.844 5.22461 124.707 20.4102 106.006 20.4102ZM56.0059 20.4102C37.2559 20.4102 22.1191 5.22461 22.1191-13.5254C22.1191-25.7812 28.6621-36.5723 38.4766-42.5293C42.2852-31.0547 50.5859-21.6309 61.3281-16.3574C61.2793-15.4297 61.2305-14.502 61.2305-13.5254C61.2305-2.14844 65.4785 8.25195 72.4609 16.1133C67.627 18.8477 62.0117 20.4102 56.0059 20.4102ZM80.957-22.6562C78.418-22.6562 75.9277-22.9492 73.5352-23.4863C75.0488-28.3691 77.6367-32.7637 80.957-36.377C84.3262-32.7637 86.9141-28.3691 88.3789-23.4863C85.9863-22.9492 83.4961-22.6562 80.957-22.6562ZM80.957-11.8652C84.0332-11.8652 87.0117-12.1582 89.8926-12.7441C89.6973-4.19922 86.3281 3.56445 80.957 9.42383C75.5859 3.56445 72.2656-4.19922 72.0703-12.7441C74.9512-12.1582 77.9297-11.8652 80.957-11.8652Z"/>
  </g>
  <g id="Medium-L" transform="matrix(1 0 0 1 1666.45 1556)">
   <path d="M55.2734 30.3711C64.502 30.3711 73.0469 27.4902 80.127 22.6562C87.207 27.4902 95.752 30.3711 104.98 30.3711C129.199 30.3711 148.926 10.6445 148.926-13.623C148.926-31.0547 138.672-46.1914 123.926-53.2715C123.975-54.3457 124.023-55.4199 124.023-56.4941C124.023-80.7129 104.297-100.439 80.0781-100.439C55.8105-100.439 36.084-80.7129 36.084-56.4941C36.084-55.3711 36.1328-54.2969 36.2305-53.2227C21.4844-46.1426 11.2793-31.0547 11.2793-13.623C11.2793 10.6445 31.0059 30.3711 55.2734 30.3711ZM55.2734-57.5684C52.0508-57.5684 48.9746-57.2266 45.9473-56.5918C45.9473-75.293 61.2305-90.5762 80.0781-90.5762C98.8281-90.5762 114.062-75.3906 114.16-56.5918C111.182-57.2266 108.105-57.5684 104.98-57.5684C95.752-57.5684 87.1582-54.7363 80.0781-49.8535C73.0469-54.7363 64.4531-57.5684 55.2734-57.5684ZM55.2734-47.7051C61.4746-47.7051 67.334-46.0449 72.3633-43.1152C68.1641-38.4766 64.9902-32.959 63.0371-26.9043C55.5664-31.2012 49.8535-38.3301 47.3633-46.7773C49.9023-47.3633 52.5391-47.7051 55.2734-47.7051ZM104.98-47.7051C107.666-47.7051 110.254-47.4121 112.744-46.8262C110.254-38.3301 104.59-31.25 97.1191-26.9531C95.2148-33.0078 91.9922-38.4766 87.8418-43.1152C92.8711-46.0449 98.7305-47.7051 104.98-47.7051ZM104.98 20.5078C98.7305 20.5078 92.8711 18.7988 87.8418 15.918C94.873 8.10547 99.2188-2.29492 99.2188-13.623C99.2188-14.6973 99.1699-15.7715 99.0723-16.8457C109.912-22.0215 118.262-31.543 121.973-43.1641C132.178-37.2559 139.062-26.2695 139.062-13.623C139.062 5.22461 123.828 20.5078 104.98 20.5078ZM55.2734 20.5078C36.377 20.5078 21.1426 5.22461 21.1426-13.623C21.1426-26.2207 27.9785-37.207 38.1836-43.1152C41.8457-31.543 50.2441-22.0215 61.084-16.7969C61.0352-15.7715 60.9863-14.6973 60.9863-13.623C60.9863-2.29492 65.2832 8.05664 72.3633 15.8691C67.334 18.7988 61.5234 20.5078 55.2734 20.5078ZM80.0781-22.3633C77.3926-22.3633 74.7559-22.6562 72.2168-23.2422C73.7793-28.4668 76.4648-33.1055 80.0781-36.9629C83.6914-33.1055 86.4258-28.4668 87.9395-23.291C85.4492-22.6562 82.8125-22.3633 80.0781-22.3633ZM80.0781-12.5C83.252-12.5 86.377-12.8418 89.3555-13.4766C89.3555-4.58984 85.8398 3.61328 80.0781 9.76562C74.4141 3.71094 70.8984-4.44336 70.8496-13.4766C73.8281-12.8418 76.9043-12.5 80.0781-12.5Z"/>
  </g>
  <g id="Regular-L" transform="matrix(1 0 0 1 1370.89 1556)">
   <path d="M54.2969 29.248C63.4766 29.248 71.9727 26.3184 78.9551 21.4355C85.9375 26.3184 94.4824 29.248 103.662 29.248C127.344 29.248 146.631 9.96094 146.631-13.7695C146.631-31.0059 136.426-45.8984 121.729-52.7344C121.826-53.9062 121.875-55.127 121.875-56.3477C121.875-80.0293 102.637-99.2676 78.9551-99.2676C55.2246-99.2676 35.9375-80.0293 35.9375-56.3477C35.9375-55.127 35.9863-53.9062 36.084-52.6855C21.4355-45.8496 11.2793-30.957 11.2793-13.7695C11.2793 9.96094 30.5664 29.248 54.2969 29.248ZM54.2969-56.7383C50.9277-56.7383 47.6562-56.3477 44.5312-55.6152C44.5312-55.8594 44.5312-56.1035 44.5312-56.3477C44.5312-75.293 59.9121-90.6738 78.9551-90.6738C97.9004-90.6738 113.281-75.293 113.281-56.3477C113.281-56.1035 113.281-55.8594 113.281-55.6152C110.205-56.3477 106.982-56.7383 103.662-56.7383C94.4824-56.7383 85.9375-53.8086 78.9551-48.877C71.9727-53.8086 63.4277-56.7383 54.2969-56.7383ZM54.2969-48.0957C60.8398-48.0957 66.9922-46.2402 72.2168-43.0664C67.7734-38.2812 64.4043-32.5195 62.4512-26.123C54.3945-30.5176 48.3398-38.0371 45.8008-47.0703C48.5352-47.7539 51.3672-48.0957 54.2969-48.0957ZM103.662-48.0957C106.543-48.0957 109.326-47.7539 112.012-47.0703C109.521-38.0859 103.418-30.5664 95.4102-26.123C93.457-32.5195 90.0879-38.2812 85.6445-43.0664C90.918-46.2402 97.0703-48.0957 103.662-48.0957ZM103.662 20.6055C97.0703 20.6055 90.918 18.7988 85.6934 15.5762C92.8223 7.86133 97.2168-2.44141 97.2168-13.7695C97.2168-14.9902 97.168-16.1621 97.0703-17.3828C108.057-22.5098 116.504-32.1777 120.068-43.9453C130.762-38.1348 137.988-26.8066 137.988-13.7695C137.988 5.22461 122.705 20.6055 103.662 20.6055ZM54.2969 20.6055C35.2539 20.6055 19.873 5.27344 19.873-13.7695C19.873-26.7578 27.0996-38.0859 37.793-43.8965C41.3086-32.1289 49.8047-22.4609 60.791-17.334C60.6934-16.1621 60.6445-14.9902 60.6445-13.7695C60.6445-2.44141 65.0391 7.86133 72.2168 15.5762C66.9922 18.75 60.8398 20.6055 54.2969 20.6055ZM78.9551-21.9238C76.0254-21.9238 73.1934-22.3145 70.5078-22.998C72.0703-28.5645 75-33.5938 78.9551-37.6465C82.8613-33.5938 85.791-28.5645 87.3535-22.998C84.668-22.3145 81.8359-21.9238 78.9551-21.9238ZM78.9551-13.3301C82.2754-13.3301 85.498-13.7207 88.623-14.4531C88.623-14.209 88.623-14.0137 88.623-13.7695C88.623-4.44336 84.9121 3.95508 78.9551 10.1562C72.9492 4.00391 69.2871-4.44336 69.2871-13.7695C69.2871-14.0137 69.2871-14.209 69.2871-14.4531C72.3633-13.7207 75.6348-13.3301 78.9551-13.3301Z"/>
  </g>
  <g id="Light-L" transform="matrix(1 0 0 1 1076.64 1556)">
   <path d="M52.3926 26.9043C61.377 26.9043 69.7266 23.9746 76.5137 19.043C83.3008 23.9746 91.6016 26.9043 100.635 26.9043C123.291 26.9043 141.699 8.44727 141.699-14.209C141.699-30.9082 131.689-45.3613 117.334-51.7578C117.48-53.125 117.529-54.4922 117.529-55.8594C117.529-78.5156 99.1211-96.9238 76.4648-96.9238C53.8086-96.9238 35.3516-78.5156 35.3516-55.8594C35.3516-54.4434 35.4004-53.0762 35.5469-51.709C21.2402-45.2637 11.2793-30.9082 11.2793-14.209C11.2793 8.44727 29.7363 26.9043 52.3926 26.9043ZM52.3926-55.3223C48.7793-55.3223 45.3125-54.834 41.9922-53.9551C41.9434-54.5898 41.9434-55.2246 41.9434-55.8594C41.9434-74.8535 57.373-90.332 76.4648-90.332C95.459-90.332 110.938-74.9023 110.938-55.8594C110.938-55.2246 110.938-54.6387 110.889-54.0039C107.617-54.8828 104.199-55.3223 100.635-55.3223C91.6016-55.3223 83.3008-52.3926 76.5137-47.4609C69.7266-52.3926 61.377-55.3223 52.3926-55.3223ZM52.3926-48.7305C59.375-48.7305 65.918-46.6309 71.3379-43.0664C66.4551-38.0859 62.8418-31.8848 60.9375-25C52.0996-29.4434 45.4102-37.5977 42.9688-47.4121C45.9473-48.291 49.1211-48.7305 52.3926-48.7305ZM100.635-48.7305C103.857-48.7305 106.982-48.291 109.912-47.4609C107.471-37.6465 100.83-29.4922 92.041-25.0488C90.1367-31.9336 86.5234-38.0859 81.6406-43.0664C87.0605-46.6309 93.6035-48.7305 100.635-48.7305ZM100.635 20.3125C93.6035 20.3125 87.0605 18.2129 81.6406 14.5996C88.9648 7.17773 93.457-2.97852 93.457-14.209C93.457-15.625 93.4082-16.9922 93.2617-18.3594C104.346-23.3398 112.842-33.1543 116.113-45.0684C127.393-39.4043 135.107-27.7344 135.107-14.209C135.107 4.83398 119.727 20.3125 100.635 20.3125ZM52.3926 20.3125C33.3008 20.3125 17.8711 4.88281 17.8711-14.209C17.8711-27.6367 25.5371-39.3066 36.8164-45.0195C40.0879-33.0566 48.584-23.291 59.7168-18.3105C59.5703-16.9434 59.5215-15.625 59.5215-14.209C59.5215-3.02734 64.0625 7.17773 71.3379 14.5996C65.918 18.2129 59.4238 20.3125 52.3926 20.3125ZM76.4648-21.3379C73.2422-21.3379 70.1172-21.7773 67.1387-22.6074C68.7012-28.9062 72.0215-34.5215 76.5137-38.916C81.0059-34.5215 84.2773-28.9062 85.8398-22.6074C82.8613-21.7773 79.7363-21.3379 76.4648-21.3379ZM76.4648-14.7461C80.0293-14.7461 83.5449-15.1855 86.8164-16.0645C86.8652-15.4785 86.8652-14.8438 86.8652-14.209C86.8652-4.54102 82.9102 4.19922 76.4648 10.4492C70.0684 4.19922 66.1133-4.54102 66.1133-14.209C66.1133-14.8438 66.1133-15.4297 66.1621-16.0645C69.4336-15.1855 72.9004-14.7461 76.4648-14.7461Z"/>
  </g>
  <g id="Thin-L" transform="matrix(1 0 0 1 783.156 1556)">
   <path d="M49.9023 23.7793C58.6914 23.7793 66.748 20.8496 73.2422 15.8691C79.7363 20.8496 87.8418 23.7793 96.6309 23.7793C117.871 23.7793 135.254 6.44531 135.254-14.8438C135.254-30.8594 125.439-44.6289 111.523-50.4883C111.719-52.002 111.816-53.6133 111.816-55.2246C111.816-76.5137 94.4336-93.8477 73.1934-93.8477C51.9043-93.8477 34.5703-76.5137 34.5703-55.2246C34.5703-53.6133 34.668-52.002 34.8633-50.3906C21.0449-44.5312 11.2793-30.8105 11.2793-14.8438C11.2793 6.44531 28.6133 23.7793 49.9023 23.7793ZM49.9023-53.4668C45.9961-53.4668 42.2363-52.8809 38.6719-51.8066C38.5254-52.9297 38.4766-54.0527 38.4766-55.2246C38.4766-74.3164 54.0039-89.8926 73.1934-89.8926C92.2852-89.8926 107.861-74.4141 107.861-55.2246C107.861-54.0527 107.812-52.9297 107.715-51.8066C104.199-52.8809 100.488-53.4668 96.6309-53.4668C87.8418-53.4668 79.7363-50.4883 73.2422-45.5566C66.748-50.4883 58.6426-53.4668 49.9023-53.4668ZM49.9023-49.5117C57.4707-49.5117 64.502-47.1191 70.2148-42.9688C64.7461-37.8418 60.7422-31.1035 58.9844-23.5352C49.0723-27.9785 41.6016-36.9629 39.2578-47.8516C42.627-48.9258 46.1914-49.5117 49.9023-49.5117ZM96.6309-49.5117C100.293-49.5117 103.809-48.9746 107.08-47.9004C104.785-37.0605 97.3633-28.0762 87.5-23.6328C85.7422-31.1523 81.7871-37.8418 76.3184-42.9688C82.0312-47.1191 89.0137-49.5117 96.6309-49.5117ZM96.6309 19.873C89.0137 19.873 82.0312 17.4316 76.3184 13.2812C83.7891 6.25 88.5254-3.75977 88.5254-14.8438C88.5254-16.4551 88.4277-18.0664 88.2324-19.6289C99.4629-24.4141 108.008-34.375 110.791-46.4844C122.9-41.0645 131.299-28.9551 131.299-14.8438C131.299 4.29688 115.82 19.873 96.6309 19.873ZM49.9023 19.873C30.7129 19.873 15.1855 4.3457 15.1855-14.8438C15.1855-28.8574 23.5352-40.9668 35.5957-46.4355C38.4277-34.3262 47.0215-24.3164 58.3008-19.5801C58.1055-18.0176 58.0078-16.4551 58.0078-14.8438C58.0078-3.75977 62.6953 6.25 70.2148 13.2812C64.502 17.4316 57.4707 19.873 49.9023 19.873ZM73.1934-20.5078C69.5312-20.5078 66.0156-21.0938 62.6953-22.1191C64.2578-29.3457 68.0176-35.6934 73.2422-40.4785C78.4668-35.6934 82.2754-29.3457 83.7891-22.168C80.4688-21.0938 76.9043-20.5078 73.1934-20.5078ZM73.1934-16.6016C77.0996-16.6016 80.8594-17.1875 84.4238-18.2617C84.5215-17.1387 84.5703-16.0156 84.5703-14.8438C84.5703-4.6875 80.2246 4.44336 73.2422 10.8398C66.3086 4.49219 61.9141-4.63867 61.9141-14.8438C61.9141-15.9668 61.9629-17.1387 62.1094-18.2129C65.625-17.1875 69.3359-16.6016 73.1934-16.6016Z"/>
  </g>
  <g id="Ultralight-L" transform="matrix(1 0 0 1 488.105 1556)">
   <path d="M48.6328 22.168C57.2754 22.168 65.2344 19.2383 71.582 14.2578C77.9297 19.2383 85.9375 22.168 94.5801 22.168C115.137 22.168 131.934 5.41992 131.934-15.1367C131.934-30.8105 122.217-44.2383 108.496-49.8047C108.74-51.4648 108.838-53.1738 108.838-54.8828C108.838-75.4883 92.0898-92.2363 71.4844-92.2363C50.9277-92.2363 34.1797-75.4883 34.1797-54.8828C34.1797-53.125 34.2773-51.416 34.5215-49.7559C20.8984-44.1406 11.2793-30.7617 11.2793-15.1367C11.2793 5.41992 28.0762 22.168 48.6328 22.168ZM48.6328-52.4902C44.5801-52.4902 40.625-51.8555 36.9629-50.6348C36.8164-52.0508 36.7188-53.4668 36.7188-54.8828C36.7188-74.0723 52.2461-89.6973 71.4844-89.6973C90.6738-89.6973 106.299-74.1699 106.299-54.8828C106.299-53.4668 106.201-52.0508 106.055-50.6836C102.441-51.8555 98.584-52.4902 94.5801-52.4902C85.9375-52.4902 77.9297-49.5117 71.582-44.5801C65.2344-49.5117 57.2754-52.4902 48.6328-52.4902ZM48.6328-49.9512C56.4941-49.9512 63.7695-47.3145 69.6289-42.9199C63.8184-37.6953 59.668-30.7129 58.0078-22.8027C47.5098-27.2461 39.6484-36.6211 37.4023-48.0957C40.918-49.3164 44.6777-49.9512 48.6328-49.9512ZM94.5801-49.9512C98.4375-49.9512 102.148-49.3164 105.664-48.1445C103.418-36.7676 95.6055-27.3438 85.1562-22.9004C83.4961-30.7617 79.3457-37.6953 73.584-42.9199C79.3945-47.3145 86.6699-49.9512 94.5801-49.9512ZM94.5801 19.6289C86.6699 19.6289 79.3945 16.9922 73.584 12.5977C81.1523 5.76172 85.9863-4.15039 85.9863-15.1367C85.9863-16.8945 85.8398-18.6523 85.5957-20.3125C96.9238-24.9512 105.518-35.0098 108.057-47.2168C120.557-41.9434 129.346-29.5898 129.346-15.1367C129.346 4.00391 113.818 19.6289 94.5801 19.6289ZM48.6328 19.6289C29.3945 19.6289 13.8184 4.10156 13.8184-15.1367C13.8184-29.4922 22.5586-41.8457 34.9609-47.168C37.5488-34.9121 46.1914-24.8535 57.5684-20.2637C57.3242-18.6035 57.2266-16.8945 57.2266-15.1367C57.2266-4.15039 62.0117 5.76172 69.6289 12.5977C63.7695 16.9922 56.4941 19.6289 48.6328 19.6289ZM71.4844-20.1172C67.627-20.1172 63.916-20.752 60.4492-21.9238C61.9629-29.541 65.9668-36.3281 71.582-41.2598C77.1973-36.3281 81.25-29.5898 82.7637-21.9727C79.1992-20.752 75.4395-20.1172 71.4844-20.1172ZM71.4844-17.5781C75.5859-17.5781 79.4922-18.2129 83.1543-19.4336C83.3008-18.0176 83.3984-16.6016 83.3984-15.1367C83.3984-4.78516 78.8574 4.58984 71.582 10.9863C64.3555 4.58984 59.7656-4.73633 59.7656-15.1367C59.7656-16.6016 59.8633-17.9688 60.0586-19.3848C63.6719-18.2129 67.5293-17.5781 71.4844-17.5781Z"/>
  </g>
  <g id="Black-M" transform="matrix(1 0 0 1 2866.55 1126)">
   <path d="M47.0703 20.3125C54.2969 20.3125 61.084 18.3105 66.8457 14.7949C72.6562 18.3105 79.4434 20.3125 86.7188 20.3125C107.812 20.3125 124.951 3.17383 124.951-18.0176C124.951-32.4219 116.943-45.0195 105.078-51.5625C105.078-51.7578 105.078-52.002 105.078-52.1973C105.078-73.291 87.9395-90.4785 66.8457-90.4785C45.6543-90.4785 28.5156-73.291 28.5156-52.1973C28.5156-51.9531 28.5156-51.709 28.5156-51.4648C16.6992-44.9219 8.74023-32.373 8.74023-18.0176C8.74023 3.17383 25.9277 20.3125 47.0703 20.3125ZM47.0703-56.25C45.3613-56.25 43.6523-56.1523 41.9922-55.9082C43.7988-67.9688 54.1992-77.2461 66.8457-77.2461C79.3457-77.2461 89.7461-68.0176 91.5527-55.957C89.9902-56.1523 88.3301-56.25 86.7188-56.25C79.4434-56.25 72.6562-54.248 66.8457-50.7324C61.084-54.248 54.2969-56.25 47.0703-56.25ZM47.0703-43.0176C50.3418-43.0176 53.418-42.3828 56.2988-41.2598C54.248-38.623 52.5391-35.6934 51.2695-32.5195C47.8516-35.2051 45.2148-38.7207 43.5547-42.7734C44.7266-42.9199 45.8984-43.0176 47.0703-43.0176ZM86.7188-43.0176C87.8418-43.0176 88.916-42.9199 90.0391-42.8223C88.3789-38.7695 85.7422-35.2539 82.4219-32.6172C81.1523-35.6934 79.4434-38.623 77.4414-41.2598C80.3223-42.3828 83.4473-43.0176 86.7188-43.0176ZM86.7188 7.08008C83.4473 7.08008 80.2734 6.44531 77.4414 5.32227C82.373-1.12305 85.3516-9.22852 85.3516-18.0176C85.3516-18.2129 85.3516-18.457 85.3516-18.6523C92.8711-22.8516 98.877-29.541 102.197-37.6465C108.008-33.0566 111.719-25.9766 111.719-18.0176C111.719-4.10156 100.537 7.08008 86.7188 7.08008ZM47.0703 7.08008C33.2031 7.08008 21.9727-4.10156 21.9727-18.0176C21.9727-25.9277 25.6348-32.959 31.3965-37.5488C34.7656-29.4922 40.7715-22.8027 48.3887-18.6035C48.3887-18.4082 48.3887-18.2129 48.3887-18.0176C48.3887-9.22852 51.3184-1.12305 56.2988 5.32227C53.418 6.44531 50.3418 7.08008 47.0703 7.08008ZM66.8457-27.1484C65.6738-27.1484 64.5508-27.1973 63.4277-27.3438C64.3066-29.4922 65.4785-31.4941 66.8457-33.3008C68.2617-31.4941 69.3848-29.4922 70.2637-27.3438C69.1406-27.1973 68.0176-27.1484 66.8457-27.1484ZM66.8457-13.8672C68.5059-13.8672 70.166-14.0137 71.8262-14.209C71.1426-9.86328 69.3848-5.9082 66.8457-2.63672C64.3066-5.9082 62.5488-9.86328 61.9141-14.209C63.5254-14.0137 65.1367-13.8672 66.8457-13.8672Z"/>
  </g>
  <g id="Heavy-M" transform="matrix(1 0 0 1 2570.84 1126)">
   <path d="M46.1426 19.3359C53.3691 19.3359 60.1074 17.2363 65.8691 13.6719C71.582 17.2363 78.3691 19.3359 85.5957 19.3359C106.201 19.3359 122.949 2.58789 122.949-18.0664C122.949-32.3242 114.941-44.7266 103.125-51.0254C103.174-51.416 103.174-51.7578 103.174-52.1484C103.174-72.7051 86.4258-89.4531 65.8203-89.4531C45.166-89.4531 28.418-72.7051 28.418-52.1484C28.418-51.7578 28.418-51.3672 28.418-50.9766C16.6992-44.6777 8.74023-32.2754 8.74023-18.0664C8.74023 2.58789 25.4883 19.3359 46.1426 19.3359ZM46.1426-55.4199C44.2383-55.4199 42.3828-55.2734 40.5273-54.9805C41.9922-67.6758 52.7344-77.4902 65.8203-77.4902C78.8574-77.4902 89.5996-67.6758 91.0156-55.0293C89.2578-55.2734 87.4512-55.4199 85.5957-55.4199C78.3691-55.4199 71.582-53.3691 65.8691-49.7559C60.1074-53.3691 53.3691-55.4199 46.1426-55.4199ZM46.1426-43.457C49.7559-43.457 53.2227-42.6758 56.3477-41.3086C54.0039-38.4277 52.1484-35.1562 50.7324-31.6406C46.8262-34.5215 43.75-38.4766 42.041-43.1152C43.3594-43.3594 44.7266-43.457 46.1426-43.457ZM85.5957-43.457C86.9629-43.457 88.2812-43.3594 89.5508-43.1641C87.8418-38.5254 84.8145-34.5703 80.9082-31.6895C79.541-35.1562 77.6367-38.4277 75.3418-41.3086C78.4668-42.6758 81.9336-43.457 85.5957-43.457ZM85.5957 7.37305C81.9336 7.37305 78.4668 6.5918 75.3418 5.22461C80.4199-1.17188 83.4961-9.27734 83.4961-18.0664C83.4961-18.457 83.4961-18.7988 83.4473-19.1895C91.2598-23.3398 97.3633-30.2246 100.635-38.5254C106.885-33.9355 110.986-26.4648 110.986-18.0664C110.986-4.00391 99.6094 7.37305 85.5957 7.37305ZM46.1426 7.37305C32.0801 7.37305 20.7031-4.00391 20.7031-18.0664C20.7031-26.416 24.7559-33.8379 31.0059-38.4766C34.2773-30.1758 40.4297-23.291 48.2422-19.1406C48.1934-18.7988 48.1934-18.4082 48.1934-18.0664C48.1934-9.27734 51.2695-1.17188 56.3477 5.22461C53.2227 6.5918 49.7559 7.37305 46.1426 7.37305ZM65.8203-26.709C64.4531-26.709 63.0859-26.8066 61.7676-27.002C62.7441-29.5898 64.1602-31.9824 65.8691-34.082C67.5293-31.9824 68.9453-29.5898 69.873-27.002C68.5547-26.8066 67.1875-26.709 65.8203-26.709ZM65.8203-14.7461C67.6758-14.7461 69.5312-14.8926 71.3379-15.1367C70.8008-10.2051 68.7988-5.71289 65.8691-2.05078C62.8906-5.71289 60.8887-10.2051 60.3516-15.1367C62.1094-14.8438 63.9648-14.7461 65.8203-14.7461Z"/>
  </g>
  <g id="Bold-M" transform="matrix(1 0 0 1 2275.26 1126)">
   <path d="M45.1172 18.2129C52.3438 18.2129 59.082 16.0645 64.7461 12.4023C70.4102 16.0645 77.1484 18.2129 84.375 18.2129C104.395 18.2129 120.703 1.9043 120.703-18.1641C120.703-32.2266 112.646-44.4336 100.977-50.4395C100.977-50.9766 101.025-51.5137 101.025-52.0508C101.025-72.0703 84.7168-88.3301 64.6973-88.3301C44.6289-88.3301 28.3203-72.0703 28.3203-52.0508C28.3203-51.5137 28.3691-50.9277 28.3691-50.3906C16.6992-44.3359 8.74023-32.1777 8.74023-18.1641C8.74023 1.9043 25.0488 18.2129 45.1172 18.2129ZM45.1172-54.4922C43.0176-54.4922 40.9668-54.2969 38.916-53.9551C39.9414-67.2852 51.0742-77.832 64.6973-77.832C78.2715-77.832 89.4043-67.2852 90.4297-53.9551C88.4277-54.2969 86.4258-54.4922 84.375-54.4922C77.1484-54.4922 70.4102-52.3438 64.6973-48.6816C59.082-52.3438 52.3438-54.4922 45.1172-54.4922ZM45.1172-43.9453C49.1699-43.9453 52.9785-43.0176 56.3965-41.3574C53.7598-38.1836 51.6602-34.5703 50.2441-30.6152C45.6543-33.6914 42.1387-38.2324 40.332-43.5059C41.8457-43.7988 43.457-43.9453 45.1172-43.9453ZM84.375-43.9453C85.9863-43.9453 87.5488-43.7988 89.0625-43.5059C87.207-38.2324 83.7402-33.7402 79.1992-30.6641C77.7344-34.5703 75.6348-38.1836 73.0469-41.3086C76.4648-43.0176 80.3223-43.9453 84.375-43.9453ZM84.375 7.66602C80.3223 7.66602 76.4648 6.73828 73.0469 5.07812C78.2715-1.2207 81.3965-9.32617 81.3965-18.1641C81.3965-18.7012 81.3965-19.2383 81.3965-19.7266C89.4043-23.877 95.6543-30.957 98.7793-39.5508C105.664-34.9121 110.156-27.0508 110.156-18.1641C110.156-3.90625 98.6328 7.66602 84.375 7.66602ZM45.1172 7.66602C30.8105 7.66602 19.2871-3.85742 19.2871-18.1641C19.2871-27.002 23.7305-34.8633 30.5664-39.502C33.7402-30.9082 40.0391-23.877 48.0469-19.7266C48.0469-19.1895 47.998-18.7012 47.998-18.1641C47.998-9.32617 51.1719-1.2207 56.3965 5.07812C52.9785 6.73828 49.1699 7.66602 45.1172 7.66602ZM64.6973-26.2207C63.0859-26.2207 61.5234-26.3672 59.9609-26.6113C61.0352-29.6875 62.6465-32.4707 64.6973-34.8633C66.748-32.4707 68.4082-29.6875 69.4336-26.6602C67.9199-26.3672 66.3086-26.2207 64.6973-26.2207ZM64.6973-15.6738C66.7969-15.6738 68.7988-15.8691 70.8008-16.2109C70.3613-10.5469 68.1641-5.41992 64.6973-1.41602C61.2793-5.41992 59.0332-10.5469 58.6426-16.1621C60.5957-15.8691 62.6465-15.6738 64.6973-15.6738Z"/>
  </g>
  <g id="Semibold-M" transform="matrix(1 0 0 1 1979.33 1126)">
   <path d="M44.3848 17.4316C51.6113 17.4316 58.3496 15.2832 63.9648 11.5723C69.5801 15.2832 76.3184 17.4316 83.5449 17.4316C103.174 17.4316 119.141 1.46484 119.141-18.2129C119.141-32.1289 111.133-44.1895 99.4629-50.0488C99.5117-50.6836 99.5117-51.3184 99.5117-51.9531C99.5117-71.582 83.5449-87.5488 63.916-87.5488C44.2383-87.5488 28.2715-71.582 28.2715-51.9531C28.2715-51.3184 28.3203-50.6348 28.3203-50C16.6992-44.1406 8.74023-32.0801 8.74023-18.2129C8.74023 1.46484 24.707 17.4316 44.3848 17.4316ZM44.3848-53.8086C42.1387-53.8086 39.9902-53.6133 37.8418-53.2227C38.5254-67.041 49.9023-78.0273 63.916-78.0273C77.8809-78.0273 89.3066-67.041 89.9414-53.2227C87.8906-53.6133 85.7422-53.8086 83.5449-53.8086C76.3184-53.8086 69.5801-51.6602 63.9648-47.9492C58.3496-51.6602 51.6113-53.8086 44.3848-53.8086ZM44.3848-44.2871C48.7305-44.2871 52.832-43.2129 56.4453-41.3086C53.6133-37.9883 51.3672-34.1797 49.8535-29.9805C44.873-33.1543 41.0156-37.9883 39.1602-43.75C40.8203-44.0918 42.5781-44.2871 44.3848-44.2871ZM83.5449-44.2871C85.3027-44.2871 87.0117-44.0918 88.6719-43.75C86.7676-38.0371 82.959-33.2031 77.9785-29.9805C76.5137-34.1797 74.2676-38.0371 71.4355-41.3086C75.0488-43.2129 79.1504-44.2871 83.5449-44.2871ZM83.5449 7.86133C79.1504 7.86133 75.0488 6.83594 71.4355 4.93164C76.7578-1.31836 79.9805-9.375 79.9805-18.2129C79.9805-18.8477 79.9805-19.4824 79.9316-20.1172C88.0859-24.2676 94.4824-31.4453 97.5098-40.1855C104.785-35.5957 109.57-27.4414 109.57-18.2129C109.57-3.80859 97.9492 7.86133 83.5449 7.86133ZM44.3848 7.86133C29.9316 7.86133 18.2617-3.80859 18.2617-18.2129C18.2617-27.4414 23.0469-35.5469 30.2734-40.1855C33.3496-31.3965 39.7461-24.2188 47.9492-20.1172C47.9004-19.4824 47.9004-18.8477 47.9004-18.2129C47.9004-9.375 51.123-1.31836 56.4453 4.93164C52.832 6.83594 48.7305 7.86133 44.3848 7.86133ZM63.916-25.8789C62.1582-25.8789 60.4004-26.0254 58.7402-26.3672C59.8633-29.7363 61.6211-32.8125 63.916-35.4492C66.2109-32.8125 68.0176-29.7852 69.1406-26.3672C67.4316-26.0254 65.7227-25.8789 63.916-25.8789ZM63.916-16.3086C66.1621-16.3086 68.3105-16.5527 70.4102-16.8945C70.1172-10.791 67.7246-5.27344 63.916-0.976562C60.1562-5.27344 57.7637-10.791 57.4707-16.8945C59.5703-16.5527 61.7188-16.3086 63.916-16.3086Z"/>
  </g>
  <g id="Medium-M" transform="matrix(1 0 0 1 1683.2 1126)">
   <path d="M43.8477 16.8457C51.0742 16.8457 57.7637 14.6484 63.3789 10.8887C68.9453 14.6484 75.6836 16.8457 82.9102 16.8457C102.197 16.8457 117.969 1.12305 117.969-18.2617C117.969-32.0801 109.961-44.043 98.3398-49.7559C98.3887-50.4395 98.3887-51.1719 98.3887-51.9043C98.3887-71.2402 82.666-86.9629 63.3301-86.9629C43.9453-86.9629 28.2227-71.2402 28.2227-51.9043C28.2227-51.1719 28.2715-50.4395 28.3203-49.707C16.6992-43.9941 8.74023-32.0312 8.74023-18.2617C8.74023 1.12305 24.4629 16.8457 43.8477 16.8457ZM43.8477-53.3203C41.5039-53.3203 39.2578-53.0762 37.0605-52.6855C37.4512-66.7969 49.0234-78.1738 63.3301-78.1738C77.5879-78.1738 89.209-66.8457 89.5996-52.6855C87.4512-53.125 85.2051-53.3203 82.9102-53.3203C75.6836-53.3203 68.9453-51.123 63.3301-47.3633C57.7637-51.123 51.0742-53.3203 43.8477-53.3203ZM43.8477-44.5312C48.3887-44.5312 52.6855-43.3594 56.4453-41.3086C53.4668-37.8906 51.123-33.8867 49.6094-29.4434C44.2871-32.7148 40.1855-37.8418 38.2812-43.9453C40.0391-44.3359 41.9434-44.5312 43.8477-44.5312ZM82.9102-44.5312C84.7656-44.5312 86.6211-44.3359 88.3789-43.9453C86.4746-37.8906 82.373-32.7637 77.0508-29.4922C75.5859-33.8867 73.2422-37.8906 70.2637-41.3086C73.9746-43.3594 78.3203-44.5312 82.9102-44.5312ZM82.9102 8.05664C78.3203 8.05664 73.9746 6.88477 70.2637 4.83398C75.6348-1.36719 78.9062-9.42383 78.9062-18.2617C78.9062-18.9941 78.8574-19.7266 78.8086-20.4102C87.1094-24.5117 93.5547-31.8359 96.582-40.7227C104.102-36.084 109.18-27.7832 109.18-18.2617C109.18-3.71094 97.4121 8.05664 82.9102 8.05664ZM43.8477 8.05664C29.2969 8.05664 17.5293-3.71094 17.5293-18.2617C17.5293-27.7344 22.5586-36.0352 30.0781-40.6738C33.1055-31.7871 39.5508-24.5117 47.8516-20.4102C47.8027-19.7266 47.8027-18.9941 47.8027-18.2617C47.8027-9.42383 51.0742-1.36719 56.4453 4.83398C52.7344 6.88477 48.4375 8.05664 43.8477 8.05664ZM63.3301-25.6348C61.4258-25.6348 59.5703-25.8301 57.8125-26.1719C58.9355-29.834 60.8398-33.1055 63.3301-35.8398C65.8203-33.1055 67.7246-29.834 68.8965-26.2207C67.0898-25.8301 65.2344-25.6348 63.3301-25.6348ZM63.3301-16.8457C65.6738-16.8457 67.9199-17.041 70.0684-17.4805C69.9219-10.9863 67.3828-5.12695 63.3301-0.634766C59.3262-5.12695 56.7871-10.9863 56.5918-17.4805C58.7891-17.041 61.0352-16.8457 63.3301-16.8457Z"/>
  </g>
  <g id="Regular-M" transform="matrix(1 0 0 1 1387.27 1126)">
   <path d="M43.1152 16.0645C50.3418 16.0645 57.0801 13.8184 62.5977 10.0098C68.1152 13.8184 74.8535 16.0645 82.0801 16.0645C100.977 16.0645 116.406 0.634766 116.406-18.3594C116.406-31.9824 108.398-43.7988 96.8262-49.3164C96.875-50.1465 96.9238-51.0254 96.9238-51.8555C96.9238-70.8008 81.543-86.2305 62.5977-86.2305C43.6035-86.2305 28.1738-70.8008 28.1738-51.8555C28.1738-51.0254 28.2227-50.1465 28.2715-49.3164C16.748-43.75 8.74023-31.9824 8.74023-18.3594C8.74023 0.634766 24.1699 16.0645 43.1152 16.0645ZM43.1152-52.6855C40.6738-52.6855 38.2812-52.4414 35.9863-51.9531C35.9863-66.5039 47.9004-78.418 62.5977-78.418C77.1484-78.418 89.0137-66.6016 89.1113-51.9531C86.8164-52.4414 84.4727-52.6855 82.0801-52.6855C74.8047-52.6855 68.1152-50.4395 62.5977-46.6309C57.0312-50.4395 50.3418-52.6855 43.1152-52.6855ZM43.1152-44.873C47.998-44.873 52.5391-43.5547 56.4941-41.2598C53.2715-37.6953 50.7812-33.4961 49.3164-28.8086C43.5059-32.1777 39.0625-37.6465 37.1094-44.1895C39.0625-44.6289 41.0645-44.873 43.1152-44.873ZM82.0801-44.873C84.082-44.873 86.084-44.6289 87.9883-44.1895C86.0352-37.6465 81.6406-32.1777 75.8301-28.8086C74.3652-33.4961 71.875-37.6953 68.7012-41.2598C72.6074-43.5547 77.1973-44.873 82.0801-44.873ZM82.0801 8.25195C77.1973 8.25195 72.6074 6.93359 68.7012 4.63867C74.1699-1.46484 77.4902-9.52148 77.4902-18.3594C77.4902-19.1895 77.4414-20.0195 77.3926-20.8496C85.8398-24.9023 92.3828-32.2754 95.2637-41.3574C103.223-36.7676 108.594-28.1738 108.594-18.3594C108.594-3.66211 96.7773 8.25195 82.0801 8.25195ZM43.1152 8.25195C28.418 8.25195 16.5527-3.61328 16.5527-18.3594C16.5527-28.125 21.875-36.7188 29.834-41.3086C32.7637-32.2754 39.3066-24.8535 47.7539-20.8008C47.7051-20.0195 47.6562-19.1895 47.6562-18.3594C47.6562-9.52148 50.9766-1.46484 56.4941 4.63867C52.5391 6.93359 47.998 8.25195 43.1152 8.25195ZM62.5977-25.293C60.498-25.293 58.4961-25.4883 56.5918-25.9766C57.7637-29.8828 59.8633-33.4473 62.5977-36.377C65.2832-33.4473 67.3828-29.8828 68.5547-25.9766C66.6504-25.4883 64.6484-25.293 62.5977-25.293ZM62.5977-17.4805C64.9902-17.4805 67.3828-17.7246 69.6777-18.2129C69.6777-11.3281 66.9922-4.98047 62.5488-0.244141C58.2031-4.93164 55.5176-11.2305 55.4688-18.2129C57.7637-17.7246 60.1562-17.4805 62.5977-17.4805Z"/>
  </g>
  <g id="Light-M" transform="matrix(1 0 0 1 1092.76 1126)">
   <path d="M41.4551 13.9648C48.4863 13.9648 55.0293 11.7188 60.4004 7.91016C65.7227 11.7188 72.2656 13.9648 79.3457 13.9648C97.3633 13.9648 112.012-0.683594 112.012-18.75C112.012-31.9336 104.15-43.3105 92.9199-48.4863C92.9688-49.4629 93.0176-50.4395 93.0176-51.416C93.0176-69.4336 78.3691-84.082 60.3516-84.082C42.334-84.082 27.6367-69.4336 27.6367-51.416C27.6367-50.4395 27.6855-49.4141 27.7832-48.4375C16.5527-43.2617 8.74023-31.8848 8.74023-18.75C8.74023-0.683594 23.3887 13.9648 41.4551 13.9648ZM41.4551-51.416C38.7695-51.416 36.1816-51.123 33.6914-50.4883C33.6914-50.7812 33.6426-51.123 33.6426-51.416C33.6426-66.1133 45.6055-78.0762 60.3516-78.0762C75.0488-78.0762 87.0117-66.1621 87.0117-51.416C87.0117-51.123 87.0117-50.8301 87.0117-50.4883C84.5703-51.123 81.9824-51.416 79.3457-51.416C72.2656-51.416 65.7227-49.1699 60.4004-45.3613C55.0293-49.1699 48.4863-51.416 41.4551-51.416ZM41.4551-45.4102C46.6797-45.4102 51.5625-43.8965 55.7129-41.3086C52.0996-37.5488 49.4141-32.9102 47.9004-27.7832C41.4062-31.2012 36.4746-37.2559 34.5703-44.5312C36.7676-45.1172 39.0625-45.4102 41.4551-45.4102ZM79.3457-45.4102C81.6895-45.4102 83.9844-45.1172 86.1328-44.5312C84.2285-37.3047 79.2969-31.25 72.8516-27.832C71.3379-32.959 68.6523-37.5488 65.0879-41.3086C69.1895-43.8965 74.0723-45.4102 79.3457-45.4102ZM79.3457 7.95898C74.0723 7.95898 69.1895 6.44531 65.0879 3.80859C70.6543-2.05078 74.1211-10.0098 74.1211-18.75C74.1211-19.7266 74.0723-20.752 73.9746-21.7285C82.5195-25.6348 89.1113-33.1543 91.748-42.334C100.244-37.8906 106.006-29.0039 106.006-18.75C106.006-4.00391 94.0918 7.95898 79.3457 7.95898ZM41.4551 7.95898C26.6602 7.95898 14.7461-4.00391 14.7461-18.75C14.7461-28.9551 20.5078-37.8418 28.9551-42.334C31.5918-33.1543 38.1836-25.6348 46.7773-21.6797C46.6797-20.7031 46.6309-19.7266 46.6309-18.75C46.6309-10.0098 50.0977-2.05078 55.7129 3.80859C51.5625 6.44531 46.6797 7.95898 41.4551 7.95898ZM60.3516-24.7559C58.0078-24.7559 55.7129-25.0488 53.5156-25.5859C54.7363-30.1758 57.1289-34.2773 60.4004-37.5C63.623-34.2773 66.0156-30.1758 67.2363-25.6348C65.0391-25.0488 62.7441-24.7559 60.3516-24.7559ZM60.3516-18.75C63.0371-18.75 65.625-19.043 68.1152-19.6289C68.1152-19.3359 68.1152-19.043 68.1152-18.75C68.1152-11.4258 65.1367-4.78516 60.3516 0.0488281C55.6152-4.78516 52.6367-11.4258 52.6367-18.75C52.6367-19.043 52.6367-19.3359 52.6367-19.6289C55.127-19.043 57.7148-18.75 60.3516-18.75Z"/>
  </g>
  <g id="Thin-M" transform="matrix(1 0 0 1 798.952 1126)">
   <path d="M39.209 11.1816C46.0449 11.1816 52.3926 8.88672 57.4707 5.07812C62.5488 8.88672 68.8965 11.1816 75.7324 11.1816C92.5293 11.1816 106.201-2.49023 106.201-19.2871C106.201-31.8359 98.5352-42.6758 87.6953-47.3145C87.793-48.4863 87.8906-49.6582 87.8906-50.8789C87.8906-67.627 74.2188-81.2988 57.4219-81.2988C40.625-81.2988 26.9531-67.627 26.9531-50.8789C26.9531-49.6582 27.0508-48.4375 27.1484-47.2656C16.3574-42.5781 8.74023-31.7871 8.74023-19.2871C8.74023-2.49023 22.4121 11.1816 39.209 11.1816ZM39.209-49.7559C36.2305-49.7559 33.3984-49.3164 30.6641-48.5352C30.6152-49.3164 30.5664-50.0977 30.5664-50.8789C30.5664-65.6738 42.5781-77.6855 57.4219-77.6855C72.2168-77.6855 84.2773-65.7227 84.2773-50.8789C84.2773-50.0977 84.2285-49.3164 84.1797-48.584C81.4941-49.3652 78.6621-49.7559 75.7324-49.7559C68.8965-49.7559 62.5488-47.4609 57.4707-43.6523C52.3926-47.4609 46.0449-49.7559 39.209-49.7559ZM39.209-46.1426C44.9707-46.1426 50.293-44.3359 54.6387-41.2598C50.5371-37.3047 47.5098-32.1777 46.1426-26.4648C38.6719-29.9316 33.0566-36.7188 31.25-44.9219C33.7402-45.7031 36.4258-46.1426 39.209-46.1426ZM75.7324-46.1426C78.4668-46.1426 81.1035-45.752 83.5938-44.9707C81.7871-36.7676 76.2207-30.0293 68.7988-26.5137C67.3828-32.2266 64.4043-37.3047 60.3027-41.2598C64.6484-44.3359 69.9707-46.1426 75.7324-46.1426ZM75.7324 7.56836C69.9707 7.56836 64.6484 5.76172 60.3027 2.68555C66.0645-2.88086 69.6777-10.6934 69.6777-19.2871C69.6777-20.5078 69.5801-21.6797 69.4824-22.8516C78.125-26.6113 84.7656-34.3262 87.0117-43.6523C96.1914-39.4043 102.588-30.127 102.588-19.2871C102.588-4.49219 90.625 7.56836 75.7324 7.56836ZM39.209 7.56836C24.3652 7.56836 12.3535-4.44336 12.3535-19.2871C12.3535-30.0293 18.7012-39.3066 27.832-43.6035C30.127-34.2285 36.7676-26.5625 45.459-22.8516C45.3613-21.6797 45.2637-20.5078 45.2637-19.2871C45.2637-10.6934 48.877-2.88086 54.6387 2.68555C50.293 5.76172 44.9707 7.56836 39.209 7.56836ZM57.4219-24.0234C54.6875-24.0234 52.0508-24.4141 49.5605-25.1953C50.7324-30.5664 53.5645-35.3516 57.4707-38.9648C61.377-35.3516 64.209-30.5664 65.3809-25.1953C62.8906-24.4141 60.2051-24.0234 57.4219-24.0234ZM57.4219-20.4102C60.4004-20.4102 63.2324-20.8008 65.9668-21.6309C66.0156-20.8496 66.0645-20.0684 66.0645-19.2871C66.0645-11.5234 62.7441-4.54102 57.4707 0.390625C52.1973-4.49219 48.877-11.5234 48.877-19.2871C48.877-20.0684 48.9258-20.8496 48.9746-21.582C51.6602-20.8008 54.4922-20.4102 57.4219-20.4102Z"/>
  </g>
  <g id="Ultralight-M" transform="matrix(1 0 0 1 503.73 1126)">
   <path d="M38.0859 9.76562C44.8242 9.76562 51.0254 7.4707 56.0059 3.61328C60.9375 7.4707 67.1875 9.76562 73.9258 9.76562C90.0391 9.76562 103.223-3.41797 103.223-19.5801C103.223-31.7871 95.6543-42.334 85.0098-46.7285C85.1562-47.998 85.2539-49.2676 85.2539-50.5859C85.2539-66.6992 72.0703-79.8828 55.9082-79.8828C39.7461-79.8828 26.6113-66.6992 26.6113-50.5859C26.6113-49.2676 26.709-47.9492 26.8555-46.6797C16.2598-42.2363 8.74023-31.7871 8.74023-19.5801C8.74023-3.41797 21.9238 9.76562 38.0859 9.76562ZM38.0859-48.9258C34.9609-48.9258 31.9824-48.4375 29.1504-47.5098C29.0527-48.5352 29.0039-49.5605 29.0039-50.5859C29.0039-65.4297 41.0156-77.4902 55.9082-77.4902C70.752-77.4902 82.8613-65.4785 82.8613-50.5859C82.8613-49.5605 82.8125-48.5352 82.666-47.5586C79.9316-48.4375 76.9531-48.9258 73.9258-48.9258C67.1875-48.9258 60.9375-46.6309 56.0059-42.7734C51.0254-46.6309 44.8242-48.9258 38.0859-48.9258ZM38.0859-46.5332C44.0918-46.5332 49.6582-44.5312 54.1016-41.2109C49.7559-37.1582 46.582-31.8359 45.2637-25.8301C37.3047-29.248 31.2988-36.4258 29.541-45.1172C32.2266-46.0449 35.0586-46.5332 38.0859-46.5332ZM73.9258-46.5332C76.8555-46.5332 79.6875-46.0449 82.3242-45.166C80.5664-36.5234 74.6094-29.3457 66.6992-25.8789C65.3809-31.8848 62.207-37.207 57.8613-41.2109C62.3047-44.5312 67.8711-46.5332 73.9258-46.5332ZM73.9258 7.37305C67.8711 7.37305 62.3047 5.37109 57.8125 2.05078C63.7207-3.32031 67.3828-11.0352 67.3828-19.5801C67.3828-20.8984 67.2852-22.2168 67.1387-23.4863C75.8789-27.0996 82.5195-34.8633 84.5703-44.2871C94.1406-40.1855 100.83-30.6641 100.83-19.5801C100.83-4.73633 88.8184 7.37305 73.9258 7.37305ZM38.0859 7.37305C23.1445 7.37305 11.1328-4.6875 11.1328-19.5801C11.1328-30.6152 17.7734-40.0879 27.2949-44.2871C29.3457-34.8145 36.0352-27.0508 44.8242-23.4375C44.6777-22.168 44.5801-20.8984 44.5801-19.5801C44.5801-11.0352 48.2422-3.32031 54.1016 2.05078C49.6582 5.37109 44.0918 7.37305 38.0859 7.37305ZM55.9082-23.6328C52.9785-23.6328 50.1465-24.1211 47.5098-24.9512C48.6816-30.7617 51.7578-35.8887 56.0059-39.6973C60.2051-35.8887 63.2812-30.8105 64.4531-25C61.7676-24.1211 58.8867-23.6328 55.9082-23.6328ZM55.9082-21.2402C59.0332-21.2402 62.0117-21.7285 64.8438-22.6074C64.9414-21.6309 64.9902-20.6055 64.9902-19.5801C64.9902-11.5723 61.5234-4.39453 55.957 0.537109C50.4395-4.39453 46.9727-11.5723 46.9727-19.5801C46.9727-20.6055 47.0215-21.582 47.1191-22.6074C49.9023-21.7285 52.8809-21.2402 55.9082-21.2402Z"/>
  </g>
  <g id="Black-S" transform="matrix(1 0 0 1 2881.08 696)">
   <path d="M36.8164 8.25195C42.4805 8.25195 47.8027 6.64062 52.3438 3.90625C56.8359 6.64062 62.1582 8.25195 67.8711 8.25195C84.375 8.25195 97.8027-5.17578 97.8027-21.7285C97.8027-33.0566 91.5039-42.9199 82.2266-47.998C82.2266-48.1445 82.2266-48.3398 82.2266-48.5352C82.2266-65.0391 68.7988-78.4668 52.2949-78.4668C35.7422-78.4668 22.3145-65.0391 22.3145-48.5352C22.3145-48.3398 22.3145-48.1445 22.3145-47.9492C13.0859-42.8223 6.83594-33.0078 6.83594-21.7285C6.83594-5.17578 20.2637 8.25195 36.8164 8.25195ZM36.8164-51.6602C35.4492-51.6602 34.1309-51.5625 32.8125-51.416C34.2285-60.8887 42.3828-68.1641 52.2949-68.1641C62.1582-68.1641 70.3125-60.8887 71.7285-51.416C70.459-51.5625 69.1895-51.6602 67.8711-51.6602C62.1582-51.6602 56.8359-50.0977 52.3438-47.3145C47.8027-50.0488 42.4805-51.6602 36.8164-51.6602ZM36.8164-41.3574C39.4043-41.3574 41.8457-40.8691 44.0918-39.9414C42.4805-37.8418 41.1621-35.5469 40.1367-33.0566C37.4512-35.1562 35.3516-37.9395 34.0332-41.1621C34.9609-41.3086 35.8887-41.3574 36.8164-41.3574ZM67.8711-41.3574C68.75-41.3574 69.6289-41.3086 70.5078-41.1621C69.2383-37.9883 67.1387-35.2051 64.502-33.1055C63.4766-35.5957 62.1582-37.8906 60.5469-39.9414C62.793-40.8691 65.2832-41.3574 67.8711-41.3574ZM67.8711-2.05078C65.2832-2.05078 62.793-2.53906 60.5469-3.4668C64.4531-8.49609 66.748-14.8438 66.748-21.7285C66.748-21.9238 66.748-22.1191 66.748-22.2656C72.7051-25.5859 77.3926-30.8105 79.9805-37.1582C84.5703-33.5938 87.5-27.9785 87.5-21.7285C87.5-10.8398 78.7109-2.05078 67.8711-2.05078ZM36.8164-2.05078C25.9277-2.05078 17.1387-10.8398 17.1387-21.7285C17.1387-27.9785 20.0195-33.4961 24.5605-37.1094C27.1973-30.7617 31.9336-25.4883 37.8906-22.2168C37.8906-22.0703 37.8906-21.9238 37.8906-21.7285C37.8906-14.8438 40.1855-8.49609 44.0918-3.4668C41.8457-2.53906 39.4043-2.05078 36.8164-2.05078ZM52.2949-28.8574C51.3672-28.8574 50.4883-28.9062 49.6094-29.0527C50.293-30.7617 51.2207-32.3242 52.3438-33.7891C53.418-32.3242 54.3457-30.7617 55.0293-29.0527C54.1504-28.9062 53.2227-28.8574 52.2949-28.8574ZM52.2949-18.5547C53.6133-18.5547 54.9316-18.6523 56.25-18.7988C55.7129-15.3809 54.3457-12.2559 52.3438-9.66797C50.293-12.2559 48.9258-15.3809 48.3887-18.7988C49.6582-18.6523 50.9766-18.5547 52.2949-18.5547Z"/>
  </g>
  <g id="Heavy-S" transform="matrix(1 0 0 1 2584.91 696)">
   <path d="M36.2793 7.71484C41.9922 7.71484 47.3145 6.10352 51.8066 3.27148C56.2988 6.10352 61.6211 7.71484 67.334 7.71484C83.5449 7.71484 96.7285-5.46875 96.7285-21.7285C96.7285-32.959 90.4297-42.7246 81.1523-47.7051C81.2012-47.9492 81.2012-48.2422 81.2012-48.5352C81.2012-64.7461 67.9688-77.9297 51.7578-77.9297C35.498-77.9297 22.3145-64.7461 22.3145-48.5352C22.3145-48.2422 22.3145-47.9492 22.3145-47.6562C13.0859-42.6758 6.83594-32.9102 6.83594-21.7285C6.83594-5.46875 20.0195 7.71484 36.2793 7.71484ZM36.2793-51.1719C34.8145-51.1719 33.3984-51.0254 31.9824-50.8301C33.1055-60.7422 41.5527-68.4082 51.7578-68.4082C61.9629-68.4082 70.3613-60.7422 71.5332-50.8789C70.166-51.0742 68.75-51.1719 67.334-51.1719C61.6211-51.1719 56.2988-49.5117 51.8066-46.7285C47.3145-49.5117 41.9922-51.1719 36.2793-51.1719ZM36.2793-41.6504C39.1113-41.6504 41.7969-41.0645 44.2383-39.9902C42.4316-37.7441 40.9668-35.2051 39.8926-32.4707C36.8652-34.7168 34.5215-37.793 33.1543-41.4062C34.1797-41.5527 35.2051-41.6504 36.2793-41.6504ZM67.334-41.6504C68.3594-41.6504 69.3848-41.5527 70.3613-41.4062C68.9941-37.8418 66.6504-34.7656 63.6719-32.5195C62.5977-35.2051 61.1328-37.7441 59.375-39.9902C61.8164-41.0645 64.502-41.6504 67.334-41.6504ZM67.334-1.80664C64.502-1.80664 61.8164-2.39258 59.375-3.4668C63.3301-8.49609 65.7227-14.8438 65.7227-21.7285C65.7227-22.0215 65.7227-22.3145 65.6738-22.5586C71.7773-25.8789 76.6113-31.25 79.1504-37.7441C84.0332-34.1309 87.207-28.3203 87.207-21.7285C87.207-10.6934 78.3203-1.80664 67.334-1.80664ZM36.2793-1.80664C25.2441-1.80664 16.3574-10.6934 16.3574-21.7285C16.3574-28.2715 19.4824-34.082 24.3652-37.6953C26.9531-31.2012 31.7871-25.8301 37.8906-22.5586C37.8906-22.2656 37.8906-22.0215 37.8906-21.7285C37.8906-14.8438 40.2344-8.49609 44.2383-3.4668C41.7969-2.39258 39.1113-1.80664 36.2793-1.80664ZM51.7578-28.5645C50.7324-28.5645 49.707-28.6621 48.6816-28.8086C49.4629-30.7617 50.4883-32.6172 51.8066-34.2285C53.0762-32.6172 54.1504-30.8105 54.8828-28.8086C53.8574-28.6621 52.832-28.5645 51.7578-28.5645ZM51.7578-19.043C53.2227-19.043 54.6387-19.1895 56.0547-19.3848C55.6152-15.5762 54.0527-12.0605 51.8066-9.22852C49.5117-12.0605 47.998-15.5762 47.5586-19.3848C48.9258-19.1406 50.3418-19.043 51.7578-19.043Z"/>
  </g>
  <g id="Bold-S" transform="matrix(1 0 0 1 2288.78 696)">
   <path d="M35.6934 7.12891C41.4062 7.12891 46.7285 5.46875 51.2207 2.58789C55.7129 5.46875 61.0352 7.12891 66.748 7.12891C82.6172 7.12891 95.5566-5.81055 95.5566-21.7773C95.5566-32.8613 89.2578-42.5293 79.9805-47.3633C80.0293-47.7051 80.0293-48.0957 80.0293-48.4863C80.0293-64.4043 67.0898-77.3438 51.1719-77.3438C35.2539-77.3438 22.3145-64.4043 22.3145-48.4863C22.3145-48.0957 22.3145-47.7051 22.3633-47.3145C13.1348-42.4805 6.83594-32.8613 6.83594-21.7773C6.83594-5.81055 19.7754 7.12891 35.6934 7.12891ZM35.6934-50.5859C34.1309-50.5859 32.5684-50.4395 31.0547-50.1953C31.9336-60.5469 40.5762-68.7012 51.1719-68.7012C61.7676-68.7012 70.4102-60.5469 71.2891-50.2441C69.8242-50.4395 68.2617-50.5859 66.748-50.5859C61.0352-50.5859 55.6641-48.9258 51.2207-46.0449C46.7285-48.9258 41.4062-50.5859 35.6934-50.5859ZM35.6934-41.9434C38.8184-41.9434 41.748-41.2598 44.3848-39.9902C42.3828-37.5488 40.8203-34.8145 39.6973-31.8359C36.2793-34.2285 33.5938-37.6465 32.1777-41.6504C33.3008-41.8457 34.5215-41.9434 35.6934-41.9434ZM66.748-41.9434C67.9199-41.9434 69.043-41.8457 70.166-41.6504C68.75-37.6465 66.1133-34.2773 62.6953-31.8848C61.5723-34.8633 60.0098-37.5977 58.0078-39.9902C60.6445-41.2109 63.623-41.9434 66.748-41.9434ZM66.748-1.51367C63.623-1.51367 60.6445-2.24609 58.0078-3.51562C62.1094-8.44727 64.5508-14.8438 64.5508-21.7773C64.5508-22.1191 64.5508-22.5098 64.502-22.9004C70.752-26.1719 75.6836-31.6895 78.1738-38.3789C83.4473-34.7168 86.9141-28.6621 86.9141-21.7773C86.9141-10.5957 77.8809-1.51367 66.748-1.51367ZM35.6934-1.51367C24.5117-1.51367 15.4785-10.5957 15.4785-21.7773C15.4785-28.6133 18.8965-34.668 24.1699-38.3301C26.6602-31.6406 31.5918-26.123 37.8906-22.9004C37.8906-22.5098 37.8418-22.1191 37.8418-21.7773C37.8418-14.8438 40.2832-8.44727 44.3848-3.51562C41.748-2.24609 38.8184-1.51367 35.6934-1.51367ZM51.1719-28.2715C50-28.2715 48.8281-28.3691 47.7051-28.5645C48.4863-30.8105 49.707-32.9102 51.2207-34.668C52.6855-32.9102 53.9062-30.8105 54.6875-28.5645C53.5645-28.3691 52.3926-28.2715 51.1719-28.2715ZM51.1719-19.6289C52.7832-19.6289 54.2969-19.7754 55.8105-20.0195C55.4199-15.7715 53.7598-11.8652 51.2207-8.78906C48.6328-11.8652 46.9727-15.7227 46.582-20.0195C48.0957-19.7754 49.6094-19.6289 51.1719-19.6289Z"/>
  </g>
  <g id="Semibold-S" transform="matrix(1 0 0 1 1992.49 696)">
   <path d="M35.3027 6.68945C41.0156 6.68945 46.3379 5.0293 50.7812 2.09961C55.2734 5.0293 60.5957 6.68945 66.3086 6.68945C81.9824 6.68945 94.7266-6.05469 94.7266-21.7773C94.7266-32.8125 88.4277-42.4316 79.1992-47.1191C79.1992-47.5586 79.1992-48.0469 79.1992-48.4863C79.1992-64.1602 66.4551-76.9043 50.7812-76.9043C35.0586-76.9043 22.3145-64.1602 22.3145-48.4863C22.3145-47.998 22.3145-47.5586 22.3633-47.0703C13.1348-42.3828 6.83594-32.8125 6.83594-21.7773C6.83594-6.05469 19.5801 6.68945 35.3027 6.68945ZM35.3027-50.1953C33.6426-50.1953 31.9824-50.0488 30.4199-49.7559C31.1035-60.4492 39.9414-68.8477 50.7812-68.8477C61.6211-68.8477 70.459-60.4492 71.1426-49.8047C69.5801-50.0488 67.9688-50.1953 66.3086-50.1953C60.5957-50.1953 55.2734-48.4863 50.7812-45.6055C46.3379-48.4863 41.0156-50.1953 35.3027-50.1953ZM35.3027-42.1387C38.5742-42.1387 41.6992-41.3574 44.4824-39.9902C42.334-37.4512 40.6738-34.5703 39.5508-31.4453C35.8398-33.8867 32.959-37.5 31.4941-41.7969C32.7148-42.041 33.9844-42.1387 35.3027-42.1387ZM66.3086-42.1387C67.5781-42.1387 68.8477-42.041 70.0684-41.7969C68.6035-37.5488 65.7227-33.8867 62.0117-31.4453C60.8887-34.5703 59.2285-37.4512 57.1289-39.9902C59.8633-41.3574 62.9883-42.1387 66.3086-42.1387ZM66.3086-1.36719C62.9883-1.36719 59.8633-2.14844 57.1289-3.51562C61.2305-8.44727 63.7207-14.8438 63.7207-21.7773C63.7207-22.2168 63.7207-22.6562 63.7207-23.1445C70.0684-26.3672 75.0488-31.9824 77.5391-38.7695C83.0566-35.1562 86.6699-28.9062 86.6699-21.7773C86.6699-10.498 77.5879-1.36719 66.3086-1.36719ZM35.3027-1.36719C24.0234-1.36719 14.8926-10.498 14.8926-21.7773C14.8926-28.8574 18.5059-35.1074 24.0234-38.7695C26.5137-31.9824 31.4941-26.3672 37.8906-23.0957C37.8418-22.6562 37.8418-22.2168 37.8418-21.7773C37.8418-14.8438 40.332-8.44727 44.4824-3.51562C41.6992-2.14844 38.623-1.36719 35.3027-1.36719ZM50.7812-28.0762C49.5117-28.0762 48.2422-28.1738 47.0215-28.418C47.8516-30.8594 49.1211-33.1055 50.7812-35.0098C52.4414-33.1055 53.7109-30.8594 54.5898-28.418C53.3691-28.1738 52.0996-28.0762 50.7812-28.0762ZM50.7812-20.0195C52.4414-20.0195 54.0527-20.166 55.6152-20.4102C55.3223-15.8691 53.5645-11.7676 50.7812-8.49609C47.998-11.7676 46.2402-15.8691 45.9473-20.4102C47.5098-20.166 49.1211-20.0195 50.7812-20.0195Z"/>
  </g>
  <g id="Medium-S" transform="matrix(1 0 0 1 1696.07 696)">
   <path d="M35.0098 6.39648C40.7227 6.39648 46.0449 4.6875 50.4883 1.70898C54.9316 4.6875 60.2539 6.39648 66.0156 6.39648C81.4941 6.39648 94.1406-6.25 94.1406-21.7773C94.1406-32.7637 87.793-42.334 78.5645-46.9238C78.6133-47.4609 78.6133-47.9492 78.6133-48.4863C78.6133-63.9648 66.0156-76.6113 50.4883-76.6113C34.9609-76.6113 22.3145-63.9648 22.3145-48.4863C22.3145-47.9492 22.3633-47.4121 22.3633-46.9238C13.1348-42.2852 6.83594-32.7637 6.83594-21.7773C6.83594-6.25 19.4336 6.39648 35.0098 6.39648ZM35.0098-49.9023C33.252-49.9023 31.5918-49.7559 29.9316-49.4629C30.4688-60.3516 39.4531-68.9941 50.4883-68.9941C61.4746-68.9941 70.5078-60.3516 70.9961-49.4629C69.3848-49.7559 67.7246-49.9023 66.0156-49.9023C60.2539-49.9023 54.9316-48.1934 50.4883-45.2637C46.0449-48.1934 40.7227-49.9023 35.0098-49.9023ZM35.0098-42.2852C38.4277-42.2852 41.6992-41.4551 44.5312-39.9414C42.334-37.3535 40.5762-34.375 39.4531-31.1035C35.498-33.6426 32.4707-37.4023 31.0059-41.8945C32.2754-42.1875 33.6426-42.2852 35.0098-42.2852ZM66.0156-42.2852C67.334-42.2852 68.6523-42.1875 69.9707-41.9434C68.457-37.4512 65.4297-33.6426 61.5234-31.1035C60.3516-34.375 58.6426-37.3535 56.4453-39.9414C59.2773-41.4551 62.5488-42.2852 66.0156-42.2852ZM66.0156-1.2207C62.5488-1.2207 59.2773-2.05078 56.4453-3.56445C60.5957-8.44727 63.1348-14.8438 63.1348-21.7773C63.1348-22.3145 63.0859-22.8027 63.0859-23.291C69.5312-26.5625 74.5605-32.2266 77.002-39.1113C82.7148-35.4492 86.5234-29.0527 86.5234-21.7773C86.5234-10.4004 77.3926-1.2207 66.0156-1.2207ZM35.0098-1.2207C23.6328-1.2207 14.4043-10.4004 14.4043-21.7773C14.4043-29.0527 18.2129-35.4492 23.9258-39.1113C26.3672-32.1777 31.3965-26.5137 37.8906-23.291C37.8418-22.8027 37.8418-22.2656 37.8418-21.7773C37.8418-14.8438 40.3809-8.44727 44.5312-3.56445C41.6992-2.05078 38.4277-1.2207 35.0098-1.2207ZM50.4883-27.9297C49.1211-27.9297 47.8027-28.0273 46.4844-28.2715C47.3633-30.8594 48.7305-33.252 50.4883-35.2539C52.2461-33.252 53.6133-30.8594 54.4922-28.2715C53.1738-28.0273 51.8555-27.9297 50.4883-27.9297ZM50.4883-20.3125C52.1973-20.3125 53.8574-20.459 55.5176-20.752C55.2734-15.9668 53.418-11.6211 50.4883-8.25195C47.5586-11.6211 45.7031-15.9668 45.459-20.752C47.0703-20.459 48.7793-20.3125 50.4883-20.3125Z"/>
  </g>
  <g id="Regular-S" transform="matrix(1 0 0 1 1399.77 696)">
   <path d="M34.6191 5.95703C40.332 5.95703 45.6543 4.24805 50.0977 1.2207C54.541 4.24805 59.8633 5.95703 65.5762 5.95703C80.8594 5.95703 93.3105-6.44531 93.3105-21.7773C93.3105-32.7148 86.9629-42.1875 77.7344-46.6797C77.7832-47.2656 77.832-47.8516 77.832-48.4863C77.832-63.7695 65.3809-76.1719 50.0977-76.1719C34.7656-76.1719 22.3145-63.7695 22.3145-48.4863C22.3145-47.8516 22.3633-47.2656 22.3633-46.6797C13.1836-42.1875 6.83594-32.7148 6.83594-21.7773C6.83594-6.44531 19.2871 5.95703 34.6191 5.95703ZM34.6191-49.5117C32.8125-49.5117 31.0547-49.3164 29.3457-49.0234C29.6387-60.2051 38.7695-69.1895 50.0977-69.1895C61.3281-69.1895 70.5078-60.2051 70.8008-49.0234C69.1406-49.3652 67.3828-49.5117 65.5762-49.5117C59.8633-49.5117 54.4922-47.7539 50.0977-44.7754C45.6543-47.7539 40.332-49.5117 34.6191-49.5117ZM34.6191-42.5293C38.2324-42.5293 41.6504-41.6016 44.6289-39.9414C42.2852-37.2559 40.4785-34.1309 39.3066-30.7129C35.1074-33.252 31.8848-37.3047 30.3223-42.0898C31.6895-42.3828 33.1543-42.5293 34.6191-42.5293ZM65.5762-42.5293C67.041-42.5293 68.457-42.3828 69.8242-42.0898C68.2617-37.3047 65.0391-33.252 60.8398-30.7129C59.668-34.1309 57.8613-37.2559 55.5664-39.9414C58.4961-41.6016 61.9629-42.5293 65.5762-42.5293ZM65.5762-1.02539C61.9629-1.02539 58.5449-1.95312 55.5664-3.61328C59.7656-8.49609 62.3047-14.8438 62.3047-21.7773C62.3047-22.3633 62.3047-22.9492 62.2559-23.5352C68.8477-26.7578 73.9258-32.5195 76.3184-39.502C82.3242-35.8887 86.3281-29.2969 86.3281-21.7773C86.3281-10.3027 77.0996-1.02539 65.5762-1.02539ZM34.6191-1.02539C23.0957-1.02539 13.8184-10.3027 13.8184-21.7773C13.8184-29.2969 17.8223-35.8887 23.8281-39.502C26.2207-32.5195 31.2988-26.7578 37.8906-23.5352C37.8418-22.9492 37.8418-22.3633 37.8418-21.7773C37.8418-14.8438 40.3809-8.49609 44.6289-3.61328C41.6504-1.95312 38.2324-1.02539 34.6191-1.02539ZM50.0977-27.6855C48.6328-27.6855 47.2168-27.832 45.8008-28.125C46.7285-30.9082 48.1934-33.4473 50.0977-35.5469C51.9531-33.4473 53.418-30.9082 54.3457-28.125C52.9785-27.832 51.5625-27.6855 50.0977-27.6855ZM50.0977-20.7031C51.8555-20.7031 53.6133-20.8496 55.3223-21.1914C55.1758-16.1133 53.2227-11.5234 50.0977-7.95898C46.9238-11.5234 44.9707-16.1133 44.8242-21.1914C46.5332-20.8984 48.291-20.7031 50.0977-20.7031Z"/>
  </g>
  <g id="Light-S" transform="matrix(1 0 0 1 1105.01 696)">
   <path d="M33.1055 4.10156C38.7207 4.10156 43.8965 2.34375 48.1445-0.634766C52.3926 2.34375 57.6172 4.10156 63.1836 4.10156C77.6367 4.10156 89.4043-7.66602 89.4043-22.168C89.4043-32.666 83.2031-41.748 74.2676-45.9473C74.3164-46.6309 74.3652-47.3633 74.3652-48.0957C74.3652-62.5488 62.5977-74.3164 48.1445-74.3164C33.6426-74.3164 21.875-62.5488 21.875-48.0957C21.875-47.3633 21.875-46.6309 21.9727-45.8984C13.0371-41.6992 6.83594-32.666 6.83594-22.168C6.83594-7.66602 18.6035 4.10156 33.1055 4.10156ZM33.1055-48.3887C31.1035-48.3887 29.1504-48.1934 27.2461-47.7539C27.2461-48.0957 27.2461-48.0957 27.2461-48.0957C27.2461-59.5703 36.5723-68.9453 48.1445-68.9453C59.6191-68.9453 68.9941-59.6191 68.9941-48.0957C68.9453-47.8027 68.9453-47.7539 68.9453-47.7539C67.0898-48.1934 65.1855-48.3887 63.1836-48.3887C57.5684-48.3887 52.3926-46.6309 48.1445-43.6523C43.8965-46.6309 38.6719-48.3887 33.1055-48.3887ZM33.1055-43.0176C37.0605-43.0176 40.7715-41.8945 43.8965-39.9902C41.2598-37.1094 39.209-33.6426 38.0371-29.7852C33.252-32.4707 29.5898-36.9629 28.0273-42.3828C29.6875-42.7734 31.3477-43.0176 33.1055-43.0176ZM63.1836-43.0176C64.8926-43.0176 66.6016-42.7734 68.1641-42.3828C66.6504-37.0117 63.0371-32.4707 58.2031-29.834C57.0312-33.6426 55.0293-37.1094 52.3438-39.9902C55.5176-41.8945 59.2285-43.0176 63.1836-43.0176ZM63.1836-1.26953C59.2285-1.26953 55.5176-2.39258 52.3438-4.29688C56.6895-8.98438 59.3262-15.2832 59.3262-22.168C59.3262-22.9004 59.3262-23.584 59.2773-24.3164C65.918-27.4414 71.0449-33.3008 73.2422-40.4297C79.6875-36.8652 84.0332-30.0293 84.0332-22.168C84.0332-10.6445 74.7559-1.26953 63.1836-1.26953ZM33.1055-1.26953C21.582-1.26953 12.2559-10.5957 12.2559-22.168C12.2559-29.9805 16.6016-36.8652 22.998-40.3809C25.1953-33.252 30.3223-27.3926 37.0117-24.2676C36.9629-23.584 36.9141-22.9004 36.9141-22.168C36.9141-15.2832 39.5996-8.98438 43.9453-4.29688C40.7715-2.39258 37.0605-1.26953 33.1055-1.26953ZM48.1445-27.1973C46.3867-27.1973 44.7266-27.4414 43.1152-27.832C44.043-31.1523 45.8008-34.1797 48.1445-36.5723C50.4883-34.1797 52.2461-31.1523 53.1738-27.832C51.5625-27.4414 49.8535-27.1973 48.1445-27.1973ZM48.1445-21.8262C50.1465-21.8262 52.0508-22.0215 53.9551-22.4609C53.9551-22.168 53.9551-22.168 53.9551-22.168C53.9551-16.5527 51.709-11.4258 48.1445-7.71484C44.5312-11.4258 42.334-16.5527 42.334-22.168C42.334-22.4609 42.334-22.4609 42.334-22.4609C44.1895-22.0215 46.1426-21.8262 48.1445-21.8262Z"/>
  </g>
  <g id="Thin-S" transform="matrix(1 0 0 1 810.866 696)">
   <path d="M31.1523 1.66016C36.5234 1.66016 41.5527-0.146484 45.5566-3.125C49.6094-0.146484 54.5898 1.66016 60.0098 1.66016C73.3887 1.66016 84.2773-9.22852 84.2773-22.6562C84.2773-32.6172 78.2715-41.1621 69.6777-44.9219C69.7754-45.8008 69.8242-46.6797 69.8242-47.6074C69.8242-60.9863 58.9355-71.875 45.5566-71.875C32.1289-71.875 21.2402-60.9863 21.2402-47.6074C21.2402-46.6797 21.2891-45.752 21.3867-44.873C12.8418-41.1133 6.83594-32.5684 6.83594-22.6562C6.83594-9.22852 17.7246 1.66016 31.1523 1.66016ZM31.1523-46.9238C28.8574-46.9238 26.6602-46.6309 24.5605-46.0449C24.5605-46.5332 24.5117-47.0703 24.5117-47.6074C24.5117-59.1797 33.9355-68.6035 45.5566-68.6035C57.1289-68.6035 66.5527-59.1797 66.5527-47.6074C66.5527-47.0703 66.5039-46.5332 66.4551-46.0449C64.4043-46.6309 62.2559-46.9238 60.0098-46.9238C54.5898-46.9238 49.6094-45.166 45.5566-42.1387C41.5039-45.166 36.5234-46.9238 31.1523-46.9238ZM31.1523-43.6523C35.5469-43.6523 39.5996-42.2852 43.0176-39.9414C39.8926-36.9141 37.5977-33.0078 36.4746-28.6133C30.8105-31.3477 26.5625-36.5234 25.0977-42.7734C27.002-43.3105 29.0039-43.6523 31.1523-43.6523ZM60.0098-43.6523C62.0605-43.6523 64.0625-43.3594 65.9668-42.7734C64.502-36.5723 60.3027-31.3965 54.6387-28.6621C53.5156-33.0078 51.2207-36.9141 48.1445-39.9414C51.5137-42.2852 55.6152-43.6523 60.0098-43.6523ZM60.0098-1.61133C55.6152-1.61133 51.5137-2.97852 48.1445-5.32227C52.6367-9.7168 55.4199-15.8691 55.4199-22.6562C55.4199-23.5352 55.3711-24.4629 55.2734-25.3418C62.0117-28.3203 67.1875-34.2773 69.043-41.6016C76.123-38.2324 81.0059-31.0059 81.0059-22.6562C81.0059-11.0352 71.6309-1.61133 60.0098-1.61133ZM31.1523-1.61133C19.5312-1.61133 10.1074-11.0352 10.1074-22.6562C10.1074-30.957 14.9414-38.1348 22.0215-41.5527C23.877-34.2773 29.0527-28.2715 35.8398-25.293C35.791-24.4141 35.7422-23.5352 35.7422-22.6562C35.7422-15.8691 38.5254-9.7168 43.0176-5.32227C39.6484-2.97852 35.5469-1.61133 31.1523-1.61133ZM45.5566-26.5625C43.457-26.5625 41.4551-26.8555 39.5508-27.4414C40.4785-31.4941 42.627-35.1074 45.5566-37.8906C48.4863-35.1074 50.6348-31.4941 51.5625-27.4414C49.6582-26.9043 47.6562-26.5625 45.5566-26.5625ZM45.5566-23.291C47.8027-23.291 50-23.584 52.0508-24.1699C52.0996-23.6816 52.1484-23.1445 52.1484-22.6562C52.1484-16.6504 49.6094-11.2305 45.5566-7.37305C41.5039-11.2305 39.0137-16.6504 39.0137-22.6562C39.0137-23.1445 39.0137-23.6816 39.0625-24.1699C41.1133-23.584 43.3105-23.291 45.5566-23.291Z"/>
  </g>
  <g id="Ultralight-S" transform="matrix(1 0 0 1 515.473 696)">
   <path d="M30.127 0.390625C35.4004 0.390625 40.332-1.41602 44.2383-4.39453C48.1934-1.41602 53.0762 0.390625 58.3984 0.390625C71.1914 0.390625 81.6406-10.0586 81.6406-22.9004C81.6406-32.5684 75.7324-40.8691 67.2852-44.3848C67.4316-45.3613 67.4805-46.3379 67.4805-47.3145C67.4805-60.1562 57.0312-70.6055 44.1895-70.6055C31.3965-70.6055 20.8984-60.1562 20.8984-47.3145C20.8984-46.3379 20.9961-45.3125 21.0938-44.3359C12.7441-40.8203 6.83594-32.5195 6.83594-22.9004C6.83594-10.0586 17.2852 0.390625 30.127 0.390625ZM30.127-46.1914C27.7344-46.1914 25.3906-45.8008 23.2422-45.1172C23.1445-45.8496 23.1445-46.582 23.1445-47.3145C23.1445-58.9355 32.5195-68.4082 44.1895-68.4082C55.8105-68.4082 65.2832-58.9844 65.2832-47.3145C65.2832-46.582 65.2344-45.8496 65.1855-45.166C63.0371-45.8008 60.7422-46.1914 58.3984-46.1914C53.0762-46.1914 48.1934-44.3848 44.2383-41.3574C40.332-44.3848 35.4004-46.1914 30.127-46.1914ZM30.127-43.9453C34.7656-43.9453 39.0625-42.4805 42.5293-39.9414C39.1602-36.7676 36.7188-32.666 35.6934-28.0273C29.5898-30.7129 25-36.2305 23.584-42.9199C25.6348-43.6035 27.832-43.9453 30.127-43.9453ZM58.3984-43.9453C60.6445-43.9453 62.793-43.6035 64.8438-42.9688C63.4277-36.3281 58.8867-30.8105 52.832-28.0762C51.7578-32.7148 49.3164-36.8164 45.9473-39.9414C49.4629-42.4805 53.7109-43.9453 58.3984-43.9453ZM58.3984-1.80664C53.7109-1.80664 49.4141-3.32031 45.9473-5.85938C50.5371-10.1074 53.3691-16.1621 53.3691-22.9004C53.3691-23.877 53.3203-24.9023 53.2227-25.8789C60.0586-28.7598 65.2344-34.8145 66.8945-42.1875C74.2676-38.916 79.4434-31.4941 79.4434-22.9004C79.4434-11.2793 70.0195-1.80664 58.3984-1.80664ZM30.127-1.80664C18.457-1.80664 9.0332-11.2305 9.0332-22.9004C9.0332-31.4453 14.1602-38.8184 21.4844-42.1387C23.1934-34.7656 28.418-28.6621 35.3027-25.8301C35.1562-24.8535 35.1074-23.877 35.1074-22.9004C35.1074-16.1621 37.9883-10.1074 42.5293-5.85938C39.0625-3.32031 34.7656-1.80664 30.127-1.80664ZM44.1895-26.2695C41.9434-26.2695 39.7949-26.6113 37.7441-27.2461C38.6719-31.6895 41.0156-35.5957 44.2383-38.5254C47.4609-35.5957 49.8047-31.6895 50.7324-27.2949C48.6816-26.6113 46.4844-26.2695 44.1895-26.2695ZM44.1895-24.0234C46.582-24.0234 48.9258-24.4141 51.0742-25.0977C51.1719-24.3652 51.1719-23.6328 51.1719-22.9004C51.1719-16.6992 48.4863-11.1328 44.2383-7.22656C39.9902-11.084 37.3047-16.6992 37.3047-22.9004C37.3047-23.6328 37.3535-24.3652 37.4023-25.0488C39.5508-24.4141 41.8457-24.0234 44.1895-24.0234Z"/>
  </g>
 </g>
</svg>
