<?xml version="1.0" encoding="UTF-8"?>
<!--Generator: Apple Native CoreSVG 149-->
<!DOCTYPE svg
PUBLIC "-//W3C//DTD SVG 1.1//EN"
       "http://www.w3.org/Graphics/SVG/1.1/DTD/svg11.dtd">
<svg version="1.1" xmlns="http://www.w3.org/2000/svg" xmlns:xlink="http://www.w3.org/1999/xlink" width="3300" height="2200">
 <!--glyph: "uni10012D.medium", point size: 100.000000, font version: "Version 16.0d18e1", template writer version: "8"-->
 <g id="Notes">
  <rect height="2200" id="artboard" style="fill:white;opacity:1" width="3300" x="0" y="0"/>
  <line id="" style="fill:none;stroke:black;opacity:1;stroke-width:0.5;" x1="263" x2="3036" y1="292" y2="292"/>
  <text style="stroke:none;fill:black;font-family:-apple-system,&quot;SF Pro Display&quot;,&quot;SF Pro Text&quot;,Helvetica,sans-serif;font-weight:bold;" transform="matrix(1 0 0 1 263 322)">Weight/Scale Variations</text>
  <text style="stroke:none;fill:black;font-family:-apple-system,&quot;SF Pro Display&quot;,&quot;SF Pro Text&quot;,Helvetica,sans-serif;text-anchor:middle;" transform="matrix(1 0 0 1 559.711 322)">Ultralight</text>
  <text style="stroke:none;fill:black;font-family:-apple-system,&quot;SF Pro Display&quot;,&quot;SF Pro Text&quot;,Helvetica,sans-serif;text-anchor:middle;" transform="matrix(1 0 0 1 856.422 322)">Thin</text>
  <text style="stroke:none;fill:black;font-family:-apple-system,&quot;SF Pro Display&quot;,&quot;SF Pro Text&quot;,Helvetica,sans-serif;text-anchor:middle;" transform="matrix(1 0 0 1 1153.13 322)">Light</text>
  <text style="stroke:none;fill:black;font-family:-apple-system,&quot;SF Pro Display&quot;,&quot;SF Pro Text&quot;,Helvetica,sans-serif;text-anchor:middle;" transform="matrix(1 0 0 1 1449.84 322)">Regular</text>
  <text style="stroke:none;fill:black;font-family:-apple-system,&quot;SF Pro Display&quot;,&quot;SF Pro Text&quot;,Helvetica,sans-serif;text-anchor:middle;" transform="matrix(1 0 0 1 1746.56 322)">Medium</text>
  <text style="stroke:none;fill:black;font-family:-apple-system,&quot;SF Pro Display&quot;,&quot;SF Pro Text&quot;,Helvetica,sans-serif;text-anchor:middle;" transform="matrix(1 0 0 1 2043.27 322)">Semibold</text>
  <text style="stroke:none;fill:black;font-family:-apple-system,&quot;SF Pro Display&quot;,&quot;SF Pro Text&quot;,Helvetica,sans-serif;text-anchor:middle;" transform="matrix(1 0 0 1 2339.98 322)">Bold</text>
  <text style="stroke:none;fill:black;font-family:-apple-system,&quot;SF Pro Display&quot;,&quot;SF Pro Text&quot;,Helvetica,sans-serif;text-anchor:middle;" transform="matrix(1 0 0 1 2636.69 322)">Heavy</text>
  <text style="stroke:none;fill:black;font-family:-apple-system,&quot;SF Pro Display&quot;,&quot;SF Pro Text&quot;,Helvetica,sans-serif;text-anchor:middle;" transform="matrix(1 0 0 1 2933.4 322)">Black</text>
  <line id="" style="fill:none;stroke:black;opacity:1;stroke-width:0.5;" x1="263" x2="3036" y1="1903" y2="1903"/>
  <g id="" transform="matrix(1 0 0 1 263 1933)">
   <path d="M9.24805 0.830078C13.5547 0.830078 17.1387-2.74414 17.1387-7.05078C17.1387-11.3574 13.5449-14.9316 9.23828-14.9316C4.94141-14.9316 1.36719-11.3574 1.36719-7.05078C1.36719-2.74414 4.95117 0.830078 9.24805 0.830078ZM9.24805-0.654297C5.70312-0.654297 2.87109-3.49609 2.87109-7.05078C2.87109-10.6055 5.69336-13.4473 9.23828-13.4473C12.793-13.4473 15.6348-10.6055 15.6445-7.05078C15.6543-3.49609 12.8027-0.654297 9.24805-0.654297ZM6.39648-6.31836L8.50586-6.31836L8.50586-4.19922C8.50586-3.75977 8.79883-3.45703 9.22852-3.45703C9.67773-3.45703 9.9707-3.75977 9.9707-4.19922L9.9707-6.31836L12.0996-6.31836C12.5391-6.31836 12.8418-6.61133 12.8418-7.04102C12.8418-7.48047 12.5391-7.7832 12.0996-7.7832L9.9707-7.7832L9.9707-9.89258C9.9707-10.3418 9.67773-10.6445 9.22852-10.6445C8.79883-10.6445 8.50586-10.3418 8.50586-9.89258L8.50586-7.7832L6.39648-7.7832C5.94727-7.7832 5.64453-7.48047 5.64453-7.04102C5.64453-6.61133 5.94727-6.31836 6.39648-6.31836Z"/>
  </g>
  <g id="" transform="matrix(1 0 0 1 281.506 1933)">
   <path d="M11.709 2.91016C17.1582 2.91016 21.6699-1.61133 21.6699-7.05078C21.6699-12.5 17.1484-17.0117 11.6992-17.0117C6.25977-17.0117 1.74805-12.5 1.74805-7.05078C1.74805-1.61133 6.26953 2.91016 11.709 2.91016ZM11.709 1.25C7.09961 1.25 3.41797-2.44141 3.41797-7.05078C3.41797-11.6602 7.08984-15.3516 11.6992-15.3516C16.3086-15.3516 20-11.6602 20.0098-7.05078C20.0195-2.44141 16.3184 1.25 11.709 1.25ZM7.98828-6.23047L10.8789-6.23047L10.8789-3.32031C10.8789-2.83203 11.2109-2.5 11.6895-2.5C12.1777-2.5 12.5195-2.83203 12.5195-3.32031L12.5195-6.23047L15.4297-6.23047C15.918-6.23047 16.25-6.5625 16.25-7.04102C16.25-7.5293 15.918-7.87109 15.4297-7.87109L12.5195-7.87109L12.5195-10.7617C12.5195-11.2695 12.1777-11.6016 11.6895-11.6016C11.2109-11.6016 10.8789-11.2598 10.8789-10.7617L10.8789-7.87109L7.98828-7.87109C7.48047-7.87109 7.14844-7.5293 7.14844-7.04102C7.14844-6.5625 7.49023-6.23047 7.98828-6.23047Z"/>
  </g>
  <g id="" transform="matrix(1 0 0 1 304.924 1933)">
   <path d="M14.9707 5.66406C21.9336 5.66406 27.6953-0.0976562 27.6953-7.05078C27.6953-14.0137 21.9238-19.7754 14.9609-19.7754C8.00781-19.7754 2.25586-14.0137 2.25586-7.05078C2.25586-0.0976562 8.01758 5.66406 14.9707 5.66406ZM14.9707 3.84766C8.93555 3.84766 4.08203-1.01562 4.08203-7.05078C4.08203-13.0957 8.92578-17.9492 14.9609-17.9492C21.0059-17.9492 25.8594-13.0957 25.8691-7.05078C25.8789-1.01562 21.0156 3.84766 14.9707 3.84766ZM10.0586-6.14258L14.0625-6.14258L14.0625-2.12891C14.0625-1.5918 14.4336-1.2207 14.9512-1.2207C15.4883-1.2207 15.8594-1.5918 15.8594-2.12891L15.8594-6.14258L19.8828-6.14258C20.4102-6.14258 20.791-6.51367 20.791-7.03125C20.791-7.56836 20.4199-7.94922 19.8828-7.94922L15.8594-7.94922L15.8594-11.9531C15.8594-12.5098 15.4883-12.8809 14.9512-12.8809C14.4336-12.8809 14.0625-12.5 14.0625-11.9531L14.0625-7.94922L10.0586-7.94922C9.50195-7.94922 9.13086-7.56836 9.13086-7.03125C9.13086-6.51367 9.51172-6.14258 10.0586-6.14258Z"/>
  </g>
  <text style="stroke:none;fill:black;font-family:-apple-system,&quot;SF Pro Display&quot;,&quot;SF Pro Text&quot;,Helvetica,sans-serif;font-weight:bold;" transform="matrix(1 0 0 1 263 1953)">Design Variations</text>
  <text style="stroke:none;fill:black;font-family:-apple-system,&quot;SF Pro Display&quot;,&quot;SF Pro Text&quot;,Helvetica,sans-serif;" transform="matrix(1 0 0 1 263 1971)">Symbols are supported in up to nine weights and three scales.</text>
  <text style="stroke:none;fill:black;font-family:-apple-system,&quot;SF Pro Display&quot;,&quot;SF Pro Text&quot;,Helvetica,sans-serif;" transform="matrix(1 0 0 1 263 1989)">For optimal layout with text and other symbols, vertically align</text>
  <text style="stroke:none;fill:black;font-family:-apple-system,&quot;SF Pro Display&quot;,&quot;SF Pro Text&quot;,Helvetica,sans-serif;" transform="matrix(1 0 0 1 263 2007)">symbols with the adjacent text.</text>
  <line id="" style="fill:none;stroke:#00AEEF;stroke-width:0.5;opacity:1.0;" x1="776" x2="776" y1="1919" y2="1933"/>
  <g id="" transform="matrix(1 0 0 1 776 1933)">
   <path d="M3.31055 0.126953C3.82812 0.126953 4.08203-0.0683594 4.26758-0.605469L5.52734-4.0625L11.2891-4.0625L12.5488-0.605469C12.7344-0.0683594 12.9883 0.126953 13.4961 0.126953C14.0137 0.126953 14.3457-0.185547 14.3457-0.673828C14.3457-0.839844 14.3164-0.986328 14.2383-1.20117L9.6582-13.3887C9.43359-13.9941 9.0332-14.2871 8.4082-14.2871C7.80273-14.2871 7.39258-13.9941 7.17773-13.3984L2.59766-1.19141C2.51953-0.976562 2.49023-0.830078 2.49023-0.664062C2.49023-0.175781 2.80273 0.126953 3.31055 0.126953ZM6.00586-5.53711L8.37891-12.1094L8.42773-12.1094L10.8008-5.53711Z"/>
  </g>
  <line id="" style="fill:none;stroke:#00AEEF;stroke-width:0.5;opacity:1.0;" x1="792.836" x2="792.836" y1="1919" y2="1933"/>
  <text style="stroke:none;fill:black;font-family:-apple-system,&quot;SF Pro Display&quot;,&quot;SF Pro Text&quot;,Helvetica,sans-serif;font-weight:bold;" transform="matrix(1 0 0 1 776 1953)">Margins</text>
  <text style="stroke:none;fill:black;font-family:-apple-system,&quot;SF Pro Display&quot;,&quot;SF Pro Text&quot;,Helvetica,sans-serif;" transform="matrix(1 0 0 1 776 1971)">Leading and trailing margins on the left and right side of each symbol</text>
  <text style="stroke:none;fill:black;font-family:-apple-system,&quot;SF Pro Display&quot;,&quot;SF Pro Text&quot;,Helvetica,sans-serif;" transform="matrix(1 0 0 1 776 1989)">can be adjusted by modifying the x-location of the margin guidelines.</text>
  <text style="stroke:none;fill:black;font-family:-apple-system,&quot;SF Pro Display&quot;,&quot;SF Pro Text&quot;,Helvetica,sans-serif;" transform="matrix(1 0 0 1 776 2007)">Modifications are automatically applied proportionally to all</text>
  <text style="stroke:none;fill:black;font-family:-apple-system,&quot;SF Pro Display&quot;,&quot;SF Pro Text&quot;,Helvetica,sans-serif;" transform="matrix(1 0 0 1 776 2025)">scales and weights.</text>
  <g id="" transform="matrix(1 0 0 1 1289 1933)">
   <path d="M2.8418 1.86523L4.54102 3.57422C5.40039 4.44336 6.38672 4.38477 7.31445 3.35938L17.4902-7.85156C17.7539-7.76367 18.0273-7.7832 18.3398-7.8418L19.4043-8.03711L20.0684-7.36328L20.0293-6.80664C19.9902-6.30859 20.1172-5.92773 20.6055-5.44922L21.3672-4.70703C21.8457-4.22852 22.4609-4.19922 22.9297-4.66797L25.8398-7.58789C26.3086-8.05664 26.2891-8.65234 25.8105-9.13086L25.0391-9.89258C24.5605-10.3711 24.1895-10.5273 23.7109-10.4883L23.1348-10.4395L22.4902-11.0742L22.7344-12.1973C22.8613-12.7637 22.7051-13.2031 22.1191-13.7891L19.9219-15.9766C16.582-19.2969 12.1484-19.2188 9.25781-16.3281C8.83789-15.918 8.80859-15.3418 9.04297-14.9512C9.27734-14.5898 9.73633-14.3555 10.3809-14.5215C11.8457-14.8633 13.3691-14.9219 14.7949-13.9844L14.209-12.5293C14.0137-12.0508 13.9844-11.6504 14.1113-11.2891L3.04688-0.898438C2.06055 0.0195312 1.98242 0.996094 2.8418 1.86523ZM10.752-15.957C13.1836-17.7344 16.4746-17.4316 18.7012-15.2051L21.1328-12.793C21.3672-12.5586 21.4062-12.373 21.3379-12.0312L21.0156-10.5469L22.5195-9.0625L23.5059-9.12109C23.7598-9.13086 23.8379-9.11133 24.0332-8.91602L24.6094-8.33984L22.168-5.89844L21.5918-6.47461C21.3965-6.66992 21.3672-6.74805 21.377-7.01172L21.4453-7.98828L19.9512-9.47266L18.4277-9.21875C18.1055-9.15039 17.959-9.17969 17.7148-9.41406L15.7129-11.416C15.459-11.6504 15.4297-11.8164 15.5859-12.1875L16.4648-14.2773C14.9023-15.7324 12.8711-16.3574 10.8398-15.7617C10.6836-15.7227 10.625-15.8496 10.752-15.957ZM5.27344 2.30469L4.10156 1.14258C3.63281 0.683594 3.74023 0.341797 4.14062-0.0195312L14.9512-10.1953L16.416-8.71094L6.42578 2.27539C6.07422 2.67578 5.74219 2.77344 5.27344 2.30469Z"/>
  </g>
  <text style="stroke:none;fill:black;font-family:-apple-system,&quot;SF Pro Display&quot;,&quot;SF Pro Text&quot;,Helvetica,sans-serif;font-weight:bold;" transform="matrix(1 0 0 1 1289 1953)">Exporting</text>
  <text style="stroke:none;fill:black;font-family:-apple-system,&quot;SF Pro Display&quot;,&quot;SF Pro Text&quot;,Helvetica,sans-serif;" transform="matrix(1 0 0 1 1289 1971)">Symbols should be outlined when exporting to ensure the</text>
  <text style="stroke:none;fill:black;font-family:-apple-system,&quot;SF Pro Display&quot;,&quot;SF Pro Text&quot;,Helvetica,sans-serif;" transform="matrix(1 0 0 1 1289 1989)">design is preserved when submitting to Xcode.</text>
  <text id="template-version" style="stroke:none;fill:black;font-family:-apple-system,&quot;SF Pro Display&quot;,&quot;SF Pro Text&quot;,Helvetica,sans-serif;text-anchor:end;" transform="matrix(1 0 0 1 3036 1933)">Template v.2.0</text>
  <text style="stroke:none;fill:black;font-family:-apple-system,&quot;SF Pro Display&quot;,&quot;SF Pro Text&quot;,Helvetica,sans-serif;text-anchor:end;" transform="matrix(1 0 0 1 3036 1951)">Requires Xcode 12 or greater</text>
  <text style="stroke:none;fill:black;font-family:-apple-system,&quot;SF Pro Display&quot;,&quot;SF Pro Text&quot;,Helvetica,sans-serif;text-anchor:end;" transform="matrix(1 0 0 1 3036 1969)">Generated from arrow.left.arrow.right</text>
  <text style="stroke:none;fill:black;font-family:-apple-system,&quot;SF Pro Display&quot;,&quot;SF Pro Text&quot;,Helvetica,sans-serif;text-anchor:end;" transform="matrix(1 0 0 1 3036 1987)">Typeset at 100 points</text>
  <text style="stroke:none;fill:black;font-family:-apple-system,&quot;SF Pro Display&quot;,&quot;SF Pro Text&quot;,Helvetica,sans-serif;" transform="matrix(1 0 0 1 263 726)">Small</text>
  <text style="stroke:none;fill:black;font-family:-apple-system,&quot;SF Pro Display&quot;,&quot;SF Pro Text&quot;,Helvetica,sans-serif;" transform="matrix(1 0 0 1 263 1156)">Medium</text>
  <text style="stroke:none;fill:black;font-family:-apple-system,&quot;SF Pro Display&quot;,&quot;SF Pro Text&quot;,Helvetica,sans-serif;" transform="matrix(1 0 0 1 263 1586)">Large</text>
 </g>
 <g id="Guides">
  <g id="H-reference" style="fill:#27AAE1;stroke:none;" transform="matrix(1 0 0 1 339 696)">
   <path d="M0.976562 0L3.66211 0L12.9883-24.4629L45.752-24.4629L55.127 0L57.7637 0L30.6152-70.459L28.125-70.459ZM29.3457-67.1387L29.4434-67.1387L44.873-26.709L13.8672-26.709Z"/>
  </g>
  <line id="Baseline-S" style="fill:none;stroke:#27AAE1;opacity:1;stroke-width:0.5;" x1="263" x2="3036" y1="696" y2="696"/>
  <line id="Capline-S" style="fill:none;stroke:#27AAE1;opacity:1;stroke-width:0.5;" x1="263" x2="3036" y1="625.541" y2="625.541"/>
  <g id="H-reference" style="fill:#27AAE1;stroke:none;" transform="matrix(1 0 0 1 339 1126)">
   <path d="M0.976562 0L3.66211 0L12.9883-24.4629L45.752-24.4629L55.127 0L57.7637 0L30.6152-70.459L28.125-70.459ZM29.3457-67.1387L29.4434-67.1387L44.873-26.709L13.8672-26.709Z"/>
  </g>
  <line id="Baseline-M" style="fill:none;stroke:#27AAE1;opacity:1;stroke-width:0.5;" x1="263" x2="3036" y1="1126" y2="1126"/>
  <line id="Capline-M" style="fill:none;stroke:#27AAE1;opacity:1;stroke-width:0.5;" x1="263" x2="3036" y1="1055.54" y2="1055.54"/>
  <g id="H-reference" style="fill:#27AAE1;stroke:none;" transform="matrix(1 0 0 1 339 1556)">
   <path d="M0.976562 0L3.66211 0L12.9883-24.4629L45.752-24.4629L55.127 0L57.7637 0L30.6152-70.459L28.125-70.459ZM29.3457-67.1387L29.4434-67.1387L44.873-26.709L13.8672-26.709Z"/>
  </g>
  <line id="Baseline-L" style="fill:none;stroke:#27AAE1;opacity:1;stroke-width:0.5;" x1="263" x2="3036" y1="1556" y2="1556"/>
  <line id="Capline-L" style="fill:none;stroke:#27AAE1;opacity:1;stroke-width:0.5;" x1="263" x2="3036" y1="1485.54" y2="1485.54"/>
  <line id="left-margin" style="fill:none;stroke:#00AEEF;stroke-width:0.5;opacity:1.0;" x1="1390.27" x2="1390.27" y1="1030.79" y2="1150.12"/>
  <line id="right-margin" style="fill:none;stroke:#00AEEF;stroke-width:0.5;opacity:1.0;" x1="1509.41" x2="1509.41" y1="1030.79" y2="1150.12"/>
 </g>
 <g id="Symbols">
  <g id="Black-L" transform="matrix(1 0 0 1 2853.03 1556)">
   <path d="M19.3848-79.7363C14.9902-75.5371 14.9902-68.7988 19.3848-64.5996L51.9531-33.0078C53.8086-31.1523 56.6895-29.9316 59.2773-29.9316C65.2344-29.9316 69.4824-34.1797 69.4824-40.0879C69.4824-42.8223 68.5547-45.3613 66.5527-47.168L53.5645-59.5703L50.4883-62.1094L60.4004-61.9141L134.424-61.9141C140.283-61.9141 144.678-66.3086 144.678-72.168C144.678-78.0273 140.283-82.4219 134.424-82.4219L60.4004-82.4219L50.4883-82.2266L53.5645-84.8145L66.5527-97.168C68.5547-99.0234 69.4824-101.514 69.4824-104.248C69.4824-110.205 65.2344-114.453 59.2773-114.453C56.6895-114.453 53.8086-113.232 51.9531-111.377ZM141.357 9.375C145.752 5.12695 145.752-1.5625 141.357-5.76172L108.789-37.4023C106.934-39.2578 104.053-40.4785 101.416-40.4785C95.5078-40.4785 91.2598-36.2305 91.2598-30.2734C91.2598-27.5391 92.1875-25.0488 94.1406-23.1934L107.129-10.791L110.254-8.25195L100.342-8.44727L26.3184-8.44727C20.459-8.44727 16.0645-4.05273 16.0645 1.80664C16.0645 7.66602 20.459 12.0605 26.3184 12.0605L100.342 12.0605L110.254 11.8652L107.129 14.4043L94.1406 26.8066C92.1875 28.6621 91.2598 31.1523 91.2598 33.8867C91.2598 39.7949 95.5078 44.0918 101.416 44.0918C104.053 44.0918 106.934 42.8711 108.789 40.9668Z"/>
  </g>
  <g id="Heavy-L" transform="matrix(1 0 0 1 2557.37 1556)">
   <path d="M18.9453-78.6621C15.0879-74.9512 15.1367-69.0918 18.9453-65.4297L51.4648-33.7402C53.125-32.0801 55.6641-31.0059 57.959-31.0059C63.1836-31.0059 66.8457-34.7168 66.8457-39.8926C66.8457-42.334 66.0156-44.4824 64.3066-46.1426L51.0254-58.8379L45.8008-63.3301L56.7383-63.0859L133.594-63.0859C138.721-63.0859 142.578-66.8945 142.578-72.0215C142.578-77.1973 138.721-81.0059 133.594-81.0059L56.7383-81.0059L45.8008-80.7129L51.0254-85.2051L64.3066-97.9492C66.0156-99.6094 66.8457-101.758 66.8457-104.199C66.8457-109.375 63.1836-113.086 57.959-113.086C55.6641-113.086 53.125-112.012 51.4648-110.352ZM139.697 8.30078C143.555 4.54102 143.506-1.31836 139.697-4.98047L107.129-36.6699C105.469-38.3301 102.979-39.3555 100.684-39.3555C95.459-39.3555 91.7969-35.6445 91.7969-30.4688C91.7969-28.0762 92.627-25.8789 94.3359-24.2676L107.617-11.5234L112.842-7.03125L101.904-7.32422L25.0488-7.32422C19.9219-7.32422 16.0645-3.51562 16.0645 1.66016C16.0645 6.78711 19.9219 10.5957 25.0488 10.5957L101.904 10.5957L112.842 10.3516L107.617 14.8438L94.3359 27.5879C92.627 29.1992 91.7969 31.3477 91.7969 33.7891C91.7969 38.9648 95.459 42.6758 100.684 42.6758C102.979 42.6758 105.469 41.6016 107.129 39.9414Z"/>
  </g>
  <g id="Bold-L" transform="matrix(1 0 0 1 2261.83 1556)">
   <path d="M18.5059-77.4414C15.2344-74.3164 15.2832-69.3848 18.5059-66.3086L50.9766-34.5703C52.3926-33.1543 54.541-32.2266 56.4453-32.2266C60.8398-32.2266 63.916-35.3516 63.916-39.6973C63.916-41.748 63.2324-43.5547 61.7676-44.9219L48.1445-58.0566L40.5762-64.7461L52.6367-64.3555L132.715-64.3555C137.012-64.3555 140.234-67.5781 140.234-71.875C140.234-76.2207 137.012-79.3945 132.715-79.3945L52.6367-79.3945L40.5762-79.0527L48.1445-85.6934L61.7676-98.8281C63.2324-100.244 63.916-102.002 63.916-104.102C63.916-108.447 60.8398-111.523 56.4453-111.523C54.541-111.523 52.3926-110.645 50.9766-109.229ZM137.793 7.08008C141.064 3.90625 141.016-1.02539 137.793-4.10156L105.322-35.8398C103.906-37.2559 101.758-38.1836 99.8535-38.1836C95.459-38.1836 92.3828-35.0586 92.3828-30.7129C92.3828-28.6621 93.0664-26.8555 94.5312-25.4883L108.154-12.3535L115.723-5.66406L103.662-6.05469L23.584-6.05469C19.2871-6.05469 16.0645-2.83203 16.0645 1.46484C16.0645 5.81055 19.2871 8.98438 23.584 8.98438L103.662 8.98438L115.723 8.64258L108.154 15.2832L94.5312 28.418C93.0664 29.834 92.3828 31.5918 92.3828 33.6914C92.3828 38.0371 95.459 41.1133 99.8535 41.1133C101.758 41.1133 103.906 40.2344 105.322 38.8184Z"/>
  </g>
  <g id="Semibold-L" transform="matrix(1 0 0 1 1965.92 1556)">
   <path d="M18.2129-76.6113C15.332-73.877 15.3809-69.6289 18.2129-66.9434L50.6348-35.1562C51.9043-33.8867 53.7598-33.1055 55.4199-33.1055C59.2285-33.1055 61.9141-35.791 61.9141-39.5508C61.9141-41.3574 61.2793-42.8711 60.0098-44.1406L46.1914-57.5195L36.9629-65.6738L49.8535-65.2832L132.08-65.2832C135.84-65.2832 138.623-68.0176 138.623-71.7773C138.623-75.5371 135.84-78.3203 132.08-78.3203L49.8535-78.3203L36.9629-77.8809L46.1914-86.0352L60.0098-99.4141C61.2793-100.684 61.9141-102.197 61.9141-104.004C61.9141-107.764 59.2285-110.449 55.4199-110.449C53.7598-110.449 51.9043-109.668 50.6348-108.447ZM136.475 6.20117C139.355 3.4668 139.307-0.78125 136.475-3.4668L104.053-35.3027C102.783-36.5234 100.928-37.3535 99.2676-37.3535C95.459-37.3535 92.7734-34.668 92.7734-30.8594C92.7734-29.0527 93.4082-27.5391 94.6777-26.3184L108.496-12.8906L117.725-4.73633L104.834-5.17578L22.6074-5.17578C18.8477-5.17578 16.0645-2.39258 16.0645 1.36719C16.0645 5.12695 18.8477 7.86133 22.6074 7.86133L104.834 7.86133L117.725 7.4707L108.496 15.625L94.6777 29.0039C93.4082 30.2734 92.7734 31.7871 92.7734 33.5938C92.7734 37.3535 95.459 40.0391 99.2676 40.0391C100.928 40.0391 102.783 39.2578 104.053 37.9883Z"/>
  </g>
  <g id="Medium-L" transform="matrix(1 0 0 1 1669.82 1556)">
   <path d="M17.9688-75.9766C15.3809-73.5352 15.4785-69.7754 17.9688-67.3828L50.3906-35.5469C51.5137-34.4238 53.1738-33.7402 54.6387-33.7402C58.0566-33.7402 60.3516-36.084 60.3516-39.4531C60.3516-41.0645 59.8145-42.3828 58.6914-43.5059L44.6777-57.1289L34.2285-66.4062L47.7051-65.918L131.641-65.918C134.912-65.918 137.402-68.3594 137.402-71.6797C137.402-75.0488 134.912-77.4414 131.641-77.4414L47.7051-77.4414L34.2285-77.002L44.6777-86.2793L58.6914-99.9023C59.8145-101.025 60.3516-102.344 60.3516-103.955C60.3516-107.275 58.0566-109.668 54.6387-109.668C53.1738-109.668 51.5137-108.984 50.3906-107.812ZM135.498 5.56641C138.086 3.125 137.988-0.634766 135.498-3.02734L103.076-34.8633C101.953-35.9863 100.342-36.7188 98.8281-36.7188C95.4102-36.7188 93.1152-34.3262 93.1152-31.0059C93.1152-29.3945 93.6523-28.0273 94.7754-26.9043L108.789-13.3301L119.238-4.05273L105.762-4.49219L21.8262-4.49219C18.5547-4.49219 16.0645-2.09961 16.0645 1.26953C16.0645 4.63867 18.5547 7.03125 21.8262 7.03125L105.762 7.03125L119.238 6.5918L108.789 15.8691L94.7754 29.4434C93.6523 30.5664 93.1152 31.9336 93.1152 33.5449C93.1152 36.8652 95.4102 39.2578 98.8281 39.2578C100.342 39.2578 101.953 38.5254 103.076 37.4023Z"/>
  </g>
  <g id="Regular-L" transform="matrix(1 0 0 1 1373.92 1556)">
   <path d="M17.6758-75.1465C15.4785-73.0957 15.5762-69.9707 17.6758-68.0176L50.0488-36.1328C51.0254-35.1562 52.3926-34.5703 53.6621-34.5703C56.4453-34.5703 58.3496-36.5234 58.3496-39.3066C58.3496-40.6738 57.9102-41.748 56.9336-42.6758L42.7246-56.5918L30.6641-67.334L44.9219-66.8457L131.006-66.8457C133.74-66.8457 135.791-68.7988 135.791-71.582C135.791-74.3652 133.74-76.3672 131.006-76.3672L44.9219-76.3672L30.6641-75.8789L42.7246-86.6211L56.9336-100.488C57.9102-101.465 58.3496-102.539 58.3496-103.906C58.3496-106.641 56.4453-108.643 53.6621-108.643C52.3926-108.643 51.0254-108.008 50.0488-107.031ZM134.229 4.73633C136.377 2.68555 136.279-0.439453 134.229-2.44141L101.855-34.3262C100.879-35.3027 99.5117-35.8887 98.2422-35.8887C95.4102-35.8887 93.5059-33.9355 93.5059-31.1523C93.5059-29.7852 93.9941-28.7109 94.9219-27.7344L109.18-13.8672L121.191-3.125L106.982-3.61328L20.8496-3.61328C18.1152-3.61328 16.0645-1.66016 16.0645 1.17188C16.0645 3.95508 18.1152 5.9082 20.8496 5.9082L106.982 5.9082L121.191 5.41992L109.18 16.1621L94.9219 30.0293C93.9941 31.0059 93.5059 32.0801 93.5059 33.4473C93.5059 36.2305 95.4102 38.1836 98.2422 38.1836C99.5117 38.1836 100.879 37.5977 101.855 36.6211Z"/>
  </g>
  <g id="Light-L" transform="matrix(1 0 0 1 1078.45 1556)">
   <path d="M17.2363-73.9258C15.625-72.3633 15.7227-70.0195 17.2363-68.5547L49.5117-36.5234C50.293-35.6934 51.2695-35.2539 52.3438-35.2539C54.4434-35.2539 55.9082-36.7676 55.9082-38.8184C55.9082-39.8438 55.5664-40.7227 54.7363-41.5039L39.5996-56.4453L27.1484-68.0176L40.9668-67.6758L129.688-67.6758C131.689-67.6758 133.301-69.1406 133.301-71.2402C133.301-73.3398 131.689-74.8535 129.688-74.8535L40.9668-74.8535L27.1484-74.4629L39.5996-86.0352L54.7363-100.977C55.5664-101.807 55.9082-102.637 55.9082-103.662C55.9082-105.713 54.4434-107.227 52.3438-107.227C51.2695-107.227 50.293-106.787 49.5117-106.006ZM132.129 3.4668C133.74 1.9043 133.643-0.439453 132.129-1.9043L99.8535-33.9844C99.0723-34.7656 98.0957-35.2051 97.0215-35.2051C94.9219-35.2051 93.457-33.7402 93.457-31.6895C93.457-30.6152 93.7988-29.7852 94.6289-28.9551L109.766-14.0625L122.217-2.44141L108.398-2.83203L19.6777-2.83203C17.6758-2.83203 16.0645-1.36719 16.0645 0.78125C16.0645 2.88086 17.6758 4.3457 19.6777 4.3457L108.398 4.3457L122.217 3.95508L109.766 15.5762L94.6289 30.5176C93.7988 31.2988 93.457 32.1777 93.457 33.2031C93.457 35.2539 94.9219 36.7676 97.0215 36.7676C98.0957 36.7676 99.0723 36.2793 99.8535 35.498Z"/>
  </g>
  <g id="Thin-L" transform="matrix(1 0 0 1 783.4 1556)">
   <path d="M16.6992-72.3145C15.8203-71.3867 15.8691-70.0684 16.6992-69.2383L48.8281-37.0117C49.4141-36.4258 49.8535-36.1328 50.6348-36.1328C51.7578-36.1328 52.6855-37.0605 52.6855-38.1836C52.6855-38.7695 52.4414-39.3555 51.8555-39.9414L35.498-56.25L22.4609-68.9453L35.7422-68.75L127.93-68.75C129.004-68.75 129.98-69.5801 129.98-70.8008C129.98-71.9727 129.004-72.8027 127.93-72.8027L35.7422-72.8027L22.4609-72.6074L35.498-85.3027L51.8555-101.611C52.4414-102.246 52.6855-102.783 52.6855-103.369C52.6855-104.492 51.7578-105.42 50.6348-105.42C49.8535-105.42 49.4141-105.127 48.8281-104.541ZM129.346 1.75781C130.273 0.878906 130.176-0.439453 129.346-1.26953L97.2168-33.5449C96.6797-34.082 96.1914-34.375 95.4102-34.375C94.2871-34.375 93.4082-33.4961 93.4082-32.373C93.4082-31.7383 93.6035-31.2012 94.1895-30.5664L110.547-14.3066L123.584-1.5625L110.303-1.75781L18.1152-1.75781C17.041-1.75781 16.1133-0.976562 16.1133 0.244141C16.1133 1.46484 17.041 2.29492 18.1152 2.29492L110.303 2.29492L123.584 2.05078L110.547 14.7949L94.1895 31.1035C93.6035 31.6895 93.4082 32.2754 93.4082 32.8613C93.4082 33.9844 94.2871 34.8633 95.4102 34.8633C96.1914 34.8633 96.6797 34.5703 97.2168 34.0332Z"/>
  </g>
  <g id="Ultralight-L" transform="matrix(1 0 0 1 487.519 1556)">
   <path d="M16.4551-71.4355C15.918-70.8984 15.9668-70.1172 16.4551-69.6289L48.4863-37.2559C48.9258-36.8164 49.1211-36.6211 49.7559-36.6211C50.4395-36.6211 50.9766-37.207 50.9766-37.8418C50.9766-38.2324 50.8789-38.623 50.3418-39.1602L33.3984-56.1523L20.0684-69.4336L33.0566-69.3359L127.051-69.3359C127.588-69.3359 128.271-69.7754 128.271-70.5566C128.271-71.2891 127.588-71.7773 127.051-71.7773L33.0566-71.7773L20.0684-71.6309L33.3984-84.9609L50.3418-101.953C50.8789-102.441 50.9766-102.881 50.9766-103.223C50.9766-103.906 50.4395-104.443 49.7559-104.443C49.1211-104.443 48.9258-104.248 48.4863-103.857ZM127.93 0.927734C128.467 0.341797 128.369-0.439453 127.93-0.927734L95.8496-33.3008C95.459-33.7402 95.2637-33.9355 94.5801-33.9355C93.9453-33.9355 93.3594-33.3496 93.3594-32.7148C93.3594-32.3242 93.5059-31.9336 93.9941-31.3965L110.938-14.4043L124.268-1.12305L111.279-1.2207L17.334-1.2207C16.748-1.2207 16.1133-0.732422 16.1133 0C16.1133 0.732422 16.748 1.2207 17.334 1.2207L111.279 1.2207L124.268 1.07422L110.938 14.4043L93.9941 31.3965C93.5059 31.8848 93.3594 32.3242 93.3594 32.666C93.3594 33.3496 93.9453 33.8867 94.5801 33.8867C95.2637 33.8867 95.459 33.6914 95.8496 33.3008Z"/>
  </g>
  <g id="Black-M" transform="matrix(1 0 0 1 2870.36 1126)">
   <path d="M15.332-70.5566C11.5234-66.8457 11.5234-60.8887 15.332-57.1777L40.5762-32.7148C42.2363-31.0547 44.7266-29.9805 47.0703-29.9805C52.2949-29.9805 56.0547-33.7891 56.0547-39.0137C56.0547-41.4062 55.2734-43.6523 53.5156-45.3125L43.3105-54.9805L43.5547-54.7852L104.541-54.7852C109.717-54.7852 113.623-58.6914 113.623-63.8672C113.623-69.043 109.717-72.9492 104.541-72.9492L43.5547-72.9492L43.3105-72.7539L53.5156-82.4219C55.2734-84.082 56.0547-86.3281 56.0547-88.7207C56.0547-93.9453 52.2949-97.7539 47.0703-97.7539C44.7266-97.7539 42.2363-96.6797 40.5762-95.0195ZM110.693 0.146484C114.551-3.56445 114.551-9.47266 110.693-13.1836L85.4492-37.6953C83.8379-39.3066 81.2988-40.3809 79.0039-40.3809C73.7793-40.3809 69.9707-36.6211 69.9707-31.3965C69.9707-29.0039 70.8008-26.7578 72.5586-25.0977L82.7148-15.4297L82.5195-15.625L76.416-15.5762L21.5332-15.5762C16.3574-15.5762 12.4512-11.6699 12.4512-6.54297C12.4512-1.36719 16.3574 2.53906 21.5332 2.53906L82.5195 2.53906L82.7148 2.39258L72.5586 12.0605C70.8008 13.6719 69.9707 15.9668 69.9707 18.3594C69.9707 23.584 73.7793 27.3438 79.0039 27.3438C81.2988 27.3438 83.8379 26.2695 85.4492 24.6582Z"/>
  </g>
  <g id="Heavy-M" transform="matrix(1 0 0 1 2574.48 1126)">
   <path d="M14.9902-69.6777C11.6211-66.4062 11.6211-61.1816 14.9902-57.959L40.2344-33.3984C41.6992-31.9824 43.8965-31.0059 45.9473-31.0059C50.5371-31.0059 53.8574-34.3262 53.8574-38.916C53.8574-41.0156 53.125-43.0176 51.5625-44.4336L41.3086-54.248L39.3555-55.957L46.6797-55.8594L104.004-55.8594C108.545-55.8594 111.963-59.2773 111.963-63.8184C111.963-68.3594 108.545-71.7773 104.004-71.7773L46.6797-71.7773L39.3555-71.6797L41.3086-73.3887L51.5625-83.1543C53.125-84.6191 53.8574-86.5723 53.8574-88.7207C53.8574-93.3105 50.5371-96.582 45.9473-96.582C43.8965-96.582 41.6992-95.6543 40.2344-94.1895ZM109.424-0.732422C112.793-4.00391 112.793-9.17969 109.424-12.4512L84.1797-37.0117C82.7148-38.4277 80.5176-39.4043 78.4668-39.4043C73.877-39.4043 70.5566-36.084 70.5566-31.4941C70.5566-29.3457 71.2891-27.3926 72.8516-25.9766L83.1055-16.1621L85.0586-14.4531L77.7344-14.5508L20.4102-14.5508C15.8691-14.5508 12.4512-11.1328 12.4512-6.5918C12.4512-2.05078 15.8691 1.36719 20.4102 1.36719L77.7344 1.36719L85.0586 1.26953L83.1055 2.97852L72.8516 12.7441C71.2891 14.209 70.5566 16.1621 70.5566 18.3105C70.5566 22.9004 73.877 26.1719 78.4668 26.1719C80.5176 26.1719 82.7148 25.2441 84.1797 23.7793Z"/>
  </g>
  <g id="Bold-M" transform="matrix(1 0 0 1 2278.67 1126)">
   <path d="M14.6484-68.7012C11.7188-65.918 11.7676-61.5234 14.6484-58.7402L39.8438-34.2285C41.0645-32.959 42.9688-32.1777 44.6777-32.1777C48.584-32.1777 51.3672-34.9609 51.3672-38.8184C51.3672-40.625 50.7324-42.2363 49.4141-43.5059L39.1113-53.418L34.668-57.2266L43.3594-57.0312L103.418-57.0312C107.275-57.0312 110.156-59.8633 110.156-63.7207C110.156-67.5781 107.275-70.459 103.418-70.459L43.3594-70.459L34.668-70.2148L39.1113-74.0723L49.4141-83.9844C50.7324-85.2051 51.3672-86.8164 51.3672-88.6719C51.3672-92.5293 48.584-95.3125 44.6777-95.3125C42.9688-95.3125 41.0645-94.5312 39.8438-93.2617ZM107.959-1.70898C110.889-4.49219 110.84-8.88672 107.959-11.6699L82.7637-36.1816C81.4941-37.4512 79.6387-38.2324 77.8809-38.2324C73.9746-38.2324 71.2402-35.4492 71.2402-31.5918C71.2402-29.7852 71.875-28.1738 73.1445-26.9043L83.4961-16.9922L87.9395-13.1836L79.248-13.3789L19.1895-13.3789C15.332-13.3789 12.4512-10.5469 12.4512-6.68945C12.4512-2.83203 15.332 0.0488281 19.1895 0.0488281L79.248 0.0488281L87.9395-0.195312L83.4961 3.66211L73.1445 13.5742C71.875 14.7949 71.2402 16.4062 71.2402 18.2617C71.2402 22.1191 73.9746 24.9023 77.8809 24.9023C79.6387 24.9023 81.4941 24.1211 82.7637 22.8516Z"/>
  </g>
  <g id="Semibold-M" transform="matrix(1 0 0 1 1982.6 1126)">
   <path d="M14.3555-68.0664C11.8164-65.5762 11.8164-61.7676 14.3555-59.3262L39.5508-34.7656C40.6738-33.6426 42.334-32.959 43.7988-32.959C47.2656-32.959 49.6094-35.3516 49.6094-38.7695C49.6094-40.3809 49.0723-41.748 47.9492-42.8223L37.5488-52.832L31.4453-58.1543L41.0645-57.8125L103.027-57.8125C106.348-57.8125 108.887-60.3027 108.887-63.6719C108.887-67.0898 106.348-69.5312 103.027-69.5312L41.0645-69.5312L31.4453-69.2383L37.5488-74.5605L47.9492-84.5703C49.0723-85.6445 49.6094-87.0117 49.6094-88.623C49.6094-92.041 47.2656-94.4336 43.7988-94.4336C42.334-94.4336 40.6738-93.75 39.5508-92.627ZM106.982-2.34375C109.521-4.83398 109.473-8.64258 106.982-11.084L81.7871-35.6445C80.6641-36.7676 79.0039-37.4512 77.4902-37.4512C74.0723-37.4512 71.6797-35.0586 71.6797-31.6406C71.6797-30.0293 72.2656-28.6621 73.3887-27.5879L83.7891-17.5781L89.8926-12.2559L80.2734-12.5977L18.3105-12.5977C14.9414-12.5977 12.4512-10.1074 12.4512-6.73828C12.4512-3.32031 14.9414-0.878906 18.3105-0.878906L80.2734-0.878906L89.8926-1.17188L83.7891 4.10156L73.3887 14.1113C72.2656 15.2344 71.6797 16.6016 71.6797 18.2129C71.6797 21.582 74.0723 24.0234 77.4902 24.0234C79.0039 24.0234 80.6641 23.3398 81.7871 22.2168Z"/>
  </g>
  <g id="Medium-M" transform="matrix(1 0 0 1 1686.37 1126)">
   <path d="M14.1602-67.5293C11.8652-65.332 11.9141-61.9141 14.1602-59.7656L39.3555-35.1562C40.332-34.1797 41.8457-33.5449 43.1641-33.5449C46.2402-33.5449 48.3398-35.6934 48.3398-38.7207C48.3398-40.1855 47.8516-41.3574 46.8262-42.334L36.377-52.3926L28.9551-58.8379L39.3066-58.4473L102.686-58.4473C105.713-58.4473 107.91-60.6445 107.91-63.6719C107.91-66.6992 105.713-68.8477 102.686-68.8477L39.3066-68.8477L28.9551-68.5059L36.377-74.9023L46.8262-84.9609C47.8516-85.9375 48.3398-87.1582 48.3398-88.623C48.3398-91.6016 46.2402-93.75 43.1641-93.75C41.8457-93.75 40.332-93.1152 39.3555-92.1387ZM106.201-2.88086C108.496-5.07812 108.447-8.49609 106.201-10.6445L81.0547-35.2539C80.0293-36.2305 78.5156-36.8652 77.1973-36.8652C74.1699-36.8652 72.0703-34.7168 72.0703-31.6895C72.0703-30.2734 72.5586-29.0527 73.5352-28.0762L83.9844-18.0176L91.4062-11.6211L81.0547-11.9629L17.6758-11.9629C14.6973-11.9629 12.4512-9.76562 12.4512-6.73828C12.4512-3.75977 14.6973-1.5625 17.6758-1.5625L81.0547-1.5625L91.4062-1.9043L83.9844 4.49219L73.5352 14.5508C72.5586 15.5273 72.0703 16.748 72.0703 18.1641C72.0703 21.1914 74.1699 23.3398 77.1973 23.3398C78.5156 23.3398 80.0293 22.7051 81.0547 21.7285Z"/>
  </g>
  <g id="Regular-M" transform="matrix(1 0 0 1 1390.27 1126)">
   <path d="M13.916-66.8945C11.9141-64.9902 12.0117-62.1582 13.916-60.3516L39.0625-35.7422C39.9414-34.8633 41.2109-34.3262 42.2852-34.3262C44.873-34.3262 46.6309-36.1328 46.6309-38.6719C46.6309-39.8926 46.1914-40.8691 45.3613-41.6992L34.8633-51.8555L25.7812-59.7168L37.0605-59.2285L102.295-59.2285C104.834-59.2285 106.641-61.0352 106.641-63.623C106.641-66.1621 104.834-67.9688 102.295-67.9688L37.0605-67.9688L25.7812-67.5293L34.8633-75.3418L45.3613-85.5469C46.1914-86.377 46.6309-87.3047 46.6309-88.5742C46.6309-91.1133 44.873-92.8711 42.2852-92.8711C41.2109-92.8711 39.9414-92.3828 39.0625-91.5039ZM105.225-3.51562C107.178-5.41992 107.129-8.25195 105.225-10.1074L80.0781-34.7168C79.1992-35.5469 77.9297-36.084 76.8066-36.084C74.2188-36.084 72.5098-34.3262 72.5098-31.7871C72.5098-30.5176 72.9004-29.541 73.7305-28.7598L84.2773-18.5547L93.3594-10.6934L82.0801-11.1816L16.8457-11.1816C14.3066-11.1816 12.4512-9.375 12.4512-6.83594C12.4512-4.24805 14.3066-2.44141 16.8457-2.44141L82.0801-2.44141L93.3594-2.92969L84.2773 4.93164L73.7305 15.0879C72.9004 15.918 72.5098 16.8945 72.5098 18.1641C72.5098 20.7031 74.2188 22.4609 76.8066 22.4609C77.9297 22.4609 79.1992 21.9238 80.0781 21.0938Z"/>
  </g>
  <g id="Light-M" transform="matrix(1 0 0 1 1094.69 1126)">
   <path d="M13.5254-65.7715C12.0605-64.3555 12.1094-62.1582 13.5254-60.791L38.623-36.0352C39.3066-35.3516 40.2344-34.9609 41.1621-34.9609C43.0664-34.9609 44.4336-36.3281 44.4336-38.2324C44.4336-39.1602 44.0918-39.9414 43.4082-40.625L32.0801-51.709L22.6074-60.3516L33.4961-60.0098L101.123-60.0098C102.979-60.0098 104.395-61.377 104.395-63.2812C104.395-65.2344 102.979-66.6016 101.123-66.6016L33.4961-66.6016L22.6074-66.2598L32.0801-74.8535L43.4082-85.9863C44.0918-86.6699 44.4336-87.4023 44.4336-88.3789C44.4336-90.2832 43.0664-91.6504 41.1621-91.6504C40.2344-91.6504 39.3066-91.2598 38.623-90.5273ZM103.32-4.6875C104.834-6.10352 104.785-8.25195 103.32-9.61914L78.2715-34.4238C77.5879-35.1074 76.6602-35.498 75.7324-35.498C73.7793-35.498 72.4609-34.1309 72.4609-32.2266C72.4609-31.2988 72.7539-30.5176 73.4863-29.834L84.8145-18.75L94.2871-10.1074L83.3496-10.4492L15.7715-10.4492C13.916-10.4492 12.4512-9.08203 12.4512-7.17773C12.4512-5.22461 13.916-3.85742 15.7715-3.85742L83.3496-3.85742L94.2871-4.19922L84.8145 4.39453L73.4863 15.5273C72.7539 16.2109 72.4609 16.9434 72.4609 17.9199C72.4609 19.8242 73.7793 21.1914 75.7324 21.1914C76.6602 21.1914 77.5879 20.8008 78.2715 20.0684Z"/>
  </g>
  <g id="Thin-M" transform="matrix(1 0 0 1 799.464 1126)">
   <path d="M13.0859-64.3066C12.207-63.4766 12.2559-62.207 13.0859-61.4258L37.9883-36.4746C38.4766-36.0352 38.9648-35.7422 39.5996-35.7422C40.7227-35.7422 41.5039-36.5723 41.5039-37.6465C41.5039-38.1836 41.3086-38.7207 40.8203-39.209L28.418-51.5625L18.4082-61.1816L28.8086-60.9863L99.5117-60.9863C100.537-60.9863 101.416-61.7676 101.416-62.8906C101.416-64.0137 100.537-64.7949 99.5117-64.7949L28.8086-64.7949L18.4082-64.5996L28.418-74.2188L40.8203-86.5234C41.3086-87.0605 41.5039-87.5488 41.5039-88.1348C41.5039-89.209 40.7227-89.9902 39.5996-89.9902C38.9648-89.9902 38.4766-89.7461 37.9883-89.2578ZM100.83-6.20117C101.709-7.03125 101.66-8.25195 100.83-9.0332L75.9277-34.0332C75.4395-34.4727 74.9512-34.7656 74.3164-34.7656C73.1934-34.7656 72.4121-33.9355 72.4121-32.8613C72.4121-32.2754 72.6074-31.7871 73.0957-31.2988L85.498-18.9453L95.459-9.32617L85.1074-9.52148L14.3555-9.52148C13.3301-9.52148 12.4512-8.74023 12.4512-7.61719C12.4512-6.49414 13.3301-5.71289 14.3555-5.71289L85.1074-5.71289L95.459-5.9082L85.498 3.71094L73.0957 16.0156C72.6074 16.5527 72.4121 17.041 72.4121 17.627C72.4121 18.7012 73.1934 19.4824 74.3164 19.4824C74.9512 19.4824 75.4395 19.2383 75.9277 18.75Z"/>
  </g>
  <g id="Ultralight-M" transform="matrix(1 0 0 1 503.51 1126)">
   <path d="M12.8418-63.5742C12.3047-63.0371 12.3535-62.2559 12.8418-61.7676L37.6953-36.7188C38.0371-36.3281 38.2812-36.1816 38.8184-36.1816C39.502-36.1816 40.0391-36.7188 40.0391-37.3535C40.0391-37.6953 39.8926-38.0859 39.502-38.5254L26.5137-51.4648L16.3086-61.5723L26.416-61.4746L98.7305-61.4746C99.3164-61.4746 99.9023-61.9629 99.9023-62.6465C99.9023-63.3789 99.3164-63.8672 98.7305-63.8672L26.416-63.8672L16.3086-63.7207L26.5137-73.877L39.502-86.8164C39.8926-87.2559 40.0391-87.5977 40.0391-87.9883C40.0391-88.623 39.502-89.1602 38.8184-89.1602C38.2812-89.1602 38.0371-88.9648 37.6953-88.623ZM99.5605-6.98242C100.098-7.51953 100.049-8.25195 99.5605-8.74023L74.707-33.7891C74.3164-34.1797 74.1211-34.375 73.5352-34.375C72.9004-34.375 72.3633-33.8379 72.3633-33.1543C72.3633-32.8125 72.4609-32.4707 72.9004-32.0312L85.8398-19.043L96.0938-8.93555L85.9863-9.0332L13.6719-9.0332C13.0859-9.0332 12.4512-8.59375 12.4512-7.86133C12.4512-7.12891 13.0859-6.68945 13.6719-6.68945L85.9863-6.68945L96.0938-6.78711L85.8398 3.36914L72.9004 16.3086C72.4609 16.748 72.3633 17.0898 72.3633 17.4316C72.3633 18.1152 72.9004 18.6523 73.5352 18.6523C74.1211 18.6523 74.3164 18.457 74.707 18.1152Z"/>
  </g>
  <g id="Black-S" transform="matrix(1 0 0 1 2884.06 696)">
   <path d="M12.0117-62.8418C9.0332-59.9609 9.0332-55.3711 12.0117-52.4902L31.7871-33.3008C33.0566-32.0312 35.0098-31.2012 36.8164-31.2012C40.8691-31.2012 43.7988-34.1309 43.7988-38.1836C43.7988-40.0391 43.1641-41.7969 41.7969-43.0664L33.8379-50.6348L81.8848-50.6348C85.8887-50.6348 88.916-53.6621 88.916-57.666C88.916-61.6699 85.8887-64.6973 81.8848-64.6973L33.8379-64.6973L41.7969-72.2656C43.1641-73.5352 43.7988-75.293 43.7988-77.1484C43.7988-81.2012 40.8691-84.1309 36.8164-84.1309C35.0098-84.1309 33.0566-83.3008 31.7871-82.0312ZM86.6699-7.56836C89.6484-10.4492 89.6484-15.0391 86.6699-17.9199L66.8945-37.1094C65.625-38.3789 63.6719-39.209 61.8652-39.209C57.8125-39.209 54.8828-36.2793 54.8828-32.2266C54.8828-30.3711 55.5176-28.6133 56.8848-27.3438L64.8438-19.7754L16.7969-19.7754C12.793-19.7754 9.76562-16.748 9.76562-12.7441C9.76562-8.74023 12.793-5.71289 16.7969-5.71289L64.8438-5.71289L56.8848 1.85547C55.5176 3.125 54.8828 4.88281 54.8828 6.73828C54.8828 10.791 57.8125 13.7207 61.8652 13.7207C63.6719 13.7207 65.625 12.8906 66.8945 11.6211Z"/>
  </g>
  <g id="Heavy-S" transform="matrix(1 0 0 1 2587.86 696)">
   <path d="M11.8164-62.3047C9.08203-59.7168 9.13086-55.6152 11.8164-53.0273L31.543-33.7891C32.7148-32.666 34.4727-31.9336 36.084-31.9336C39.7461-31.9336 42.334-34.5215 42.334-38.1836C42.334-39.8438 41.748-41.4062 40.5273-42.5293L32.6172-50.0977L30.957-51.4648L36.8652-51.3672L81.5918-51.3672C85.2051-51.3672 87.8906-54.0527 87.8906-57.666C87.8906-61.2793 85.2051-63.9648 81.5918-63.9648L36.8652-63.9648L30.957-63.8672L32.6172-65.2344L40.5273-72.7539C41.748-73.9258 42.334-75.4395 42.334-77.1484C42.334-80.7617 39.7461-83.3984 36.084-83.3984C34.4727-83.3984 32.7148-82.666 31.543-81.4941ZM85.8887-8.10547C88.5742-10.6934 88.5742-14.8438 85.8887-17.4316L66.1133-36.6211C64.9902-37.7441 63.1836-38.4766 61.5723-38.4766C57.959-38.4766 55.3223-35.8887 55.3223-32.2266C55.3223-30.5664 55.9082-29.0039 57.1289-27.8809L65.0391-20.3125L66.6992-18.9453L60.8398-19.043L16.0645-19.043C12.4512-19.043 9.76562-16.3574 9.76562-12.7441C9.76562-9.17969 12.4512-6.44531 16.0645-6.44531L60.8398-6.44531L66.6992-6.54297L65.0391-5.17578L57.1289 2.34375C55.9082 3.51562 55.3223 5.0293 55.3223 6.73828C55.3223 10.3516 57.959 12.9883 61.5723 12.9883C63.1836 12.9883 64.9902 12.2559 66.1133 11.084Z"/>
  </g>
  <g id="Bold-S" transform="matrix(1 0 0 1 2291.69 696)">
   <path d="M11.5234-61.7188C9.17969-59.4238 9.17969-55.8594 11.5234-53.5645L31.2988-34.375C32.3242-33.3496 33.8867-32.7148 35.2539-32.7148C38.4766-32.7148 40.7227-34.9609 40.7227-38.1348C40.7227-39.6484 40.1855-40.9668 39.1602-41.9434L31.25-49.4629L27.7832-52.3926L34.7168-52.1484L81.2988-52.1484C84.4727-52.1484 86.7676-54.4922 86.7676-57.666C86.7676-60.791 84.4727-63.1348 81.2988-63.1348L34.7168-63.1348L27.7832-62.9395L31.25-65.8203L39.1602-73.3398C40.1855-74.3164 40.7227-75.6348 40.7227-77.1484C40.7227-80.3223 38.4766-82.5684 35.2539-82.5684C33.8867-82.5684 32.3242-81.9336 31.2988-80.9082ZM85.0098-8.69141C87.4023-10.9863 87.3535-14.5996 85.0098-16.8457L65.2344-36.0352C64.209-37.0605 62.6953-37.6953 61.2793-37.6953C58.1055-37.6953 55.8594-35.4492 55.8594-32.2754C55.8594-30.7617 56.3477-29.4922 57.4219-28.4668L65.2832-20.9473L68.7988-18.0664L61.8164-18.2617L15.2344-18.2617C12.1094-18.2617 9.76562-15.918 9.76562-12.793C9.76562-9.61914 12.1094-7.27539 15.2344-7.27539L61.8164-7.27539L68.7988-7.51953L65.2832-4.58984L57.4219 2.92969C56.3477 3.90625 55.8594 5.22461 55.8594 6.73828C55.8594 9.91211 58.1055 12.1582 61.2793 12.1582C62.6953 12.1582 64.209 11.5234 65.2344 10.498Z"/>
  </g>
  <g id="Semibold-S" transform="matrix(1 0 0 1 1995.37 696)">
   <path d="M11.377-61.2793C9.22852-59.2285 9.22852-56.0059 11.377-53.9551L31.1523-34.7656C32.0801-33.8379 33.4961-33.252 34.7168-33.252C37.5977-33.252 39.5508-35.3027 39.5508-38.1348C39.5508-39.502 39.1113-40.625 38.1836-41.5039L30.3223-49.0723L25.5859-52.9785L33.3008-52.7344L81.1035-52.7344C83.9355-52.7344 86.0352-54.7852 86.0352-57.6172C86.0352-60.4492 83.9355-62.5488 81.1035-62.5488L33.3008-62.5488L25.5859-62.2559L30.3223-66.2109L38.1836-73.7305C39.1113-74.6094 39.5508-75.7812 39.5508-77.1484C39.5508-79.9805 37.5977-81.9824 34.7168-81.9824C33.4961-81.9824 32.0801-81.3965 31.1523-80.5176ZM84.4238-9.13086C86.5723-11.1816 86.5234-14.4043 84.4238-16.4551L64.6484-35.6445C63.7207-36.5723 62.3047-37.1582 61.084-37.1582C58.2031-37.1582 56.2012-35.1074 56.2012-32.2754C56.2012-30.9082 56.6895-29.7852 57.5684-28.9062L65.4785-21.3379L70.2148-17.4316L62.5-17.7246L14.6973-17.7246C11.8652-17.7246 9.76562-15.625 9.76562-12.793C9.76562-9.96094 11.8652-7.86133 14.6973-7.86133L62.5-7.86133L70.2148-8.1543L65.4785-4.19922L57.5684 3.32031C56.6895 4.19922 56.2012 5.37109 56.2012 6.68945C56.2012 9.57031 58.2031 11.5723 61.084 11.5723C62.3047 11.5723 63.7207 10.9863 64.6484 10.1074Z"/>
  </g>
  <g id="Medium-S" transform="matrix(1 0 0 1 1698.95 696)">
   <path d="M11.2305-60.9863C9.27734-59.082 9.27734-56.1523 11.2305-54.2969L31.0059-35.0586C31.8848-34.2285 33.1543-33.6914 34.2773-33.6914C36.9141-33.6914 38.7207-35.498 38.7207-38.1348C38.7207-39.4043 38.2812-40.3809 37.4512-41.2109L29.5898-48.7305L23.9258-53.4668L32.1777-53.125L80.957-53.125C83.5449-53.125 85.4492-55.0293 85.4492-57.6172C85.4492-60.2539 83.5449-62.1094 80.957-62.1094L32.1777-62.1094L23.9258-61.7676L29.5898-66.5039L37.4512-74.0234C38.2812-74.8535 38.7207-75.8789 38.7207-77.0996C38.7207-79.7363 36.9141-81.5918 34.2773-81.5918C33.1543-81.5918 31.8848-81.0547 31.0059-80.1758ZM83.9355-9.42383C85.9375-11.3281 85.8887-14.2578 83.9355-16.1621L64.209-35.3516C63.3301-36.1816 62.0117-36.7188 60.9375-36.7188C58.3008-36.7188 56.4941-34.9121 56.4941-32.2754C56.4941-31.0059 56.8848-30.0293 57.7148-29.1992L65.5762-21.6797L71.2891-16.9434L63.0371-17.2852L14.2578-17.2852C11.6699-17.2852 9.76562-15.3809 9.76562-12.793C9.76562-10.2051 11.6699-8.30078 14.2578-8.30078L63.0371-8.30078L71.2891-8.64258L65.5762-3.90625L57.7148 3.61328C56.8848 4.44336 56.4941 5.46875 56.4941 6.68945C56.4941 9.32617 58.3008 11.1328 60.9375 11.1328C62.0117 11.1328 63.3301 10.6445 64.209 9.76562Z"/>
  </g>
  <g id="Regular-S" transform="matrix(1 0 0 1 1402.63 696)">
   <path d="M11.084-60.5469C9.32617-58.8867 9.375-56.2988 11.084-54.6875L30.8594-35.4492C31.5918-34.7168 32.7637-34.2285 33.6914-34.2285C36.0352-34.2285 37.5977-35.8398 37.5977-38.1348C37.5977-39.2578 37.207-40.0879 36.5234-40.8203L28.6621-48.3398L21.7285-54.1016L30.7617-53.6621L80.7129-53.6621C83.0078-53.6621 84.668-55.3223 84.668-57.6172C84.668-59.9121 83.0078-61.5723 80.7129-61.5723L30.7617-61.5723L21.7285-61.1328L28.6621-66.8945L36.5234-74.4141C37.207-75.1465 37.5977-75.9766 37.5977-77.0996C37.5977-79.3945 36.0352-81.0059 33.6914-81.0059C32.7637-81.0059 31.5918-80.5176 30.8594-79.7852ZM83.3496-9.86328C85.1562-11.5234 85.1074-14.1113 83.3496-15.7715L63.5742-34.9609C62.8418-35.7422 61.6699-36.1816 60.7422-36.1816C58.3984-36.1816 56.8359-34.5703 56.8359-32.2754C56.8359-31.1523 57.2266-30.3223 57.9102-29.5898L65.7715-22.1191L72.7051-16.3086L63.6719-16.748L13.7207-16.748C11.4258-16.748 9.76562-15.0879 9.76562-12.793C9.76562-10.498 11.4258-8.83789 13.7207-8.83789L63.6719-8.83789L72.7051-9.27734L65.7715-3.51562L57.9102 4.00391C57.2266 4.73633 56.8359 5.56641 56.8359 6.68945C56.8359 8.98438 58.3984 10.5957 60.7422 10.5957C61.6699 10.5957 62.8418 10.1074 63.5742 9.375Z"/>
  </g>
  <g id="Light-S" transform="matrix(1 0 0 1 1106.92 696)">
   <path d="M10.7422-59.5703C9.42383-58.3008 9.47266-56.3477 10.7422-55.0781L30.4199-35.7422C31.0547-35.1562 31.8848-34.7656 32.7148-34.7656C34.4727-34.7656 35.6445-35.9863 35.6445-37.7441C35.6445-38.5742 35.3516-39.2578 34.7656-39.8438L26.2207-48.1934L18.9453-54.6387L27.6367-54.3457L79.6875-54.3457C81.3965-54.3457 82.666-55.5664 82.666-57.3242C82.666-59.082 81.3965-60.3516 79.6875-60.3516L27.6367-60.3516L18.9453-60.0098L26.2207-66.4551L34.7656-74.8047C35.3516-75.3906 35.6445-76.0742 35.6445-76.9531C35.6445-78.6621 34.4727-79.9316 32.7148-79.9316C31.8848-79.9316 31.0547-79.541 30.4199-78.9551ZM81.6895-10.8398C83.0566-12.1582 83.0078-14.1113 81.6895-15.332L62.0117-34.7168C61.4258-35.3027 60.5469-35.6934 59.7656-35.6934C58.0078-35.6934 56.7871-34.4238 56.7871-32.7148C56.7871-31.8359 57.0801-31.1523 57.666-30.5664L66.2598-22.2656L73.5352-15.7715L64.8438-16.1133L12.793-16.1133C11.0352-16.1133 9.76562-14.8438 9.76562-13.0859C9.76562-11.3281 11.0352-10.1074 12.793-10.1074L64.8438-10.1074L73.5352-10.4492L66.2598-3.95508L57.666 4.3457C57.0801 4.98047 56.7871 5.61523 56.7871 6.49414C56.7871 8.25195 58.0078 9.47266 59.7656 9.47266C60.5469 9.47266 61.4258 9.08203 62.0117 8.49609Z"/>
  </g>
  <g id="Thin-S" transform="matrix(1 0 0 1 811.5 696)">
   <path d="M10.3516-58.3008C9.57031-57.5195 9.61914-56.3477 10.3516-55.6641L29.8828-36.1328C30.3223-35.6934 30.7617-35.498 31.3477-35.498C32.373-35.498 33.1055-36.2305 33.1055-37.2559C33.1055-37.7441 32.9102-38.1836 32.4707-38.623L22.9492-48.0469L15.2344-55.3711L23.4863-55.2246L78.2715-55.2246C79.248-55.2246 80.0293-55.9082 80.0293-56.9824C80.0293-58.0078 79.248-58.7402 78.2715-58.7402L23.4863-58.7402L15.2344-58.5449L22.9492-65.918L32.4707-75.293C32.9102-75.7324 33.1055-76.1719 33.1055-76.709C33.1055-77.7344 32.373-78.4668 31.3477-78.4668C30.7617-78.4668 30.3223-78.2227 29.8828-77.832ZM79.4922-12.207C80.2734-12.9395 80.2246-14.1113 79.4922-14.8438L59.9121-34.375C59.5215-34.7656 59.082-35.0098 58.4961-35.0098C57.4707-35.0098 56.7383-34.2773 56.7383-33.252C56.7383-32.7148 56.9336-32.2754 57.373-31.8359L66.8457-22.4121L74.6094-15.0879L66.3574-15.2832L11.5234-15.2832C10.5957-15.2832 9.76562-14.5508 9.76562-13.5254C9.76562-12.4512 10.5957-11.7676 11.5234-11.7676L66.3574-11.7676L74.6094-11.9141L66.8457-4.58984L57.373 4.83398C56.9336 5.27344 56.7383 5.71289 56.7383 6.25C56.7383 7.22656 57.4707 7.95898 58.4961 7.95898C59.082 7.95898 59.5215 7.76367 59.9121 7.32422Z"/>
  </g>
  <g id="Ultralight-S" transform="matrix(1 0 0 1 515.473 696)">
   <path d="M10.1074-57.6172C9.61914-57.1289 9.66797-56.3965 10.1074-55.957L29.6387-36.3281C29.9316-36.0352 30.1758-35.8398 30.6641-35.8398C31.25-35.8398 31.7871-36.3281 31.7871-36.9629C31.7871-37.3047 31.6406-37.6465 31.2988-37.9883L21.2891-47.9492L13.3301-55.7617L21.3379-55.6641L77.5879-55.6641C78.1738-55.6641 78.7109-56.1035 78.7109-56.7871C78.7109-57.4707 78.1738-57.9102 77.5879-57.9102L21.3379-57.9102L13.3301-57.8125L21.2891-65.5762L31.2988-75.5859C31.6406-75.9277 31.7871-76.2695 31.7871-76.6113C31.7871-77.1973 31.25-77.7344 30.6641-77.7344C30.1758-77.7344 29.9316-77.5391 29.6387-77.2461ZM78.3691-12.8906C78.8574-13.3789 78.8086-14.1113 78.3691-14.5508L58.8379-34.1797C58.5449-34.4727 58.3008-34.668 57.8125-34.668C57.2266-34.668 56.7383-34.1309 56.7383-33.5449C56.7383-33.2031 56.8359-32.8613 57.1777-32.5195L67.1875-22.5586L75.1465-14.7461L67.1387-14.8438L10.8887-14.8438C10.3516-14.8438 9.76562-14.4043 9.76562-13.7207C9.76562-13.0371 10.3516-12.5977 10.8887-12.5977L67.1387-12.5977L75.1465-12.6953L67.1875-4.93164L57.1777 5.07812C56.8359 5.41992 56.7383 5.76172 56.7383 6.10352C56.7383 6.68945 57.2266 7.22656 57.8125 7.22656C58.3008 7.22656 58.5449 7.03125 58.8379 6.73828Z"/>
  </g>
 </g>
</svg>
