<svg width="100" height="100" viewBox="0 0 100 100" fill="none" xmlns="http://www.w3.org/2000/svg">
<path d="M47 20H25C23.6739 20 22.4021 20.5268 21.4645 21.4645C20.5268 22.4021 20 23.6739 20 25V75C20 76.3261 20.5268 77.5978 21.4645 78.5355C22.4021 79.4732 23.6739 80 25 80H47C48.3261 80 49.5979 79.4732 50.5355 78.5355C51.4732 77.5978 52 76.3261 52 75V25C52 23.6739 51.4732 22.4021 50.5355 21.4645C49.5979 20.5268 48.3261 20 47 20ZM50 75C50 75.7956 49.6839 76.5587 49.1213 77.1213C48.5587 77.6839 47.7956 78 47 78H25C24.2044 78 23.4413 77.6839 22.8787 77.1213C22.3161 76.5587 22 75.7956 22 75V25C22 24.2044 22.3161 23.4413 22.8787 22.8787C23.4413 22.3161 24.2044 22 25 22H28V23C28 23.2652 28.1054 23.5196 28.2929 23.7071C28.4804 23.8946 28.7348 24 29 24H43C43.2652 24 43.5196 23.8946 43.7071 23.7071C43.8946 23.5196 44 23.2652 44 23V22H47C47.7956 22 48.5587 22.3161 49.1213 22.8787C49.6839 23.4413 50 24.2044 50 25V75Z" fill="black"/>
<path d="M75 48H56C55.7348 48 55.4804 48.1054 55.2929 48.2929C55.1054 48.4804 55 48.7348 55 49C55 49.2652 55.1054 49.5196 55.2929 49.7071C55.4804 49.8946 55.7348 50 56 50H75C75.7957 50 76.5587 50.3161 77.1213 50.8787C77.6839 51.4413 78 52.2044 78 53V56H77C76.7348 56 76.4804 56.1054 76.2929 56.2929C76.1054 56.4804 76 56.7348 76 57V71C76 71.2652 76.1054 71.5196 76.2929 71.7071C76.4804 71.8946 76.7348 72 77 72H78V75C78 75.7956 77.6839 76.5587 77.1213 77.1213C76.5587 77.6839 75.7957 78 75 78H54C53.7348 78 53.4804 78.1054 53.2929 78.2929C53.1054 78.4804 53 78.7348 53 79C53 79.2652 53.1054 79.5196 53.2929 79.7071C53.4804 79.8946 53.7348 80 54 80H75C76.3261 80 77.5979 79.4732 78.5355 78.5355C79.4732 77.5978 80 76.3261 80 75V53C80 51.6739 79.4732 50.4021 78.5355 49.4645C77.5979 48.5268 76.3261 48 75 48Z" fill="black"/>
<path d="M58.2003 31.5994C58.2945 31.7224 58.4155 31.8224 58.5541 31.8917C58.6927 31.9611 58.8453 31.9979 59.0003 31.9994C59.2169 32.0009 59.4279 31.9305 59.6003 31.7994C59.8125 31.6402 59.9528 31.4034 59.9903 31.1408C60.0278 30.8782 59.9594 30.6116 59.8003 30.3994L58.2203 28.2794C61.7358 28.8792 65.0098 30.4614 67.6641 32.8432C70.3184 35.225 72.2446 38.3092 73.2203 41.7394L70.5003 40.1394C70.3872 40.0571 70.258 39.9994 70.1211 39.9702C69.9843 39.941 69.8429 39.9408 69.706 39.9696C69.569 39.9985 69.4397 40.0557 69.3263 40.1377C69.2129 40.2197 69.118 40.3245 69.0476 40.4455C68.9773 40.5665 68.9332 40.7008 68.918 40.8399C68.9029 40.979 68.9171 41.1198 68.9598 41.253C69.0024 41.3863 69.0726 41.5091 69.1657 41.6136C69.2588 41.718 69.3728 41.8018 69.5003 41.8594L73.8003 44.3994C73.9505 44.4921 74.1238 44.5406 74.3003 44.5394H74.5603C74.6882 44.5121 74.8084 44.4567 74.9122 44.3771C75.016 44.2975 75.1008 44.1958 75.1603 44.0794L77.7003 39.7794C77.8343 39.5503 77.8737 39.2781 77.8102 39.0204C77.7468 38.7628 77.5854 38.54 77.3603 38.3994C77.1289 38.2672 76.8549 38.2308 76.5969 38.2981C76.339 38.3654 76.1177 38.531 75.9803 38.7594L74.9603 40.4994C73.7842 36.8699 71.6352 33.6325 68.7472 31.1394C65.8591 28.6463 62.3426 26.993 58.5803 26.3594L60.5803 24.8394C60.6854 24.7606 60.7739 24.6619 60.8408 24.5489C60.9077 24.4359 60.9517 24.3108 60.9703 24.1808C60.9888 24.0508 60.9816 23.9184 60.949 23.7912C60.9164 23.664 60.8591 23.5444 60.7803 23.4394C60.7015 23.3343 60.6028 23.2458 60.4898 23.1789C60.3768 23.112 60.2517 23.068 60.1217 23.0494C59.8592 23.0119 59.5925 23.0803 59.3803 23.2394L55.3803 26.2394C55.1681 26.3985 55.0279 26.6354 54.9904 26.898C54.9529 27.1605 55.0212 27.4272 55.1803 27.6394L58.2003 31.5994Z" fill="black"/>
<path d="M47 20H25C23.6739 20 22.4021 20.5268 21.4645 21.4645C20.5268 22.4021 20 23.6739 20 25V75C20 76.3261 20.5268 77.5978 21.4645 78.5355C22.4021 79.4732 23.6739 80 25 80H47C48.3261 80 49.5979 79.4732 50.5355 78.5355C51.4732 77.5978 52 76.3261 52 75V25C52 23.6739 51.4732 22.4021 50.5355 21.4645C49.5979 20.5268 48.3261 20 47 20ZM50 75C50 75.7956 49.6839 76.5587 49.1213 77.1213C48.5587 77.6839 47.7956 78 47 78H25C24.2044 78 23.4413 77.6839 22.8787 77.1213C22.3161 76.5587 22 75.7956 22 75V25C22 24.2044 22.3161 23.4413 22.8787 22.8787C23.4413 22.3161 24.2044 22 25 22H28V23C28 23.2652 28.1054 23.5196 28.2929 23.7071C28.4804 23.8946 28.7348 24 29 24H43C43.2652 24 43.5196 23.8946 43.7071 23.7071C43.8946 23.5196 44 23.2652 44 23V22H47C47.7956 22 48.5587 22.3161 49.1213 22.8787C49.6839 23.4413 50 24.2044 50 25V75Z" stroke="black" stroke-width="2"/>
<path d="M75 48H56C55.7348 48 55.4804 48.1054 55.2929 48.2929C55.1054 48.4804 55 48.7348 55 49C55 49.2652 55.1054 49.5196 55.2929 49.7071C55.4804 49.8946 55.7348 50 56 50H75C75.7957 50 76.5587 50.3161 77.1213 50.8787C77.6839 51.4413 78 52.2044 78 53V56H77C76.7348 56 76.4804 56.1054 76.2929 56.2929C76.1054 56.4804 76 56.7348 76 57V71C76 71.2652 76.1054 71.5196 76.2929 71.7071C76.4804 71.8946 76.7348 72 77 72H78V75C78 75.7956 77.6839 76.5587 77.1213 77.1213C76.5587 77.6839 75.7957 78 75 78H54C53.7348 78 53.4804 78.1054 53.2929 78.2929C53.1054 78.4804 53 78.7348 53 79C53 79.2652 53.1054 79.5196 53.2929 79.7071C53.4804 79.8946 53.7348 80 54 80H75C76.3261 80 77.5979 79.4732 78.5355 78.5355C79.4732 77.5978 80 76.3261 80 75V53C80 51.6739 79.4732 50.4021 78.5355 49.4645C77.5979 48.5268 76.3261 48 75 48Z" stroke="black" stroke-width="2"/>
<path d="M58.2003 31.5994C58.2945 31.7224 58.4155 31.8224 58.5541 31.8917C58.6927 31.9611 58.8453 31.9979 59.0003 31.9994C59.2169 32.0009 59.4279 31.9305 59.6003 31.7994C59.8125 31.6402 59.9528 31.4034 59.9903 31.1408C60.0278 30.8782 59.9594 30.6116 59.8003 30.3994L58.2203 28.2794C61.7358 28.8792 65.0098 30.4614 67.6641 32.8432C70.3184 35.225 72.2446 38.3092 73.2203 41.7394L70.5003 40.1394C70.3872 40.0571 70.258 39.9994 70.1211 39.9702C69.9843 39.941 69.8429 39.9408 69.706 39.9696C69.569 39.9985 69.4397 40.0557 69.3263 40.1377C69.2129 40.2197 69.118 40.3245 69.0476 40.4455C68.9773 40.5665 68.9332 40.7008 68.918 40.8399C68.9029 40.979 68.9171 41.1198 68.9598 41.253C69.0024 41.3863 69.0726 41.5091 69.1657 41.6136C69.2588 41.718 69.3728 41.8018 69.5003 41.8594L73.8003 44.3994C73.9505 44.4921 74.1238 44.5406 74.3003 44.5394H74.5603C74.6882 44.5121 74.8084 44.4567 74.9122 44.3771C75.016 44.2975 75.1008 44.1958 75.1603 44.0794L77.7003 39.7794C77.8343 39.5503 77.8737 39.2781 77.8102 39.0204C77.7468 38.7628 77.5854 38.54 77.3603 38.3994C77.1289 38.2672 76.8549 38.2308 76.5969 38.2981C76.339 38.3654 76.1177 38.531 75.9803 38.7594L74.9603 40.4994C73.7842 36.8699 71.6352 33.6325 68.7472 31.1394C65.8591 28.6463 62.3426 26.993 58.5803 26.3594L60.5803 24.8394C60.6854 24.7606 60.7739 24.6619 60.8408 24.5489C60.9077 24.4359 60.9517 24.3108 60.9703 24.1808C60.9888 24.0508 60.9816 23.9184 60.949 23.7912C60.9164 23.664 60.8591 23.5444 60.7803 23.4394C60.7015 23.3343 60.6028 23.2458 60.4898 23.1789C60.3768 23.112 60.2517 23.068 60.1217 23.0494C59.8592 23.0119 59.5925 23.0803 59.3803 23.2394L55.3803 26.2394C55.1681 26.3985 55.0279 26.6354 54.9904 26.898C54.9529 27.1605 55.0212 27.4272 55.1803 27.6394L58.2003 31.5994Z" stroke="black" stroke-width="2"/>
</svg>
